<?xml version="1.0" encoding="UTF-8"?> <svg xmlns="http://www.w3.org/2000/svg" width="126" height="76" viewBox="0 0 126 76" fill="none"> <g clip-path="url(#clip0_196_7668)"> <g clip-path="url(#clip1_196_7668)"> <path d="M51.6665 7.33333L53.6665 9.33333L56.9998 6" stroke="white" stroke-width="2" stroke-linecap="round" stroke-linejoin="round"></path> <path d="M51.6665 15.3333L53.6665 17.3333L56.9998 14" stroke="white" stroke-width="2" stroke-linecap="round" stroke-linejoin="round"></path> <path d="M51.6665 23.3333L53.6665 25.3333L56.9998 22" stroke="white" stroke-width="2" stroke-linecap="round" stroke-linejoin="round"></path> <path d="M61.6665 8H73.6665" stroke="white" stroke-width="2" stroke-linecap="round" stroke-linejoin="round"></path> <path d="M61.6665 16H73.6665" stroke="white" stroke-width="2" stroke-linecap="round" stroke-linejoin="round"></path> <path d="M61.6665 24H73.6665" stroke="white" stroke-width="2" stroke-linecap="round" stroke-linejoin="round"></path> </g> <path d="M2.84119 56H3.63319V48.284H8.12119V56H8.91319V47.6H2.84119V56ZM13.7395 56.096C15.5515 56.096 16.7635 54.836 16.7635 52.928C16.7635 51.008 15.5635 49.748 13.7395 49.748C11.9155 49.748 10.7155 51.008 10.7155 52.928C10.7155 54.836 11.9275 56.096 13.7395 56.096ZM13.7395 55.46C12.1795 55.46 11.5075 54.116 11.5075 52.928C11.5075 51.728 12.1795 50.384 13.7395 50.384C15.2995 50.384 15.9715 51.728 15.9715 52.928C15.9715 54.116 15.2995 55.46 13.7395 55.46ZM18.1089 56.096C19.1529 56.096 19.8369 55.4 19.8369 51.32V50.48H22.6809V56H23.4369V49.844H19.0809V51.32C19.0809 54.992 18.5649 55.412 17.9769 55.412C17.6889 55.412 17.5209 55.352 17.5209 55.352V56.036C17.5209 56.036 17.8089 56.096 18.1089 56.096ZM25.6431 56H26.3991V53.12H29.9991V56H30.7551V49.844H29.9991V52.484H26.3991V49.844H25.6431V56ZM32.9673 56H35.2953C36.9753 56 37.6953 55.256 37.6953 54.02C37.6953 52.784 36.9753 52.04 35.2953 52.04H33.7233V49.844H32.9673V56ZM33.7233 55.364V52.676H35.2953C36.4233 52.676 36.9033 53.18 36.9033 54.02C36.9033 54.86 36.4233 55.364 35.2953 55.364H33.7233ZM39.3033 56H40.0593V49.844H39.3033V56ZM42.272 56H43.112L46.664 50.84H46.7L46.688 56H47.444V49.844H46.604L43.052 55.004H43.016L43.028 49.844H42.272V56ZM44.864 48.632C45.812 48.632 46.664 48.152 46.724 46.988H46.076C45.992 47.732 45.524 48.032 44.864 48.032C44.228 48.032 43.76 47.732 43.676 46.988H43.004C43.064 48.152 43.916 48.632 44.864 48.632ZM55.6844 58.628H56.4284V56.06C56.5844 56.072 56.7764 56.096 56.9924 56.096C58.8044 56.096 60.1004 54.956 60.1004 52.88C60.1004 50.972 58.9244 49.748 57.0884 49.748C56.8964 49.748 56.5844 49.76 56.4284 49.772V46.856H55.6844V49.772C55.5164 49.76 55.2164 49.748 55.0244 49.748C53.1884 49.748 52.0124 50.972 52.0124 52.88C52.0124 54.956 53.3084 56.096 55.1204 56.096C55.3364 56.096 55.5164 56.072 55.6844 56.06V58.628ZM57.0524 50.384C58.4564 50.384 59.3084 51.308 59.3084 52.904C59.3084 54.644 58.3724 55.46 56.8844 55.46C56.7404 55.46 56.5724 55.46 56.4284 55.448V50.408C56.6084 50.396 56.8604 50.384 57.0524 50.384ZM55.2284 55.46C53.7404 55.46 52.8044 54.644 52.8044 52.904C52.8044 51.308 53.6564 50.384 55.0604 50.384C55.2404 50.384 55.4924 50.396 55.6844 50.408V55.448C55.5284 55.46 55.3724 55.46 55.2284 55.46ZM62.2905 58.64C63.1425 58.64 63.4905 58.016 63.7785 57.308L66.8145 49.844H66.0105L63.8985 55.148H63.8505L61.7265 49.844H60.9105L63.4545 56.168L63.0465 57.164C62.7825 57.812 62.5545 57.956 62.1945 57.956C61.8825 57.956 61.6065 57.848 61.6065 57.848V58.532C61.6185 58.532 61.9545 58.64 62.2905 58.64ZM68.2642 56H69.0202V53.12H72.6202V56H73.3762V49.844H72.6202V52.484H69.0202V49.844H68.2642V56ZM75.5884 56H76.3444V53.144H78.0724L80.0884 56H81.0244L78.7444 52.784L80.8204 49.844H79.9084L78.0364 52.508H76.3444V49.844H75.5884V56ZM87.4495 57.656H88.2055V55.364H87.2695V49.844H86.5135V55.364H83.1295V49.844H82.3735V56H87.4495V57.656ZM89.5688 56H90.4088L93.9608 50.84H93.9968L93.9848 56H94.7408V49.844H93.9008L90.3488 55.004H90.3128L90.3248 49.844H89.5688V56ZM99.5677 56.096C101.38 56.096 102.592 54.836 102.592 52.928C102.592 51.008 101.392 49.748 99.5677 49.748C97.7437 49.748 96.5437 51.008 96.5437 52.928C96.5437 54.836 97.7557 56.096 99.5677 56.096ZM99.5677 55.46C98.0077 55.46 97.3357 54.116 97.3357 52.928C97.3357 51.728 98.0077 50.384 99.5677 50.384C101.128 50.384 101.8 51.728 101.8 52.928C101.8 54.116 101.128 55.46 99.5677 55.46ZM104.393 56H105.149V53.12H108.749V56H109.505V49.844H108.749V52.484H105.149V49.844H104.393V56ZM113.109 56.096C113.865 56.096 114.777 55.868 115.425 55.028H115.473V56H116.205V52.064C116.205 50.408 115.317 49.748 113.709 49.748C112.929 49.748 112.161 49.916 111.645 50.096V50.792C112.293 50.504 113.097 50.396 113.685 50.396C114.885 50.396 115.449 50.804 115.449 52.064V52.22L114.597 52.244C112.161 52.316 111.153 53.084 111.153 54.308C111.153 55.256 111.801 56.096 113.109 56.096ZM113.325 55.46C112.413 55.46 111.945 54.992 111.945 54.296C111.945 53.492 112.569 52.94 114.597 52.88L115.449 52.856V53.36C115.449 54.584 114.633 55.46 113.325 55.46ZM117.953 56.096C118.997 56.096 119.681 55.4 119.681 51.32V50.48H122.525V56H123.281V49.844H118.925V51.32C118.925 54.992 118.409 55.412 117.821 55.412C117.533 55.412 117.365 55.352 117.365 55.352V56.036C117.365 56.036 117.653 56.096 117.953 56.096ZM35.9263 72H36.6823V69.144H38.4103L40.4263 72H41.3623L39.0823 68.784L41.1583 65.844H40.2463L38.3743 68.508H36.6823V65.844H35.9263V72ZM44.1034 72.096C44.8594 72.096 45.7714 71.868 46.4194 71.028H46.4674V72H47.1994V68.064C47.1994 66.408 46.3114 65.748 44.7034 65.748C43.9234 65.748 43.1554 65.916 42.6394 66.096V66.792C43.2874 66.504 44.0914 66.396 44.6794 66.396C45.8794 66.396 46.4434 66.804 46.4434 68.064V68.22L45.5914 68.244C43.1554 68.316 42.1474 69.084 42.1474 70.308C42.1474 71.256 42.7954 72.096 44.1034 72.096ZM44.3194 71.46C43.4074 71.46 42.9394 70.992 42.9394 70.296C42.9394 69.492 43.5634 68.94 45.5914 68.88L46.4434 68.856V69.36C46.4434 70.584 45.6274 71.46 44.3194 71.46ZM49.4028 72H50.1588V69.144H51.8868L53.9028 72H54.8388L52.5588 68.784L54.6348 65.844H53.7228L51.8508 68.508H50.1588V65.844H49.4028V72ZM63.5856 67.44C63.5856 66.576 62.9736 65.844 61.6776 65.844H58.9536V72H61.7616C62.0256 72 63.8376 71.94 63.8376 70.308C63.8376 69.516 63.3576 68.94 62.6736 68.736V68.724C63.2736 68.436 63.5856 68.028 63.5856 67.44ZM59.7096 71.364V69.144H61.5816C62.6496 69.144 63.0456 69.684 63.0456 70.272C63.0456 70.836 62.6616 71.364 61.7016 71.364H59.7096ZM59.7096 68.508V66.48H61.6296C62.6136 66.48 62.8296 67.104 62.8176 67.548C62.7816 68.472 61.8456 68.508 61.5096 68.508H59.7096ZM69.6017 72H70.4417L72.0137 67.104L73.5737 72H74.4137L76.3217 65.844H75.5297L73.9697 71.088L72.3137 65.844H71.7017L70.0457 71.088L68.4857 65.844H67.6937L69.6017 72ZM82.9328 69.144V68.904C82.9328 67.836 82.7528 65.748 80.2928 65.748C78.6128 65.748 77.4128 66.888 77.4128 68.82C77.4128 70.932 78.6248 72.096 80.6048 72.096C81.1808 72.096 81.8048 72.024 82.4888 71.76V71.064C81.8168 71.376 81.1688 71.46 80.6288 71.46C79.0688 71.46 78.2648 70.572 78.1688 69.144H82.9328ZM80.2928 66.384C82.0568 66.384 82.1528 68.016 82.1408 68.508H78.1808C78.2888 67.188 79.0928 66.384 80.2928 66.384ZM87.6991 72.096C89.3551 72.096 90.4831 70.896 90.4831 68.928C90.4831 66.996 89.2711 65.748 87.6271 65.748C86.6071 65.748 85.9351 66.228 85.4911 66.828H85.4791V62.856H84.7231V72H85.3591L85.4311 70.908H85.4671C85.8991 71.58 86.6671 72.096 87.6991 72.096ZM87.6271 71.46C86.6911 71.46 85.4671 70.764 85.4671 68.94C85.4671 67.452 86.3431 66.384 87.6031 66.384C88.8391 66.384 89.6911 67.452 89.6911 68.94C89.6911 70.524 88.7671 71.46 87.6271 71.46Z" fill="#EBEDF0"></path> </g> <defs> <clipPath id="clip0_196_7668"> <rect width="125" height="76" fill="white" transform="translate(0.5)"></rect> </clipPath> <clipPath id="clip1_196_7668"> <rect width="32" height="32" fill="white" transform="translate(47)"></rect> </clipPath> </defs> </svg> 