<?xml version="1.0" encoding="UTF-8"?> <svg xmlns="http://www.w3.org/2000/svg" width="119" height="76" viewBox="0 0 119 76" fill="none"> <g clip-path="url(#clip0_196_7693)"> <g clip-path="url(#clip1_196_7693)"> <path d="M60.8332 4V13.3333H68.8332L58.1665 28V18.6667H50.1665L60.8332 4Z" stroke="white" stroke-width="2" stroke-linecap="round" stroke-linejoin="round"></path> </g> <path d="M39.3842 56H40.1762V51.992H44.7842V56H45.5762V47.6H44.7842V51.308H40.1762V47.6H39.3842V56ZM47.7837 56H48.6237L52.1757 50.84H52.2117L52.1997 56H52.9557V49.844H52.1157L48.5637 55.004H48.5277L48.5397 49.844H47.7837V56ZM56.5225 56.096C58.2025 56.096 59.1505 55.364 59.1505 54.26C59.1505 53.288 58.4305 52.868 57.9385 52.76V52.724C58.4425 52.556 58.9225 52.148 58.9225 51.392C58.9225 50.468 58.2385 49.748 56.6305 49.748C56.0065 49.748 55.4305 49.832 54.8425 50.012V50.696C55.3105 50.516 55.9585 50.396 56.6185 50.396C57.7345 50.396 58.1665 50.804 58.1665 51.404C58.1665 52.064 57.6745 52.484 56.6545 52.484H55.6945V53.12H56.6545C57.9385 53.12 58.3585 53.648 58.3585 54.248C58.3585 55.028 57.6625 55.448 56.5585 55.448C55.9705 55.448 55.2625 55.352 54.6985 55.088V55.832C55.4545 56.048 56.0185 56.096 56.5225 56.096ZM60.9321 56H61.6881V53.144H63.4161L65.4321 56H66.3681L64.0881 52.784L66.1641 49.844H65.2521L63.3801 52.508H61.6881V49.844H60.9321V56ZM70.2161 56.096C72.0281 56.096 73.2401 54.836 73.2401 52.928C73.2401 51.008 72.0401 49.748 70.2161 49.748C68.3921 49.748 67.1921 51.008 67.1921 52.928C67.1921 54.836 68.4041 56.096 70.2161 56.096ZM70.2161 55.46C68.6561 55.46 67.9841 54.116 67.9841 52.928C67.9841 51.728 68.6561 50.384 70.2161 50.384C71.7761 50.384 72.4481 51.728 72.4481 52.928C72.4481 54.116 71.7761 55.46 70.2161 55.46ZM80.1535 53.144V52.904C80.1535 51.836 79.9735 49.748 77.5135 49.748C75.8335 49.748 74.6335 50.888 74.6335 52.82C74.6335 54.932 75.8455 56.096 77.8255 56.096C78.4015 56.096 79.0255 56.024 79.7095 55.76V55.064C79.0375 55.376 78.3895 55.46 77.8495 55.46C76.2895 55.46 75.4855 54.572 75.3895 53.144H80.1535ZM77.5135 50.384C79.2775 50.384 79.3735 52.016 79.3615 52.508H75.4015C75.5095 51.188 76.3135 50.384 77.5135 50.384ZM2.78641 71.46C2.29441 71.46 1.76641 71.352 1.31041 71.184V71.856C1.79041 72.036 2.25841 72.096 2.76241 72.096C4.79041 72.096 5.87041 70.86 5.87041 68.844C5.87041 66.912 4.73041 65.748 2.85841 65.748C2.35441 65.748 2.00641 65.82 1.35841 66.036V66.732C1.69441 66.588 2.23441 66.384 2.85841 66.384C4.11841 66.384 4.97041 67.14 5.07841 68.568H2.21041V69.204H5.07841C4.98241 70.656 4.22641 71.46 2.78641 71.46ZM7.67041 72H8.42641V69.12H12.0264V72H12.7824V65.844H12.0264V68.484H8.42641V65.844H7.67041V72ZM20.1066 69.144V68.904C20.1066 67.836 19.9266 65.748 17.4666 65.748C15.7866 65.748 14.5866 66.888 14.5866 68.82C14.5866 70.932 15.7986 72.096 17.7786 72.096C18.3546 72.096 18.9786 72.024 19.6626 71.76V71.064C18.9906 71.376 18.3426 71.46 17.8026 71.46C16.2426 71.46 15.4386 70.572 15.3426 69.144H20.1066ZM17.4666 66.384C19.2306 66.384 19.3266 68.016 19.3146 68.508H15.3546C15.4626 67.188 16.2666 66.384 17.4666 66.384ZM22.653 70.908H22.677C23.073 71.58 23.853 72.096 24.873 72.096C26.529 72.096 27.657 70.896 27.657 68.928C27.657 66.996 26.445 65.748 24.801 65.748C23.793 65.748 23.145 66.228 22.677 66.804H22.629V65.844H21.897V74.64H22.653V70.908ZM24.789 71.46C23.853 71.46 22.641 70.764 22.641 68.94C22.641 67.452 23.517 66.384 24.777 66.384C26.013 66.384 26.865 67.452 26.865 68.94C26.865 70.524 25.929 71.46 24.789 71.46ZM29.4556 72H30.2116V66.48H33.1516V65.844H29.4556V72ZM37.1106 72.096C38.9226 72.096 40.1346 70.836 40.1346 68.928C40.1346 67.008 38.9346 65.748 37.1106 65.748C35.2866 65.748 34.0866 67.008 34.0866 68.928C34.0866 70.836 35.2986 72.096 37.1106 72.096ZM37.1106 71.46C35.5506 71.46 34.8786 70.116 34.8786 68.928C34.8786 67.728 35.5506 66.384 37.1106 66.384C38.6706 66.384 39.3426 67.728 39.3426 68.928C39.3426 70.116 38.6706 71.46 37.1106 71.46ZM41.936 72H42.692V66.48H46.172V72H46.928V65.844H41.936V72ZM51.7473 72.096C53.5593 72.096 54.7713 70.836 54.7713 68.928C54.7713 67.008 53.5713 65.748 51.7473 65.748C49.9233 65.748 48.7233 67.008 48.7233 68.928C48.7233 70.836 49.9353 72.096 51.7473 72.096ZM51.7473 71.46C50.1873 71.46 49.5153 70.116 49.5153 68.928C49.5153 67.728 50.1873 66.384 51.7473 66.384C53.3073 66.384 53.9793 67.728 53.9793 68.928C53.9793 70.116 53.3073 71.46 51.7473 71.46ZM57.801 72H58.545V66.48H60.717V65.844H55.629V66.48H57.801V72ZM62.9186 70.908H62.9426C63.3386 71.58 64.1186 72.096 65.1386 72.096C66.7946 72.096 67.9226 70.896 67.9226 68.928C67.9226 66.996 66.7106 65.748 65.0666 65.748C64.0586 65.748 63.4106 66.228 62.9426 66.804H62.8946V65.844H62.1626V74.64H62.9186V70.908ZM65.0546 71.46C64.1186 71.46 62.9066 70.764 62.9066 68.94C62.9066 67.452 63.7826 66.384 65.0426 66.384C66.2786 66.384 67.1306 67.452 67.1306 68.94C67.1306 70.524 66.1946 71.46 65.0546 71.46ZM74.8332 69.144V68.904C74.8332 67.836 74.6532 65.748 72.1932 65.748C70.5132 65.748 69.3132 66.888 69.3132 68.82C69.3132 70.932 70.5252 72.096 72.5052 72.096C73.0812 72.096 73.7052 72.024 74.3892 71.76V71.064C73.7172 71.376 73.0692 71.46 72.5292 71.46C70.9692 71.46 70.1652 70.572 70.0692 69.144H74.8332ZM72.1932 66.384C73.9572 66.384 74.0532 68.016 74.0412 68.508H70.0812C70.1892 67.188 70.9932 66.384 72.1932 66.384ZM76.2155 67.848C76.2155 70.38 77.0435 72.096 79.3355 72.096C81.0995 72.096 82.2635 70.884 82.2635 68.976C82.2635 66.768 80.9195 65.748 79.4075 65.748C78.3155 65.748 77.4155 66.288 76.9235 67.104H76.8875C77.0075 65.292 77.7275 63.984 79.4915 63.66C79.9955 63.552 80.6795 63.504 81.6875 63.36V62.712C80.6795 62.892 80.0075 62.94 79.4915 63.024C77.1275 63.408 76.2155 65.232 76.2155 67.848ZM79.3115 71.46C78.0755 71.46 77.0315 70.584 77.0315 68.904C77.0315 67.2 78.1355 66.384 79.3235 66.384C80.4515 66.384 81.4715 67.236 81.4715 68.976C81.4715 70.644 80.4515 71.46 79.3115 71.46ZM83.4918 72.096C84.5358 72.096 85.2198 71.4 85.2198 67.32V66.48H88.0638V72H88.8198V65.844H84.4638V67.32C84.4638 70.992 83.9478 71.412 83.3598 71.412C83.0718 71.412 82.9038 71.352 82.9038 71.352V72.036C82.9038 72.036 83.1918 72.096 83.4918 72.096ZM96.1379 69.144V68.904C96.1379 67.836 95.9579 65.748 93.4979 65.748C91.8179 65.748 90.6179 66.888 90.6179 68.82C90.6179 70.932 91.8299 72.096 93.8099 72.096C94.3859 72.096 95.0099 72.024 95.6939 71.76V71.064C95.0219 71.376 94.3739 71.46 93.8339 71.46C92.2739 71.46 91.4699 70.572 91.3739 69.144H96.1379ZM93.4979 66.384C95.2619 66.384 95.3579 68.016 95.3459 68.508H91.3859C91.4939 67.188 92.2979 66.384 93.4979 66.384ZM97.9282 72H98.6842V69.12H102.284V72H103.04V65.844H102.284V68.484H98.6842V65.844H97.9282V72ZM105.252 72H106.092L109.644 66.84H109.68L109.668 72H110.424V65.844H109.584L106.032 71.004H105.996L106.008 65.844H105.252V72ZM117.747 69.144V68.904C117.747 67.836 117.567 65.748 115.107 65.748C113.427 65.748 112.227 66.888 112.227 68.82C112.227 70.932 113.439 72.096 115.419 72.096C115.995 72.096 116.619 72.024 117.303 71.76V71.064C116.631 71.376 115.983 71.46 115.443 71.46C113.883 71.46 113.079 70.572 112.983 69.144H117.747ZM115.107 66.384C116.871 66.384 116.967 68.016 116.955 68.508H112.995C113.103 67.188 113.907 66.384 115.107 66.384Z" fill="#EBEDF0"></path> </g> <defs> <clipPath id="clip0_196_7693"> <rect width="118" height="76" fill="white" transform="translate(0.5)"></rect> </clipPath> <clipPath id="clip1_196_7693"> <rect width="32" height="32" fill="white" transform="translate(43.5)"></rect> </clipPath> </defs> </svg> 