<?xml version="1.0" encoding="UTF-8"?> <svg xmlns="http://www.w3.org/2000/svg" width="118" height="70" viewBox="0 0 118 70" fill="none"> <g clip-path="url(#clip0_134_6048)"> <path d="M59 22C60.5913 22 62.1174 21.3679 63.2426 20.2426C64.3679 19.1174 65 17.5913 65 16V8C65 6.4087 64.3679 4.88258 63.2426 3.75736C62.1174 2.63214 60.5913 2 59 2C57.4087 2 55.8826 2.63214 54.7574 3.75736C53.6321 4.88258 53 6.4087 53 8V16C53 17.5913 53.6321 19.1174 54.7574 20.2426C55.8826 21.3679 57.4087 22 59 22Z" fill="white"></path> <path d="M68.0501 16.0125C67.7885 15.9843 67.5264 16.0603 67.3204 16.2241C67.1145 16.3879 66.9815 16.6262 66.9501 16.8875C66.7305 18.8423 65.7984 20.6477 64.3319 21.9587C62.8654 23.2697 60.9672 23.9944 59.0001 23.9944C57.033 23.9944 55.1349 23.2697 53.6683 21.9587C52.2018 20.6477 51.2697 18.8423 51.0501 16.8875C51.0187 16.6262 50.8857 16.3879 50.6798 16.2241C50.4739 16.0603 50.2117 15.9843 49.9501 16.0125C49.819 16.0249 49.6917 16.0634 49.5757 16.1257C49.4597 16.1881 49.3573 16.273 49.2746 16.3755C49.1919 16.478 49.1306 16.596 49.0942 16.7226C49.0577 16.8491 49.047 16.9817 49.0626 17.1125C49.3184 19.3814 50.3457 21.4936 51.9727 23.0955C53.5997 24.6974 55.7275 25.6919 58.0001 25.9125V29C58.0001 29.2652 58.1055 29.5195 58.293 29.7071C58.4805 29.8946 58.7349 30 59.0001 30C59.2653 30 59.5197 29.8946 59.7072 29.7071C59.8948 29.5195 60.0001 29.2652 60.0001 29V25.9125C62.2727 25.6919 64.4006 24.6974 66.0275 23.0955C67.6545 21.4936 68.6819 19.3814 68.9376 17.1125C68.9532 16.9817 68.9425 16.8491 68.9061 16.7226C68.8697 16.596 68.8083 16.478 68.7256 16.3755C68.6429 16.273 68.5405 16.1881 68.4245 16.1257C68.3085 16.0634 68.1812 16.0249 68.0501 16.0125Z" fill="white"></path> <path d="M6.15625 65.16C9.40425 65.16 11.3723 62.776 11.3723 59.4C11.3723 56.088 9.43625 53.64 6.15625 53.64C2.90825 53.64 0.94025 56.04 0.94025 59.4C0.94025 62.728 2.87625 65.16 6.15625 65.16ZM6.15625 63.752C3.86825 63.752 2.60425 61.816 2.60425 59.4C2.60425 57.016 3.86825 55.048 6.15625 55.048C8.41225 55.048 9.70825 56.968 9.70825 59.4C9.70825 61.768 8.46025 63.752 6.15625 63.752ZM15.2443 65H16.7483V58.056H19.5963V56.84H12.3963V58.056H15.2443V65ZM20.5073 65.128C22.2033 65.128 22.9873 63.24 22.9873 58.28V58.056H26.1393V65H27.6433V56.84H21.6273V57.48C21.6273 62.04 21.2753 63.736 20.2193 63.736C19.9953 63.736 19.7553 63.656 19.7553 63.656V65.016C19.7553 65.032 20.1233 65.128 20.5073 65.128ZM30.2968 65H32.2008L35.9448 58.6H35.9768V65H37.4808V56.84H35.5768L31.8328 63.24H31.8008V56.84H30.2968V65ZM45.0205 65H46.5245V56.84H45.0205V60.712C44.4445 60.808 43.8045 60.856 43.1805 60.856C41.6605 60.856 41.2285 60.488 41.2285 59.24V56.84H39.7245V59.688C39.7245 61.32 40.9405 62.072 42.8285 62.072C43.6765 62.072 44.5245 61.944 45.0205 61.848V65ZM49.1874 65H50.6914V61.368H54.7874V65H56.2914V56.84H54.7874V60.152H50.6914V56.84H49.1874V65ZM58.953 65H62.105C64.425 65 65.465 63.96 65.465 62.344C65.465 60.712 64.425 59.656 62.105 59.656H60.457V56.84H58.953V65ZM60.457 63.784V60.872H62.105C63.369 60.872 63.929 61.448 63.929 62.344C63.929 63.224 63.369 63.784 62.105 63.784H60.457ZM67.193 65H68.697V56.84H67.193V65ZM71.3593 65H73.2633L77.0073 58.6H77.0393V65H78.5433V56.84H76.6393L72.8953 63.24H72.8633V56.84H71.3593V65ZM75.0073 55.144C76.3513 55.144 77.3753 54.456 77.4393 52.968H76.3513C76.2393 53.672 75.7433 54.056 75.0073 54.056C74.2713 54.056 73.7273 53.672 73.6153 52.968H72.4793C72.5433 54.456 73.6633 55.144 75.0073 55.144ZM86.8905 65.128C89.5465 65.128 90.6345 64.056 90.6345 62.744C90.6345 61.768 90.0265 60.968 88.8745 60.712V60.696C89.8345 60.376 90.3145 59.736 90.3145 58.872C90.3145 57.608 89.2745 56.712 86.9545 56.712C85.5625 56.712 84.5705 57.032 84.5705 57.032V58.344C84.5705 58.344 85.6105 57.928 86.8585 57.928C88.1065 57.928 88.7145 58.36 88.7145 59.048C88.7145 59.704 88.1705 60.168 86.8745 60.168H85.8025V61.352H87.1145C88.4105 61.352 89.0345 61.832 89.0345 62.584C89.0345 63.416 88.2665 63.912 86.7305 63.912C85.2265 63.912 84.2665 63.432 84.2665 63.432V64.728C84.2665 64.744 85.2105 65.128 86.8905 65.128ZM99.074 58.984C99.074 57.768 98.194 56.84 95.874 56.84H92.578V65H96.194C98.354 65 99.394 63.96 99.394 62.616C99.394 61.672 98.866 61.064 97.842 60.728V60.696C98.658 60.36 99.074 59.832 99.074 58.984ZM94.082 63.784V61.368H96.194C97.282 61.368 97.762 61.848 97.762 62.584C97.762 63.32 97.282 63.784 96.194 63.784H94.082ZM94.082 60.152V58.056H95.874C96.962 58.056 97.442 58.52 97.442 59.096C97.442 59.672 96.962 60.152 95.874 60.152H94.082ZM101.936 68.584C103.696 68.584 104.192 67.704 105.152 65.32L108.544 56.84H107.024L104.496 63.528H104.384L101.904 56.84H100.256L103.6 65.4L103.456 65.8C103.088 66.792 102.768 67.32 101.84 67.32C101.536 67.32 101.248 67.272 101.248 67.272V68.504C101.248 68.504 101.52 68.584 101.936 68.584ZM110.125 65H111.629V61.352H113.133L115.789 65H117.661L114.493 60.712L117.277 56.84H115.517L113.149 60.136H111.629V56.84H110.125V65Z" fill="white" fill-opacity="0.8"></path> </g> <defs> <clipPath id="clip0_134_6048"> <rect width="118" height="70" fill="white"></rect> </clipPath> </defs> </svg> 