<?xml version="1.0" encoding="UTF-8"?> <svg xmlns="http://www.w3.org/2000/svg" width="127" height="76" viewBox="0 0 127 76" fill="none"> <g clip-path="url(#clip0_196_7665)"> <g clip-path="url(#clip1_196_7665)"> <path d="M62.1667 25.3333H54.1667C53.4594 25.3333 52.7811 25.0524 52.281 24.5523C51.781 24.0522 51.5 23.3739 51.5 22.6667V9.33334C51.5 8.62609 51.781 7.94782 52.281 7.44772C52.7811 6.94762 53.4594 6.66667 54.1667 6.66667H72.8333C73.5406 6.66667 74.2189 6.94762 74.719 7.44772C75.219 7.94782 75.5 8.62609 75.5 9.33334V14.6667" stroke="white" stroke-width="2" stroke-linecap="round" stroke-linejoin="round"></path> <path d="M74.1665 18.6667H67.4998C66.7635 18.6667 66.1665 19.2636 66.1665 20V24C66.1665 24.7364 66.7635 25.3333 67.4998 25.3333H74.1665C74.9029 25.3333 75.4998 24.7364 75.4998 24V20C75.4998 19.2636 74.9029 18.6667 74.1665 18.6667Z" stroke="white" stroke-width="2" stroke-linecap="round" stroke-linejoin="round"></path> <path d="M56.8335 12L62.1668 17.3333" stroke="white" stroke-width="2" stroke-linecap="round" stroke-linejoin="round"></path> <path d="M58.1665 17.3333H62.1665V13.3333" stroke="white" stroke-width="2" stroke-linecap="round" stroke-linejoin="round"></path> </g> <path d="M1.76502 56H4.47702C4.87302 56 7.21302 55.928 7.21302 53.732C7.21302 52.592 6.52902 51.836 5.52102 51.644V51.608C6.61302 51.248 6.97302 50.504 6.97302 49.712C6.97302 48.572 6.27702 47.6 4.54902 47.6H1.76502V56ZM2.55702 55.316V52.004H4.45302C5.55702 52.004 6.36102 52.58 6.36102 53.684C6.36102 55.16 5.06502 55.316 4.36902 55.316H2.55702ZM2.55702 51.32V48.284H4.46502C5.36502 48.284 6.12102 48.704 6.12102 49.724C6.12102 50.636 5.53302 51.32 4.44102 51.32H2.55702ZM11.5852 56.096C13.3972 56.096 14.6092 54.836 14.6092 52.928C14.6092 51.008 13.4092 49.748 11.5852 49.748C9.76123 49.748 8.56123 51.008 8.56123 52.928C8.56123 54.836 9.77323 56.096 11.5852 56.096ZM11.5852 55.46C10.0252 55.46 9.35323 54.116 9.35323 52.928C9.35323 51.728 10.0252 50.384 11.5852 50.384C13.1452 50.384 13.8172 51.728 13.8172 52.928C13.8172 54.116 13.1452 55.46 11.5852 55.46ZM17.7666 56.096C19.4466 56.096 20.3946 55.364 20.3946 54.26C20.3946 53.288 19.6746 52.868 19.1826 52.76V52.724C19.6866 52.556 20.1666 52.148 20.1666 51.392C20.1666 50.468 19.4826 49.748 17.8746 49.748C17.2506 49.748 16.6746 49.832 16.0866 50.012V50.696C16.5546 50.516 17.2026 50.396 17.8626 50.396C18.9786 50.396 19.4106 50.804 19.4106 51.404C19.4106 52.064 18.9186 52.484 17.8986 52.484H16.9386V53.12H17.8986C19.1826 53.12 19.6026 53.648 19.6026 54.248C19.6026 55.028 18.9066 55.448 17.8026 55.448C17.2146 55.448 16.5066 55.352 15.9426 55.088V55.832C16.6986 56.048 17.2626 56.096 17.7666 56.096ZM22.1763 56H22.9443V50.552H22.9683L25.0683 54.524H25.8363L27.9363 50.552H27.9603V56H28.7283V49.844H27.5283L25.4643 53.756L23.4003 49.844H22.1763V56ZM33.5579 56.096C35.3699 56.096 36.5819 54.836 36.5819 52.928C36.5819 51.008 35.3819 49.748 33.5579 49.748C31.7339 49.748 30.5339 51.008 30.5339 52.928C30.5339 54.836 31.7459 56.096 33.5579 56.096ZM33.5579 55.46C31.9979 55.46 31.3259 54.116 31.3259 52.928C31.3259 51.728 31.9979 50.384 33.5579 50.384C35.1179 50.384 35.7899 51.728 35.7899 52.928C35.7899 54.116 35.1179 55.46 33.5579 55.46ZM45.8261 56H46.7621L44.6021 52.784L46.5581 49.844H45.6461L43.8821 52.508H42.4661V49.844H41.6981V52.508H40.2821L38.5181 49.844H37.6061L39.5621 52.784L37.4021 56H38.3381L40.2341 53.144H41.6981V56H42.4661V53.144H43.9181L45.8261 56ZM48.1099 56H48.8659V53.12H52.4659V56H53.2219V49.844H52.4659V52.484H48.8659V49.844H48.1099V56ZM58.0501 56.096C59.8621 56.096 61.0741 54.836 61.0741 52.928C61.0741 51.008 59.8741 49.748 58.0501 49.748C56.2261 49.748 55.0261 51.008 55.0261 52.928C55.0261 54.836 56.2381 56.096 58.0501 56.096ZM58.0501 55.46C56.4901 55.46 55.8181 54.116 55.8181 52.928C55.8181 51.728 56.4901 50.384 58.0501 50.384C59.6101 50.384 60.2821 51.728 60.2821 52.928C60.2821 54.116 59.6101 55.46 58.0501 55.46ZM65.5395 56.096C65.9715 56.096 66.3555 56.048 66.8475 55.856V55.184C66.4155 55.352 65.9835 55.46 65.5275 55.46C64.0995 55.46 63.2595 54.5 63.2595 52.868C63.2595 51.344 64.0515 50.384 65.4555 50.384C66.0915 50.384 66.5835 50.552 66.7995 50.6V49.928C66.1635 49.748 65.7075 49.748 65.5155 49.748C63.5715 49.748 62.4675 50.984 62.4675 52.844C62.4675 54.812 63.5235 56.096 65.5395 56.096ZM70.1037 56H70.8477V50.48H73.0197V49.844H67.9317V50.48H70.1037V56ZM74.4653 56H76.9853C78.6653 56 79.3853 55.256 79.3853 54.02C79.3853 52.784 78.6653 52.04 76.9853 52.04H75.2213V49.844H74.4653V56ZM76.9853 52.676C78.1133 52.676 78.5933 53.18 78.5933 54.02C78.5933 54.86 78.1133 55.364 76.9853 55.364H75.2213V52.676H76.9853ZM84.3502 54.908H84.3742C84.7702 55.58 85.5502 56.096 86.5702 56.096C88.2262 56.096 89.3542 54.896 89.3542 52.928C89.3542 50.996 88.1422 49.748 86.4982 49.748C85.4902 49.748 84.8422 50.228 84.3742 50.804H84.3262V49.844H83.5942V58.64H84.3502V54.908ZM86.4862 55.46C85.5502 55.46 84.3382 54.764 84.3382 52.94C84.3382 51.452 85.2142 50.384 86.4742 50.384C87.7102 50.384 88.5622 51.452 88.5622 52.94C88.5622 54.524 87.6262 55.46 86.4862 55.46ZM92.4862 56.096C93.2422 56.096 94.1542 55.868 94.8022 55.028H94.8502V56H95.5822V52.064C95.5822 50.408 94.6942 49.748 93.0862 49.748C92.3062 49.748 91.5382 49.916 91.0222 50.096V50.792C91.6702 50.504 92.4742 50.396 93.0622 50.396C94.2622 50.396 94.8262 50.804 94.8262 52.064V52.22L93.9742 52.244C91.5382 52.316 90.5302 53.084 90.5302 54.308C90.5302 55.256 91.1782 56.096 92.4862 56.096ZM92.7022 55.46C91.7902 55.46 91.3222 54.992 91.3222 54.296C91.3222 53.492 91.9462 52.94 93.9742 52.88L94.8262 52.856V53.36C94.8262 54.584 94.0102 55.46 92.7022 55.46ZM97.3776 51.848C97.3776 54.38 98.2056 56.096 100.498 56.096C102.262 56.096 103.426 54.884 103.426 52.976C103.426 50.768 102.082 49.748 100.57 49.748C99.4776 49.748 98.5776 50.288 98.0856 51.104H98.0496C98.1696 49.292 98.8896 47.984 100.654 47.66C101.158 47.552 101.842 47.504 102.85 47.36V46.712C101.842 46.892 101.17 46.94 100.654 47.024C98.2896 47.408 97.3776 49.232 97.3776 51.848ZM100.474 55.46C99.2376 55.46 98.1936 54.584 98.1936 52.904C98.1936 51.2 99.2976 50.384 100.486 50.384C101.614 50.384 102.634 51.236 102.634 52.976C102.634 54.644 101.614 55.46 100.474 55.46ZM107.843 56.096C109.655 56.096 110.867 54.836 110.867 52.928C110.867 51.008 109.667 49.748 107.843 49.748C106.019 49.748 104.819 51.008 104.819 52.928C104.819 54.836 106.031 56.096 107.843 56.096ZM107.843 55.46C106.283 55.46 105.611 54.116 105.611 52.928C105.611 51.728 106.283 50.384 107.843 50.384C109.403 50.384 110.075 51.728 110.075 52.928C110.075 54.116 109.403 55.46 107.843 55.46ZM113.897 56H114.641V50.48H116.813V49.844H111.725V50.48H113.897V56ZM118.258 56H120.586C122.266 56 122.986 55.256 122.986 54.02C122.986 52.784 122.266 52.04 120.586 52.04H119.014V49.844H118.258V56ZM119.014 55.364V52.676H120.586C121.714 52.676 122.194 53.18 122.194 54.02C122.194 54.86 121.714 55.364 120.586 55.364H119.014ZM124.594 56H125.35V49.844H124.594V56ZM12.3122 67.44C12.3122 66.576 11.7002 65.844 10.4042 65.844H7.68017V72H10.4882C10.7522 72 12.5642 71.94 12.5642 70.308C12.5642 69.516 12.0842 68.94 11.4002 68.736V68.724C12.0002 68.436 12.3122 68.028 12.3122 67.44ZM8.43617 71.364V69.144H10.3082C11.3762 69.144 11.7722 69.684 11.7722 70.272C11.7722 70.836 11.3882 71.364 10.4282 71.364H8.43617ZM8.43617 68.508V66.48H10.3562C11.3402 66.48 11.5562 67.104 11.5442 67.548C11.5082 68.472 10.5722 68.508 10.2362 68.508H8.43617ZM20.2723 74.628H21.0163V72.06C21.1723 72.072 21.3643 72.096 21.5803 72.096C23.3923 72.096 24.6883 70.956 24.6883 68.88C24.6883 66.972 23.5123 65.748 21.6763 65.748C21.4843 65.748 21.1723 65.76 21.0163 65.772V62.856H20.2723V65.772C20.1043 65.76 19.8043 65.748 19.6123 65.748C17.7763 65.748 16.6003 66.972 16.6003 68.88C16.6003 70.956 17.8963 72.096 19.7083 72.096C19.9243 72.096 20.1043 72.072 20.2723 72.06V74.628ZM21.6403 66.384C23.0443 66.384 23.8963 67.308 23.8963 68.904C23.8963 70.644 22.9603 71.46 21.4723 71.46C21.3283 71.46 21.1603 71.46 21.0163 71.448V66.408C21.1963 66.396 21.4483 66.384 21.6403 66.384ZM19.8163 71.46C18.3283 71.46 17.3923 70.644 17.3923 68.904C17.3923 67.308 18.2443 66.384 19.6483 66.384C19.8283 66.384 20.0803 66.396 20.2723 66.408V71.448C20.1163 71.46 19.9603 71.46 19.8163 71.46ZM29.1048 72.096C30.9168 72.096 32.1288 70.836 32.1288 68.928C32.1288 67.008 30.9288 65.748 29.1048 65.748C27.2808 65.748 26.0808 67.008 26.0808 68.928C26.0808 70.836 27.2928 72.096 29.1048 72.096ZM29.1048 71.46C27.5448 71.46 26.8728 70.116 26.8728 68.928C26.8728 67.728 27.5448 66.384 29.1048 66.384C30.6648 66.384 31.3368 67.728 31.3368 68.928C31.3368 70.116 30.6648 71.46 29.1048 71.46ZM33.9302 72H34.6862V69.12H38.2862V72H39.0422V65.844H38.2862V68.484H34.6862V65.844H33.9302V72ZM43.8704 72.096C45.6824 72.096 46.8944 70.836 46.8944 68.928C46.8944 67.008 45.6944 65.748 43.8704 65.748C42.0464 65.748 40.8464 67.008 40.8464 68.928C40.8464 70.836 42.0584 72.096 43.8704 72.096ZM43.8704 71.46C42.3104 71.46 41.6384 70.116 41.6384 68.928C41.6384 67.728 42.3104 66.384 43.8704 66.384C45.4304 66.384 46.1024 67.728 46.1024 68.928C46.1024 70.116 45.4304 71.46 43.8704 71.46ZM53.3278 67.44C53.3278 66.576 52.7158 65.844 51.4198 65.844H48.6958V72H51.5038C51.7678 72 53.5798 71.94 53.5798 70.308C53.5798 69.516 53.0998 68.94 52.4158 68.736V68.724C53.0158 68.436 53.3278 68.028 53.3278 67.44ZM49.4518 71.364V69.144H51.3238C52.3918 69.144 52.7878 69.684 52.7878 70.272C52.7878 70.836 52.4038 71.364 51.4438 71.364H49.4518ZM49.4518 68.508V66.48H51.3718C52.3558 66.48 52.5718 67.104 52.5598 67.548C52.5238 68.472 51.5878 68.508 51.2518 68.508H49.4518ZM57.8743 72.096C59.6863 72.096 60.8983 70.836 60.8983 68.928C60.8983 67.008 59.6983 65.748 57.8743 65.748C56.0503 65.748 54.8503 67.008 54.8503 68.928C54.8503 70.836 56.0623 72.096 57.8743 72.096ZM57.8743 71.46C56.3143 71.46 55.6423 70.116 55.6423 68.928C55.6423 67.728 56.3143 66.384 57.8743 66.384C59.4343 66.384 60.1063 67.728 60.1063 68.928C60.1063 70.116 59.4343 71.46 57.8743 71.46ZM62.6997 72H63.4677V66.552H63.4917L65.5917 70.524H66.3597L68.4597 66.552H68.4837V72H69.2517V65.844H68.0517L65.9877 69.756L63.9237 65.844H62.6997V72ZM74.987 70.908H75.011C75.407 71.58 76.187 72.096 77.207 72.096C78.863 72.096 79.991 70.896 79.991 68.928C79.991 66.996 78.779 65.748 77.135 65.748C76.127 65.748 75.479 66.228 75.011 66.804H74.963V65.844H74.231V74.64H74.987V70.908ZM77.123 71.46C76.187 71.46 74.975 70.764 74.975 68.94C74.975 67.452 75.851 66.384 77.111 66.384C78.347 66.384 79.199 67.452 79.199 68.94C79.199 70.524 78.263 71.46 77.123 71.46ZM86.9015 69.144V68.904C86.9015 67.836 86.7215 65.748 84.2615 65.748C82.5815 65.748 81.3815 66.888 81.3815 68.82C81.3815 70.932 82.5935 72.096 84.5735 72.096C85.1495 72.096 85.7735 72.024 86.4575 71.76V71.064C85.7855 71.376 85.1375 71.46 84.5975 71.46C83.0375 71.46 82.2335 70.572 82.1375 69.144H86.9015ZM84.2615 66.384C86.0255 66.384 86.1215 68.016 86.1095 68.508H82.1495C82.2575 67.188 83.0615 66.384 84.2615 66.384ZM96.1933 72H97.1293L94.9693 68.784L96.9253 65.844H96.0133L94.2493 68.508H92.8333V65.844H92.0653V68.508H90.6493L88.8853 65.844H87.9733L89.9293 68.784L87.7693 72H88.7053L90.6013 69.144H92.0653V72H92.8333V69.144H94.2853L96.1933 72ZM98.477 72H99.317L102.869 66.84H102.905L102.893 72H103.649V65.844H102.809L99.257 71.004H99.221L99.233 65.844H98.477V72ZM105.86 72H106.628V66.552H106.652L108.752 70.524H109.52L111.62 66.552H111.644V72H112.412V65.844H111.212L109.148 69.756L107.084 65.844H105.86V72ZM119.737 69.144V68.904C119.737 67.836 119.557 65.748 117.097 65.748C115.417 65.748 114.217 66.888 114.217 68.82C114.217 70.932 115.429 72.096 117.409 72.096C117.985 72.096 118.609 72.024 119.293 71.76V71.064C118.621 71.376 117.973 71.46 117.433 71.46C115.873 71.46 115.069 70.572 114.973 69.144H119.737ZM117.097 66.384C118.861 66.384 118.957 68.016 118.945 68.508H114.985C115.093 67.188 115.897 66.384 117.097 66.384Z" fill="#EBEDF0"></path> </g> <defs> <clipPath id="clip0_196_7665"> <rect width="126" height="76" fill="white" transform="translate(0.5)"></rect> </clipPath> <clipPath id="clip1_196_7665"> <rect width="32" height="32" fill="white" transform="translate(47.5)"></rect> </clipPath> </defs> </svg> 