<?xml version="1.0" encoding="UTF-8"?> <svg xmlns="http://www.w3.org/2000/svg" width="32" height="32" viewBox="0 0 32 32" fill="none"> <path d="M27 5H17V3C17 2.73478 16.8946 2.48043 16.7071 2.29289C16.5196 2.10536 16.2652 2 16 2C15.7348 2 15.4804 2.10536 15.2929 2.29289C15.1054 2.48043 15 2.73478 15 3V5H5C4.46957 5 3.96086 5.21071 3.58579 5.58579C3.21071 5.96086 3 6.46957 3 7V22C3 22.5304 3.21071 23.0391 3.58579 23.4142C3.96086 23.7893 4.46957 24 5 24H9.925L7.225 27.375C7.10754 27.5217 7.0338 27.6985 7.01223 27.8852C6.99065 28.0719 7.02211 28.2609 7.10301 28.4305C7.1839 28.6001 7.31096 28.7435 7.46961 28.8442C7.62826 28.945 7.81208 28.9989 8 29C8.14927 29.001 8.29677 28.9677 8.43113 28.9027C8.5655 28.8377 8.68314 28.7427 8.775 28.625L12.475 24H19.525L23.225 28.625C23.3169 28.7427 23.4345 28.8377 23.5689 28.9027C23.7032 28.9677 23.8507 29.001 24 29C24.1879 28.9989 24.3717 28.945 24.5304 28.8442C24.689 28.7435 24.8161 28.6001 24.897 28.4305C24.9779 28.2609 25.0094 28.0719 24.9878 27.8852C24.9662 27.6985 24.8925 27.5217 24.775 27.375L22.075 24H27C27.5304 24 28.0391 23.7893 28.4142 23.4142C28.7893 23.0391 29 22.5304 29 22V7C29 6.46957 28.7893 5.96086 28.4142 5.58579C28.0391 5.21071 27.5304 5 27 5Z" fill="white"></path> </svg> 