<?xml version="1.0" encoding="UTF-8"?> <svg xmlns="http://www.w3.org/2000/svg" width="33" height="32" viewBox="0 0 33 32" fill="none"> <path d="M28.0808 8.8C28.0808 9.1866 27.7674 9.5 27.3808 9.5H5.76982C5.38322 9.5 5.06982 9.1866 5.06982 8.8V7.7C5.06982 7.3134 5.38323 7 5.76982 7H27.3808C27.7674 7 28.0808 7.3134 28.0808 7.7V8.8Z" fill="white"></path> <path d="M15.6728 16.8C15.6728 17.1866 15.3594 17.5 14.9728 17.5H5.76982C5.38322 17.5 5.06982 17.1866 5.06982 16.8V15.7C5.06982 15.3134 5.38323 15 5.76982 15H14.9728C15.3594 15 15.6728 15.3134 15.6728 15.7V16.8Z" fill="white"></path> <path d="M14.9728 25.5C15.3594 25.5 15.6728 25.1866 15.6728 24.8V23.7C15.6728 23.3134 15.3594 23 14.9728 23L5.76982 23C5.38323 23 5.06982 23.3134 5.06982 23.7V24.8C5.06982 25.1866 5.38323 25.5 5.76982 25.5H14.9728Z" fill="white"></path> <path d="M28.2957 21.0825C28.6825 20.8592 28.9207 20.4465 28.9207 20C28.9207 19.5534 28.6825 19.1407 28.2957 18.9174L20.3187 14.3119C19.932 14.0886 19.4555 14.0886 19.0687 14.3119C18.682 14.5352 18.4437 14.9478 18.4437 15.3944V24.6055C18.4437 25.0521 18.682 25.4647 19.0687 25.688C19.4555 25.9113 19.932 25.9113 20.3187 25.688L28.2957 21.0825Z" fill="white"></path> </svg> 