<?xml version="1.0" encoding="UTF-8"?> <svg xmlns="http://www.w3.org/2000/svg" width="140" height="70" viewBox="0 0 140 70" fill="none"> <g clip-path="url(#clip0_134_6060)"> <path d="M77.5 19C77.5 19.9283 77.1313 20.8185 76.4749 21.4749C75.8185 22.1313 74.9283 22.5 74 22.5C73.0717 22.5 72.1815 22.1313 71.5251 21.4749C70.8687 20.8185 70.5 19.9283 70.5 19C70.5 17.0375 71.6625 16.0375 72.6 15.2375C73.5375 14.4375 74 13.9875 74 13C74 11.9391 73.5786 10.9217 72.8284 10.1716C72.0783 9.42143 71.0609 9 70 9C68.9391 9 67.9217 9.42143 67.1716 10.1716C66.4214 10.9217 66 11.9391 66 13C66 13.2652 65.8946 13.5196 65.7071 13.7071C65.5196 13.8946 65.2652 14 65 14C64.7348 14 64.4804 13.8946 64.2929 13.7071C64.1054 13.5196 64 13.2652 64 13C64 11.4087 64.6321 9.88258 65.7574 8.75736C66.8826 7.63214 68.4087 7 70 7C71.5913 7 73.1174 7.63214 74.2426 8.75736C75.3679 9.88258 76 11.4087 76 13C76 14.9625 74.8375 15.9625 73.9 16.7625C72.9625 17.5625 72.5 18.0125 72.5 19C72.5 19.3978 72.658 19.7794 72.9393 20.0607C73.2206 20.342 73.6022 20.5 74 20.5C74.3978 20.5 74.7794 20.342 75.0607 20.0607C75.342 19.7794 75.5 19.3978 75.5 19C75.5 18.7348 75.6054 18.4804 75.7929 18.2929C75.9804 18.1054 76.2348 18 76.5 18C76.7652 18 77.0196 18.1054 77.2071 18.2929C77.3946 18.4804 77.5 18.7348 77.5 19ZM70 2C67.0836 2.00331 64.2877 3.1633 62.2255 5.22548C60.1633 7.28766 59.0033 10.0836 59 13C59 17.1875 60.5625 18.6875 61.8125 19.9C62.7875 20.8375 63.5 21.525 63.5 23.5C63.5001 24.8383 63.9134 26.1439 64.6833 27.2386C65.4532 28.3333 66.5422 29.1636 67.8016 29.6162C69.061 30.0689 70.4295 30.1217 71.7201 29.7676C73.0107 29.4134 74.1605 28.6695 75.0125 27.6375C75.1793 27.431 75.2584 27.1673 75.2326 26.9031C75.2069 26.6389 75.0785 26.3954 74.875 26.225C74.7744 26.1412 74.6582 26.0782 74.5331 26.0397C74.408 26.0012 74.2765 25.988 74.1462 26.0008C74.016 26.0136 73.8895 26.0522 73.7743 26.1142C73.6591 26.1763 73.5573 26.2607 73.475 26.3625C72.8857 27.0787 72.0895 27.5954 71.1953 27.8417C70.3012 28.0881 69.3527 28.0522 68.4798 27.7388C67.6068 27.4255 66.852 26.8501 66.3186 26.0913C65.7852 25.3325 65.4993 24.4275 65.5 23.5C65.5 20.675 64.275 19.5 63.2 18.45C62.125 17.4 61 16.3375 61 13C61 10.6131 61.9482 8.32387 63.636 6.63604C65.3239 4.94821 67.6131 4 70 4C72.3869 4 74.6761 4.94821 76.364 6.63604C78.0518 8.32387 79 10.6131 79 13C79 13.2652 79.1054 13.5196 79.2929 13.7071C79.4804 13.8946 79.7348 14 80 14C80.2652 14 80.5196 13.8946 80.7071 13.7071C80.8946 13.5196 81 13.2652 81 13C80.9967 10.0836 79.8367 7.28766 77.7745 5.22548C75.7123 3.1633 72.9164 2.00331 70 2Z" fill="white"></path> <path d="M1.53488 65H13.9829V53.8H12.4149V63.592H8.54288V53.8H6.97488V63.592H3.10288V53.8H1.53488V65ZM17.4048 68.584C19.1648 68.584 19.6608 67.704 20.6208 65.32L24.0128 56.84H22.4928L19.9648 63.528H19.8528L17.3728 56.84H15.7248L19.0688 65.4L18.9248 65.8C18.5568 66.792 18.2368 67.32 17.3088 67.32C17.0048 67.32 16.7168 67.272 16.7168 67.272V68.504C16.7168 68.504 16.9888 68.584 17.4048 68.584ZM25.5936 65H27.0976V58.28H27.1296L29.3536 62.92H30.8576L33.0816 58.28H33.1136V65H34.6176V56.84H32.3616L30.1376 61.496L27.9136 56.84H25.5936V65ZM40.9131 65.128C43.3771 65.128 45.0891 63.416 45.0891 60.92C45.0891 58.424 43.3771 56.712 40.9131 56.712C38.4491 56.712 36.7371 58.424 36.7371 60.92C36.7371 63.416 38.4491 65.128 40.9131 65.128ZM40.9131 63.912C39.5051 63.912 38.3371 62.744 38.3371 60.92C38.3371 59.096 39.5051 57.928 40.9131 57.928C42.3051 57.928 43.4891 59.096 43.4891 60.92C43.4891 62.744 42.3211 63.912 40.9131 63.912ZM47.203 65H48.707V58.056H52.643V65H54.147V56.84H47.203V65ZM60.4288 65.128C62.8928 65.128 64.6048 63.416 64.6048 60.92C64.6048 58.424 62.8928 56.712 60.4288 56.712C57.9648 56.712 56.2528 58.424 56.2528 60.92C56.2528 63.416 57.9648 65.128 60.4288 65.128ZM60.4288 63.912C59.0208 63.912 57.8528 62.744 57.8528 60.92C57.8528 59.096 59.0208 57.928 60.4288 57.928C61.8208 57.928 63.0048 59.096 63.0048 60.92C63.0048 62.744 61.8368 63.912 60.4288 63.912ZM65.5365 63.784V67.304H66.9765V65H73.1045V67.304H74.5445V63.784H73.3605V56.84H67.5685L67.5365 58.216C67.4725 61.176 67.3285 62.488 66.5445 63.784H65.5365ZM68.8645 58.696L68.8805 58.056H71.8565V63.784H67.8725C68.7045 62.472 68.8005 61.032 68.8645 58.696ZM78.2521 65.128C79.2761 65.128 80.4281 64.76 81.1161 63.752H81.1481V65H82.6841V59.928C82.6841 57.672 81.3721 56.712 79.1481 56.712C78.1561 56.712 77.0361 56.904 76.2201 57.256V58.664C77.1961 58.136 78.0921 57.96 78.9561 57.96C80.3001 57.96 81.1801 58.472 81.1801 59.64V59.912H79.6761C76.8281 59.912 75.4681 60.904 75.4681 62.68C75.4681 64.2 76.5561 65.128 78.2521 65.128ZM78.6201 63.848C77.6601 63.848 77.0681 63.4 77.0681 62.584C77.0681 61.704 77.7561 61.064 79.7401 61.064H81.1801V61.576C81.1801 62.824 80.1081 63.848 78.6201 63.848ZM91.574 58.984C91.574 57.768 90.694 56.84 88.374 56.84H85.078V65H88.694C90.854 65 91.894 63.96 91.894 62.616C91.894 61.672 91.366 61.064 90.342 60.728V60.696C91.158 60.36 91.574 59.832 91.574 58.984ZM86.582 63.784V61.368H88.694C89.782 61.368 90.262 61.848 90.262 62.584C90.262 63.32 89.782 63.784 88.694 63.784H86.582ZM86.582 60.152V58.056H88.374C89.462 58.056 89.942 58.52 89.942 59.096C89.942 59.672 89.462 60.152 88.374 60.152H86.582ZM93.476 65.128C95.172 65.128 95.956 63.24 95.956 58.28V58.056H99.108V65H100.612V56.84H94.596V57.48C94.596 62.04 94.244 63.736 93.188 63.736C92.964 63.736 92.724 63.656 92.724 63.656V65.016C92.724 65.032 93.092 65.128 93.476 65.128ZM110.306 61.256V60.84C110.306 58.072 108.898 56.712 106.578 56.712C104.418 56.712 102.722 58.28 102.722 60.776C102.722 63.496 104.274 65.128 107.026 65.128C108.338 65.128 109.234 64.872 109.746 64.712V63.24C109.138 63.592 108.098 63.88 107.122 63.88C105.474 63.88 104.45 62.936 104.274 61.256H110.306ZM106.562 57.928C107.794 57.928 108.706 58.728 108.706 60.136H104.274C104.466 58.792 105.314 57.928 106.562 57.928ZM112.469 65H113.973V61.368H118.069V65H119.573V56.84H118.069V60.152H113.973V56.84H112.469V65ZM122.234 65H124.138L127.882 58.6H127.914V65H129.418V56.84H127.514L123.77 63.24H123.738V56.84H122.234V65ZM139.118 61.256V60.84C139.118 58.072 137.71 56.712 135.39 56.712C133.23 56.712 131.534 58.28 131.534 60.776C131.534 63.496 133.086 65.128 135.838 65.128C137.15 65.128 138.046 64.872 138.558 64.712V63.24C137.95 63.592 136.91 63.88 135.934 63.88C134.286 63.88 133.262 62.936 133.086 61.256H139.118ZM135.374 57.928C136.606 57.928 137.518 58.728 137.518 60.136H133.086C133.278 58.792 134.126 57.928 135.374 57.928Z" fill="white" fill-opacity="0.8"></path> </g> <defs> <clipPath id="clip0_134_6060"> <rect width="140" height="70" fill="white"></rect> </clipPath> </defs> </svg> 