<?xml version="1.0" encoding="UTF-8"?> <svg xmlns="http://www.w3.org/2000/svg" width="99" height="76" viewBox="0 0 99 76" fill="none"> <path d="M56.4734 17.95C56.4734 19.3381 57.5986 20.4633 58.9867 20.4633C60.3748 20.4633 61.5 19.3381 61.5 17.95V6.51331C61.5 5.12525 60.3748 4 58.9867 4C57.5986 4 56.4734 5.12525 56.4734 6.51331V17.95Z" fill="#EBEDF0"></path> <path d="M40.0502 22.8996C38.6418 22.8996 37.5 24.0414 37.5 25.4498C37.5 26.8582 38.6418 28 40.0502 28H51.4131C52.8216 28 53.9633 26.8582 53.9633 25.4498C53.9633 24.0414 52.8216 22.8996 51.4131 22.8996H40.0502Z" fill="#EBEDF0"></path> <path d="M58.9498 28C57.5414 28 56.3996 26.8582 56.3996 25.4498C56.3996 24.0414 57.5414 22.8996 58.9498 22.8996C60.3582 22.8996 61.5 24.0414 61.5 25.4498C61.5 26.8582 60.3582 28 58.9498 28Z" fill="#EBEDF0"></path> <path fill-rule="evenodd" clip-rule="evenodd" d="M37.5 8.8C37.5 6.14903 39.649 4 42.3 4H49.1633C51.8143 4 53.9633 6.14903 53.9633 8.8V15.6633C53.9633 18.3143 51.8143 20.4633 49.1633 20.4633H42.3C39.649 20.4633 37.5 18.3143 37.5 15.6633V8.8ZM39.9716 10.8138C39.9716 9.63463 40.9276 8.67868 42.1068 8.67868H46.0379C47.2171 8.67868 48.173 9.63463 48.173 10.8138V13.6495C48.173 14.8287 47.2171 15.7846 46.0379 15.7846H42.1068C40.9276 15.7846 39.9716 14.8287 39.9716 13.6495V10.8138ZM50.9776 15.2484C51.1446 15.4655 51.4917 15.3474 51.4917 15.0735V9.35849C51.4917 9.08421 51.1437 8.96639 50.9771 9.18429L49.3697 11.2865C49.3315 11.3366 49.3107 11.3978 49.3107 11.4608V12.9842C49.3107 13.0474 49.3317 13.1089 49.3702 13.159L50.9776 15.2484Z" fill="#EBEDF0"></path> <path d="M1.64372 60.872H2.81972V59H8.85572V60.872H10.0317V57.944H9.08372V50.6H3.45572V52.748C3.45572 55.04 3.33572 56.564 2.44772 57.944H1.64372V60.872ZM4.57172 52.112V51.656H7.90772V57.944H3.63572C4.54772 56.636 4.57172 53.912 4.57172 52.112ZM14.1731 59.096C16.0211 59.096 17.3051 57.812 17.3051 55.94C17.3051 54.068 16.0211 52.784 14.1731 52.784C12.3251 52.784 11.0411 54.068 11.0411 55.94C11.0411 57.812 12.3251 59.096 14.1731 59.096ZM14.1731 58.184C13.1171 58.184 12.2411 57.308 12.2411 55.94C12.2411 54.572 13.1171 53.696 14.1731 53.696C15.2171 53.696 16.1051 54.572 16.1051 55.94C16.1051 57.308 15.2291 58.184 14.1731 58.184ZM23.6362 59.12C25.0402 59.12 26.6602 58.556 26.6602 56.756C26.6602 55.76 26.0842 54.812 24.7282 54.62V54.596C25.7722 54.32 26.4682 53.672 26.4682 52.616C26.4682 51.26 25.4122 50.48 23.6482 50.48C22.8082 50.48 22.1602 50.6 21.5602 50.852V51.944C22.0642 51.704 22.7482 51.536 23.4802 51.536C24.6802 51.536 25.3162 52.004 25.3162 52.772C25.3162 53.6 24.5722 54.14 23.1322 54.14H22.4602V55.124H23.1922C24.5242 55.124 25.5082 55.628 25.5082 56.624C25.5082 57.524 24.7282 58.064 23.4562 58.064C22.6762 58.064 22.0042 57.896 21.4162 57.62V58.724C22.1482 59 22.8802 59.12 23.6362 59.12ZM28.035 55.928H31.515V54.872H28.035V55.928ZM32.1853 59H33.5293L35.1613 56.552L36.7933 59H38.1853L35.9173 55.796L38.0533 52.88H36.7933L35.2573 55.148L33.7453 52.88H32.3413L34.5013 55.796L32.1853 59ZM43.7594 59.096C44.5274 59.096 45.3914 58.82 45.9074 58.064H45.9314V59H47.0834V55.196C47.0834 53.504 46.0994 52.784 44.4314 52.784C43.6874 52.784 42.8474 52.928 42.2354 53.192V54.248C42.9674 53.852 43.6394 53.72 44.2874 53.72C45.2954 53.72 45.9554 54.104 45.9554 54.98V55.184H44.8274C42.6914 55.184 41.6714 55.928 41.6714 57.26C41.6714 58.4 42.4874 59.096 43.7594 59.096ZM44.0354 58.136C43.3154 58.136 42.8714 57.8 42.8714 57.188C42.8714 56.528 43.3874 56.048 44.8754 56.048H45.9554V56.432C45.9554 57.368 45.1514 58.136 44.0354 58.136ZM48.8788 59H50.0068V56.264H51.1348L53.1268 59H54.5308L52.1548 55.784L54.2428 52.88H52.9228L51.1468 55.352H50.0068V52.88H48.8788V59ZM56.984 59H58.112V53.792H60.248V52.88H54.848V53.792H56.984V59ZM61.4296 59H62.8576L65.6656 54.2H65.6896V59H66.8176V52.88H65.3896L62.5816 57.68H62.5576V52.88H61.4296V59ZM73.6844 54.488C73.6844 53.576 73.0244 52.88 71.2844 52.88H68.8124V59H71.5244C73.1444 59 73.9244 58.22 73.9244 57.212C73.9244 56.504 73.5284 56.048 72.7604 55.796V55.772C73.3724 55.52 73.6844 55.124 73.6844 54.488ZM69.9404 58.088V56.276H71.5244C72.3404 56.276 72.7004 56.636 72.7004 57.188C72.7004 57.74 72.3404 58.088 71.5244 58.088H69.9404ZM69.9404 55.364V53.792H71.2844C72.1004 53.792 72.4604 54.14 72.4604 54.572C72.4604 55.004 72.1004 55.364 71.2844 55.364H69.9404ZM75.3749 59H76.5029V56.276H79.5749V59H80.7029V52.88H79.5749V55.364H76.5029V52.88H75.3749V59ZM82.6991 59H85.0631C86.8031 59 87.5831 58.22 87.5831 57.008C87.5831 55.784 86.8031 54.992 85.0631 54.992H83.8271V52.88H82.6991V59ZM83.8271 58.088V55.904H85.0631C86.0111 55.904 86.4311 56.336 86.4311 57.008C86.4311 57.668 86.0111 58.088 85.0631 58.088H83.8271ZM88.8791 59H90.0071V52.88H88.8791V59ZM91.2478 59H92.5918L94.2238 56.552L95.8558 59H97.2478L94.9798 55.796L97.1158 52.88H95.8558L94.3198 55.148L92.8078 52.88H91.4038L93.5638 55.796L91.2478 59ZM29.1679 73H30.2959V70.264H31.4239L33.4159 73H34.8199L32.4439 69.784L34.5319 66.88H33.2119L31.4359 69.352H30.2959V66.88H29.1679V73ZM38.5598 73.096C40.4078 73.096 41.6918 71.812 41.6918 69.94C41.6918 68.068 40.4078 66.784 38.5598 66.784C36.7118 66.784 35.4278 68.068 35.4278 69.94C35.4278 71.812 36.7118 73.096 38.5598 73.096ZM38.5598 72.184C37.5038 72.184 36.6278 71.308 36.6278 69.94C36.6278 68.572 37.5038 67.696 38.5598 67.696C39.6038 67.696 40.4918 68.572 40.4918 69.94C40.4918 71.308 39.6158 72.184 38.5598 72.184ZM43.2773 73H44.4053V67.96H44.4293L46.0973 71.44H47.2253L48.8932 67.96H48.9173V73H50.0453V66.88H48.3533L46.6853 70.372L45.0173 66.88H43.2773V73ZM52.0429 73H53.1709V70.276H56.2429V73H57.3709V66.88H56.2429V69.364H53.1709V66.88H52.0429V73ZM60.9391 73.096C61.7071 73.096 62.5711 72.82 63.0871 72.064H63.1111V73H64.2631V69.196C64.2631 67.504 63.2791 66.784 61.6111 66.784C60.8671 66.784 60.0271 66.928 59.4151 67.192V68.248C60.1471 67.852 60.8191 67.72 61.4671 67.72C62.4751 67.72 63.1351 68.104 63.1351 68.98V69.184H62.0071C59.8711 69.184 58.8511 69.928 58.8511 71.26C58.8511 72.4 59.6671 73.096 60.9391 73.096ZM61.2151 72.136C60.4951 72.136 60.0511 71.8 60.0511 71.188C60.0511 70.528 60.5671 70.048 62.0551 70.048H63.1351V70.432C63.1351 71.368 62.3311 72.136 61.2151 72.136ZM67.3785 73H68.5065V67.792H70.6425V66.88H65.2425V67.792H67.3785V73Z" fill="#EBEDF0"></path> </svg> 