<?xml version="1.0" encoding="UTF-8"?> <svg xmlns="http://www.w3.org/2000/svg" width="108" height="77" viewBox="0 0 108 77" fill="none"> <g clip-path="url(#clip0_196_7558)"> <path d="M66 7.5H42C41.4477 7.5 41 7.94772 41 8.5V24.5C41 25.0523 41.4477 25.5 42 25.5H66C66.5523 25.5 67 25.0523 67 24.5V8.5C67 7.94772 66.5523 7.5 66 7.5Z" stroke="white" stroke-width="2" stroke-linecap="round" stroke-linejoin="round"></path> <path d="M59 21.5H63" stroke="white" stroke-width="2" stroke-linecap="round" stroke-linejoin="round"></path> <path d="M53 21.5H55" stroke="white" stroke-width="2" stroke-linecap="round" stroke-linejoin="round"></path> <path d="M41 12.6125H67" stroke="white" stroke-width="2" stroke-linecap="round" stroke-linejoin="round"></path> <path d="M25.8989 56.596C27.1949 56.596 27.7949 55.756 27.7949 50.14V48.784H31.7549V56.5H32.5469V48.1H27.0029V50.14C27.0029 55.156 26.5589 55.84 25.8509 55.84C25.6829 55.84 25.4429 55.804 25.3229 55.768V56.512C25.4429 56.548 25.6589 56.596 25.8989 56.596ZM34.7544 56.5H35.5944L39.1464 51.34H39.1824L39.1704 56.5H39.9264V50.344H39.0864L35.5344 55.504H35.4984L35.5104 50.344H34.7544V56.5ZM47.2132 58.156H47.9692V55.864H47.0332V50.344H46.2772V55.864H42.8932V50.344H42.1372V56.5H47.2132V58.156ZM54.3273 53.644V53.404C54.3273 52.336 54.1473 50.248 51.6873 50.248C50.0073 50.248 48.8073 51.388 48.8073 53.32C48.8073 55.432 50.0193 56.596 51.9993 56.596C52.5753 56.596 53.1993 56.524 53.8833 56.26V55.564C53.2113 55.876 52.5633 55.96 52.0233 55.96C50.4633 55.96 49.6593 55.072 49.5633 53.644H54.3273ZM51.6873 50.884C53.4513 50.884 53.5473 52.516 53.5353 53.008H49.5753C49.6833 51.688 50.4873 50.884 51.6873 50.884ZM56.1177 56.5H56.8737V53.62H60.4737V56.5H61.2297V50.344H60.4737V52.984H56.8737V50.344H56.1177V56.5ZM64.7979 56.596C66.4779 56.596 67.4259 55.864 67.4259 54.76C67.4259 53.788 66.7059 53.368 66.2139 53.26V53.224C66.7179 53.056 67.1979 52.648 67.1979 51.892C67.1979 50.968 66.5139 50.248 64.9059 50.248C64.2819 50.248 63.7059 50.332 63.1179 50.512V51.196C63.5859 51.016 64.2339 50.896 64.8939 50.896C66.0099 50.896 66.4419 51.304 66.4419 51.904C66.4419 52.564 65.9499 52.984 64.9299 52.984H63.9699V53.62H64.9299C66.2139 53.62 66.6339 54.148 66.6339 54.748C66.6339 55.528 65.9379 55.948 64.8339 55.948C64.2459 55.948 63.5379 55.852 62.9739 55.588V56.332C63.7299 56.548 64.2939 56.596 64.7979 56.596ZM69.2075 56.5H70.0475L73.5995 51.34H73.6355L73.6235 56.5H74.3795V50.344H73.5395L69.9875 55.504H69.9515L69.9635 50.344H69.2075V56.5ZM76.5903 56.5H77.4303L80.9823 51.34H81.0183L81.0063 56.5H81.7623V50.344H80.9223L77.3703 55.504H77.3343L77.3463 50.344H76.5903V56.5ZM14.8715 72.596C15.3035 72.596 15.6875 72.548 16.1795 72.356V71.684C15.7475 71.852 15.3155 71.96 14.8595 71.96C13.4315 71.96 12.5915 71 12.5915 69.368C12.5915 67.844 13.3835 66.884 14.7875 66.884C15.4235 66.884 15.9155 67.052 16.1315 67.1V66.428C15.4955 66.248 15.0395 66.248 14.8475 66.248C12.9035 66.248 11.7995 67.484 11.7995 69.344C11.7995 71.312 12.8555 72.596 14.8715 72.596ZM19.4357 72.5H20.1797V66.98H22.3517V66.344H17.2637V66.98H19.4357V72.5ZM26.2376 72.596C28.0496 72.596 29.2616 71.336 29.2616 69.428C29.2616 67.508 28.0616 66.248 26.2376 66.248C24.4136 66.248 23.2136 67.508 23.2136 69.428C23.2136 71.336 24.4256 72.596 26.2376 72.596ZM26.2376 71.96C24.6776 71.96 24.0056 70.616 24.0056 69.428C24.0056 68.228 24.6776 66.884 26.2376 66.884C27.7976 66.884 28.4696 68.228 28.4696 69.428C28.4696 70.616 27.7976 71.96 26.2376 71.96ZM30.511 72.5H31.423L32.743 70.124C32.839 70.136 32.935 70.136 33.031 70.136H34.819V72.5H35.575V66.344H33.031C31.471 66.344 30.751 67.052 30.751 68.24C30.751 69.188 31.243 69.74 31.975 69.98L30.511 72.5ZM33.031 69.5C32.023 69.5 31.543 69.032 31.543 68.24C31.543 67.448 32.023 66.98 33.031 66.98H34.819V69.5H33.031ZM39.1818 72.5H39.9258V66.98H42.0978V66.344H37.0098V66.98H39.1818V72.5ZM45.2891 71.864V74.156H46.0451V72.5H51.3251V74.156H52.0811V71.864H51.1451V66.344H46.7891V68.168C46.7891 69.872 46.6331 70.808 46.0091 71.864H45.2891ZM47.5451 68.18V66.98H50.3891V71.864H46.8731C47.4371 70.76 47.5451 69.956 47.5451 68.18ZM58.4406 69.644V69.404C58.4406 68.336 58.2606 66.248 55.8006 66.248C54.1206 66.248 52.9206 67.388 52.9206 69.32C52.9206 71.432 54.1326 72.596 56.1126 72.596C56.6886 72.596 57.3126 72.524 57.9966 72.26V71.564C57.3246 71.876 56.6766 71.96 56.1366 71.96C54.5766 71.96 53.7726 71.072 53.6766 69.644H58.4406ZM55.8006 66.884C57.5646 66.884 57.6606 68.516 57.6486 69.008H53.6886C53.7966 67.688 54.6006 66.884 55.8006 66.884ZM60.231 72.5H68.343V66.344H67.587V71.864H64.659V66.344H63.915V71.864H60.987V66.344H60.231V72.5ZM75.6672 69.644V69.404C75.6672 68.336 75.4872 66.248 73.0272 66.248C71.3472 66.248 70.1472 67.388 70.1472 69.32C70.1472 71.432 71.3592 72.596 73.3392 72.596C73.9152 72.596 74.5392 72.524 75.2232 72.26V71.564C74.5512 71.876 73.9032 71.96 73.3632 71.96C71.8032 71.96 70.9992 71.072 70.9032 69.644H75.6672ZM73.0272 66.884C74.7912 66.884 74.8872 68.516 74.8752 69.008H70.9152C71.0232 67.688 71.8272 66.884 73.0272 66.884ZM82.0895 67.94C82.0895 67.076 81.4775 66.344 80.1815 66.344H77.4575V72.5H80.2655C80.5295 72.5 82.3415 72.44 82.3415 70.808C82.3415 70.016 81.8615 69.44 81.1775 69.236V69.224C81.7775 68.936 82.0895 68.528 82.0895 67.94ZM78.2135 71.864V69.644H80.0855C81.1535 69.644 81.5495 70.184 81.5495 70.772C81.5495 71.336 81.1655 71.864 80.2055 71.864H78.2135ZM78.2135 69.008V66.98H80.1335C81.1175 66.98 81.3335 67.604 81.3215 68.048C81.2855 68.972 80.3495 69.008 80.0135 69.008H78.2135ZM83.564 72.596C84.608 72.596 85.292 71.9 85.292 67.82V66.98H88.136V72.5H88.892V66.344H84.536V67.82C84.536 71.492 84.02 71.912 83.432 71.912C83.144 71.912 82.976 71.852 82.976 71.852V72.536C82.976 72.536 83.264 72.596 83.564 72.596ZM96.2101 69.644V69.404C96.2101 68.336 96.0301 66.248 93.5701 66.248C91.8901 66.248 90.6901 67.388 90.6901 69.32C90.6901 71.432 91.9021 72.596 93.8821 72.596C94.4581 72.596 95.0821 72.524 95.7661 72.26V71.564C95.0941 71.876 94.4461 71.96 93.9061 71.96C92.3461 71.96 91.5421 71.072 91.4461 69.644H96.2101ZM93.5701 66.884C95.3341 66.884 95.4301 68.516 95.4181 69.008H91.4581C91.5661 67.688 92.3701 66.884 93.5701 66.884Z" fill="#EBEDF0"></path> </g> <defs> <clipPath id="clip0_196_7558"> <rect width="108" height="76" fill="white" transform="translate(0 0.5)"></rect> </clipPath> </defs> </svg> 