<?xml version="1.0" encoding="UTF-8"?> <svg xmlns="http://www.w3.org/2000/svg" width="104" height="94" viewBox="0 0 104 94" fill="none"> <path d="M40 8V18" stroke="white" stroke-width="2" stroke-linecap="round" stroke-linejoin="round"></path> <path d="M42.7749 26.9999C43.7755 25.4653 45.1431 24.2045 46.7539 23.3317C48.3648 22.459 50.1679 22.002 51.9999 22.002C53.8319 22.002 55.635 22.459 57.2459 23.3317C58.8567 24.2045 60.2243 25.4653 61.2249 26.9999" stroke="white" stroke-width="2" stroke-linecap="round" stroke-linejoin="round"></path> <path d="M64 8L52 12L40 8L52 4L64 8Z" stroke="white" stroke-width="2" stroke-linecap="round" stroke-linejoin="round"></path> <path d="M57.1625 10.2749C58.0798 11.2766 58.6859 12.5236 58.9068 13.8638C59.1277 15.204 58.954 16.5795 58.4067 17.8226C57.8595 19.0658 56.9624 20.1229 55.8248 20.865C54.6872 21.6072 53.3583 22.0023 52 22.0023C50.6417 22.0023 49.3128 21.6072 48.1752 20.865C47.0376 20.1229 46.1405 19.0658 45.5933 17.8226C45.046 16.5795 44.8723 15.204 45.0932 13.8638C45.3141 12.5236 45.9202 11.2766 46.8375 10.2749" stroke="white" stroke-width="2" stroke-linecap="round" stroke-linejoin="round"></path> <path d="M6.08175 61H9.56975C12.4338 61 13.7138 59.672 13.7138 57.544C13.7138 55.384 12.4338 54.056 9.72975 54.056H7.64975V51.208H12.8338V49.8H6.08175V61ZM7.64975 59.592V55.464H9.72975C11.3138 55.464 12.0498 56.232 12.0498 57.544C12.0498 58.84 11.3138 59.592 9.56975 59.592H7.64975ZM17.7834 61.128C18.8074 61.128 19.9594 60.76 20.6474 59.752H20.6794V61H22.2154V55.928C22.2154 53.672 20.9034 52.712 18.6794 52.712C17.6874 52.712 16.5674 52.904 15.7514 53.256V54.664C16.7274 54.136 17.6234 53.96 18.4874 53.96C19.8314 53.96 20.7114 54.472 20.7114 55.64V55.912H19.2074C16.3594 55.912 14.9994 56.904 14.9994 58.68C14.9994 60.2 16.0874 61.128 17.7834 61.128ZM18.1514 59.848C17.1914 59.848 16.5994 59.4 16.5994 58.584C16.5994 57.704 17.2874 57.064 19.2714 57.064H20.7114V57.576C20.7114 58.824 19.6394 59.848 18.1514 59.848ZM26.6093 61.128C29.2653 61.128 30.3533 60.056 30.3533 58.744C30.3533 57.768 29.7453 56.968 28.5933 56.712V56.696C29.5533 56.376 30.0333 55.736 30.0333 54.872C30.0333 53.608 28.9933 52.712 26.6733 52.712C25.2812 52.712 24.2893 53.032 24.2893 53.032V54.344C24.2893 54.344 25.3293 53.928 26.5773 53.928C27.8253 53.928 28.4333 54.36 28.4333 55.048C28.4333 55.704 27.8893 56.168 26.5933 56.168H25.5213V57.352H26.8333C28.1293 57.352 28.7533 57.832 28.7533 58.584C28.7533 59.416 27.9852 59.912 26.4493 59.912C24.9453 59.912 23.9853 59.432 23.9853 59.432V60.728C23.9853 60.744 24.9293 61.128 26.6093 61.128ZM34.3928 61.128C35.4168 61.128 36.5688 60.76 37.2568 59.752H37.2888V61H38.8248V55.928C38.8248 53.672 37.5128 52.712 35.2888 52.712C34.2968 52.712 33.1768 52.904 32.3608 53.256V54.664C33.3368 54.136 34.2328 53.96 35.0968 53.96C36.4408 53.96 37.3208 54.472 37.3208 55.64V55.912H35.8168C32.9688 55.912 31.6088 56.904 31.6088 58.68C31.6088 60.2 32.6968 61.128 34.3928 61.128ZM34.7608 59.848C33.8008 59.848 33.2088 59.4 33.2088 58.584C33.2088 57.704 33.8968 57.064 35.8808 57.064H37.3208V57.576C37.3208 58.824 36.2488 59.848 34.7608 59.848ZM46.9061 61.128C49.5621 61.128 50.6501 60.056 50.6501 58.744C50.6501 57.768 50.0421 56.968 48.8901 56.712V56.696C49.8501 56.376 50.3301 55.736 50.3301 54.872C50.3301 53.608 49.2901 52.712 46.9701 52.712C45.5781 52.712 44.5861 53.032 44.5861 53.032V54.344C44.5861 54.344 45.6261 53.928 46.8741 53.928C48.1221 53.928 48.7301 54.36 48.7301 55.048C48.7301 55.704 48.1861 56.168 46.8901 56.168H45.8181V57.352H47.1301C48.4261 57.352 49.0501 57.832 49.0501 58.584C49.0501 59.416 48.2821 59.912 46.7461 59.912C45.2421 59.912 44.2821 59.432 44.2821 59.432V60.728C44.2821 60.744 45.2261 61.128 46.9061 61.128ZM52.5936 61H54.0976V57.368H58.1936V61H59.6976V52.84H58.1936V56.152H54.0976V52.84H52.5936V61ZM64.4553 61.128C65.4793 61.128 66.6313 60.76 67.3193 59.752H67.3513V61H68.8873V55.928C68.8873 53.672 67.5753 52.712 65.3513 52.712C64.3593 52.712 63.2393 52.904 62.4233 53.256V54.664C63.3993 54.136 64.2953 53.96 65.1593 53.96C66.5033 53.96 67.3833 54.472 67.3833 55.64V55.912H65.8793C63.0312 55.912 61.6713 56.904 61.6713 58.68C61.6713 60.2 62.7593 61.128 64.4553 61.128ZM64.8233 59.848C63.8633 59.848 63.2713 59.4 63.2713 58.584C63.2713 57.704 63.9593 57.064 65.9433 57.064H67.3833V57.576C67.3833 58.824 66.3113 59.848 64.8233 59.848ZM71.2811 61H72.7851V57.368H76.8811V61H78.3851V52.84H76.8811V56.152H72.7851V52.84H71.2811V61ZM81.0468 61H82.9508L86.6948 54.6H86.7268V61H88.2308V52.84H86.3268L82.5828 59.24H82.5508V52.84H81.0468V61ZM90.8905 61H92.7945L96.5385 54.6H96.5705V61H98.0745V52.84H96.1705L92.4265 59.24H92.3945V52.84H90.8905V61ZM94.5385 51.144C95.8825 51.144 96.9065 50.456 96.9705 48.968H95.8825C95.7705 49.672 95.2745 50.056 94.5385 50.056C93.8025 50.056 93.2585 49.672 93.1465 48.968H92.0105C92.0745 50.456 93.1945 51.144 94.5385 51.144ZM14.0936 83H15.5976V79.352H17.1016L19.7576 83H21.6296L18.4616 78.712L21.2456 74.84H19.4856L17.1176 78.136H15.5976V74.84H14.0936V83ZM26.6163 83.128C29.0803 83.128 30.7923 81.416 30.7923 78.92C30.7923 76.424 29.0803 74.712 26.6163 74.712C24.1523 74.712 22.4403 76.424 22.4403 78.92C22.4403 81.416 24.1523 83.128 26.6163 83.128ZM26.6163 81.912C25.2083 81.912 24.0403 80.744 24.0403 78.92C24.0403 77.096 25.2083 75.928 26.6163 75.928C28.0083 75.928 29.1923 77.096 29.1923 78.92C29.1923 80.744 28.0243 81.912 26.6163 81.912ZM32.9061 83H34.4101V76.28H34.4421L36.6661 80.92H38.1701L40.3941 76.28H40.4261V83H41.9301V74.84H39.6741L37.4501 79.496L35.2261 74.84H32.9061V83ZM44.5936 83H46.0976V76.056H50.0336V83H51.5376V74.84H44.5936V83ZM56.2834 83.128C57.3074 83.128 58.4594 82.76 59.1474 81.752H59.1794V83H60.7154V77.928C60.7154 75.672 59.4034 74.712 57.1794 74.712C56.1874 74.712 55.0674 74.904 54.2514 75.256V76.664C55.2274 76.136 56.1234 75.96 56.9874 75.96C58.3314 75.96 59.2114 76.472 59.2114 77.64V77.912H57.7074C54.8594 77.912 53.4994 78.904 53.4994 80.68C53.4994 82.2 54.5874 83.128 56.2834 83.128ZM56.6514 81.848C55.6914 81.848 55.0994 81.4 55.0994 80.584C55.0994 79.704 55.7874 79.064 57.7714 79.064H59.2114V79.576C59.2114 80.824 58.1394 81.848 56.6514 81.848ZM63.1093 83H64.6133V79.368H68.7093V83H70.2133V74.84H68.7093V78.152H64.6133V74.84H63.1093V83ZM72.8749 83H74.7789L78.5229 76.6H78.5549V83H80.0589V74.84H78.1549L74.4109 81.24H74.3789V74.84H72.8749V83ZM82.7186 83H84.6226L88.3666 76.6H88.3986V83H89.9026V74.84H87.9986L84.2546 81.24H84.2226V74.84H82.7186V83Z" fill="white" fill-opacity="0.8"></path> </svg> 