<?xml version="1.0" encoding="UTF-8"?> <svg xmlns="http://www.w3.org/2000/svg" width="33" height="32" viewBox="0 0 33 32" fill="none"> <path fill-rule="evenodd" clip-rule="evenodd" d="M16.5 28C23.1274 28 28.5 22.6274 28.5 16C28.5 9.37258 23.1274 4 16.5 4C9.87258 4 4.5 9.37258 4.5 16C4.5 22.6274 9.87258 28 16.5 28ZM22.0039 14.8245L17.6755 14.8245V8.17276C17.6755 7.80919 17.3808 7.51445 17.0172 7.51445H15.9827C15.6192 7.51445 15.3244 7.80919 15.3244 8.17276V16.5172C15.3244 16.8808 15.6192 17.1756 15.9827 17.1756H22.0039C22.3675 17.1756 22.6622 16.8808 22.6622 16.5172V15.4828C22.6622 15.1192 22.3675 14.8245 22.0039 14.8245Z" fill="white"></path> </svg> 