<?xml version="1.0" encoding="UTF-8"?> <svg xmlns="http://www.w3.org/2000/svg" width="140" height="70" viewBox="0 0 140 70" fill="none"> <g clip-path="url(#clip0_134_6049)"> <path d="M57.2 14.4C58.085 13.212 59.2659 12.2768 60.625 11.6875C59.8814 11.0072 59.3607 10.1181 59.1313 9.13672C58.9019 8.15535 58.9743 7.12754 59.3392 6.18809C59.7041 5.24863 60.3444 4.44138 61.1761 3.87218C62.0079 3.30298 62.9922 2.99841 64 2.99841C65.0078 2.99841 65.9921 3.30298 66.8239 3.87218C67.6556 4.44138 68.2959 5.24863 68.6608 6.18809C69.0257 7.12754 69.0981 8.15535 68.8687 9.13672C68.6393 10.1181 68.1186 11.0072 67.375 11.6875C68.3544 12.1134 69.2449 12.7198 70 13.475C70.7551 12.7198 71.6456 12.1134 72.625 11.6875C71.8814 11.0072 71.3607 10.1181 71.1313 9.13672C70.9019 8.15535 70.9743 7.12754 71.3392 6.18809C71.7041 5.24863 72.3444 4.44138 73.1761 3.87218C74.0079 3.30298 74.9922 2.99841 76 2.99841C77.0078 2.99841 77.9921 3.30298 78.8239 3.87218C79.6556 4.44138 80.2959 5.24863 80.6608 6.18809C81.0257 7.12754 81.0981 8.15535 80.8687 9.13672C80.6393 10.1181 80.1186 11.0072 79.375 11.6875C80.7341 12.2768 81.915 13.212 82.8 14.4C82.8788 14.5051 82.9361 14.6246 82.9687 14.7518C83.0013 14.879 83.0085 15.0114 82.99 15.1414C82.9714 15.2714 82.9274 15.3965 82.8605 15.5095C82.7936 15.6225 82.7051 15.7212 82.6 15.8C82.3867 15.9559 82.1209 16.0223 81.8593 15.9849C81.5977 15.9476 81.3611 15.8094 81.2 15.6C80.5945 14.7927 79.8095 14.1375 78.9069 13.6862C78.0043 13.2349 77.0091 13 76 13C74.9909 13 73.9957 13.2349 73.0931 13.6862C72.1906 14.1375 71.4055 14.7927 70.8 15.6L70.725 15.675H70.7125L70.65 15.7375L70.6125 15.7625C70.6125 15.7658 70.6112 15.769 70.6088 15.7713C70.6065 15.7737 70.6033 15.775 70.6 15.775L70.5625 15.8L70.525 15.825L70.4625 15.8625H70.4375L70.225 15.9375H69.8125L69.7125 15.9125H69.675L69.5625 15.8625L69.525 15.8375C69.4847 15.8169 69.447 15.7917 69.4125 15.7625H69.4L69.3625 15.725H69.3375C69.3125 15.7 69.2875 15.6875 69.275 15.6625H69.2625L69.1875 15.575C68.5808 14.7708 67.7956 14.1187 66.8937 13.67C65.9918 13.2213 64.998 12.9884 63.9906 12.9896C62.9833 12.9908 61.99 13.2261 61.0892 13.677C60.1884 14.1278 59.4047 14.7819 58.8 15.5875C58.7082 15.714 58.588 15.8172 58.449 15.8888C58.3101 15.9605 58.1563 15.9986 58 16C57.7832 16.0028 57.5718 15.9324 57.4 15.8C57.2949 15.7212 57.2064 15.6225 57.1395 15.5095C57.0726 15.3965 57.0286 15.2714 57.0101 15.1414C56.9915 15.0114 56.9987 14.879 57.0313 14.7518C57.0639 14.6246 57.1212 14.5051 57.2 14.4ZM79.375 24.6875C80.1186 24.0072 80.6393 23.1181 80.8687 22.1367C81.0981 21.1553 81.0257 20.1275 80.6608 19.1881C80.2959 18.2486 79.6556 17.4414 78.8239 16.8722C77.9921 16.303 77.0078 15.9984 76 15.9984C74.9922 15.9984 74.0079 16.303 73.1761 16.8722C72.3444 17.4414 71.7041 18.2486 71.3392 19.1881C70.9743 20.1275 70.9019 21.1553 71.1313 22.1367C71.3607 23.1181 71.8814 24.0072 72.625 24.6875C71.6456 25.1134 70.7551 25.7198 70 26.475C69.2449 25.7198 68.3544 25.1134 67.375 24.6875C68.1186 24.0072 68.6393 23.1181 68.8687 22.1367C69.0981 21.1553 69.0257 20.1275 68.6608 19.1881C68.2959 18.2486 67.6556 17.4414 66.8239 16.8722C65.9921 16.303 65.0078 15.9984 64 15.9984C62.9922 15.9984 62.0079 16.303 61.1761 16.8722C60.3444 17.4414 59.7041 18.2486 59.3392 19.1881C58.9743 20.1275 58.9019 21.1553 59.1313 22.1367C59.3607 23.1181 59.8814 24.0072 60.625 24.6875C59.2659 25.2768 58.085 26.212 57.2 27.4C57.0886 27.5486 57.0207 27.7252 57.004 27.9102C56.9874 28.0952 57.0225 28.2811 57.1056 28.4472C57.1886 28.6133 57.3163 28.753 57.4743 28.8507C57.6322 28.9483 57.8143 29 58 29H82C82.1857 29 82.3678 28.9483 82.5257 28.8507C82.6837 28.753 82.8114 28.6133 82.8944 28.4472C82.9775 28.2811 83.0126 28.0952 82.996 27.9102C82.9793 27.7252 82.9114 27.5486 82.8 27.4C81.915 26.212 80.7341 25.2768 79.375 24.6875Z" fill="white"></path> <path d="M0.929813 63.592V65H8.59381V63.592H6.01781V53.8H4.67381L1.47381 56.264L2.24181 57.352L4.49781 55.704V63.592H0.929813ZM14.1791 65.128C16.3711 65.128 17.9551 63.496 17.9551 59.4C17.9551 55.416 16.4831 53.672 14.1471 53.672C11.9231 53.672 10.4031 55.416 10.4031 59.4C10.4031 63.352 11.8751 65.128 14.1791 65.128ZM14.1791 63.784C12.9151 63.784 11.9391 62.696 11.9391 59.4C11.9391 56.056 12.8511 55.016 14.1471 55.016C15.5391 55.016 16.4191 56.088 16.4191 59.4C16.4191 62.616 15.5871 63.784 14.1791 63.784ZM23.4603 65.128C25.6523 65.128 27.2363 63.496 27.2363 59.4C27.2363 55.416 25.7643 53.672 23.4283 53.672C21.2043 53.672 19.6843 55.416 19.6843 59.4C19.6843 63.352 21.1563 65.128 23.4603 65.128ZM23.4603 63.784C22.1963 63.784 21.2203 62.696 21.2203 59.4C21.2203 56.056 22.1323 55.016 23.4283 55.016C24.8203 55.016 25.7003 56.088 25.7003 59.4C25.7003 62.616 24.8683 63.784 23.4603 63.784ZM32.7416 65.128C34.9336 65.128 36.5176 63.496 36.5176 59.4C36.5176 55.416 35.0456 53.672 32.7096 53.672C30.4856 53.672 28.9656 55.416 28.9656 59.4C28.9656 63.352 30.4376 65.128 32.7416 65.128ZM32.7416 63.784C31.4776 63.784 30.5016 62.696 30.5016 59.4C30.5016 56.056 31.4136 55.016 32.7096 55.016C34.1016 55.016 34.9816 56.088 34.9816 59.4C34.9816 62.616 34.1496 63.784 32.7416 63.784ZM41.3188 63.4H42.7268V60.104H46.0228V58.696H42.7268V55.4H41.3188V58.696H38.0228V60.104H41.3188V63.4ZM52.2876 68.584C54.0476 68.584 54.5436 67.704 55.5036 65.32L58.8956 56.84H57.3756L54.8476 63.528H54.7356L52.2556 56.84H50.6076L53.9516 65.4L53.8076 65.8C53.4396 66.792 53.1196 67.32 52.1916 67.32C51.8876 67.32 51.5996 67.272 51.5996 67.272V68.504C51.5996 68.504 51.8716 68.584 52.2876 68.584ZM65.3564 65H66.8604V56.84H65.3564V60.712C64.7804 60.808 64.1404 60.856 63.5164 60.856C61.9964 60.856 61.5644 60.488 61.5644 59.24V56.84H60.0604V59.688C60.0604 61.32 61.2764 62.072 63.1644 62.072C64.0124 62.072 64.8604 61.944 65.3564 61.848V65ZM71.6193 65.128C72.6433 65.128 73.7953 64.76 74.4833 63.752H74.5153V65H76.0513V59.928C76.0513 57.672 74.7393 56.712 72.5153 56.712C71.5233 56.712 70.4033 56.904 69.5873 57.256V58.664C70.5633 58.136 71.4593 57.96 72.3233 57.96C73.6673 57.96 74.5473 58.472 74.5473 59.64V59.912H73.0433C70.1953 59.912 68.8353 60.904 68.8353 62.68C68.8353 64.2 69.9233 65.128 71.6193 65.128ZM71.9873 63.848C71.0273 63.848 70.4353 63.4 70.4353 62.584C70.4353 61.704 71.1233 61.064 73.1073 61.064H74.5473V61.576C74.5473 62.824 73.4753 63.848 71.9873 63.848ZM81.9812 65.128C83.2452 65.128 84.0292 64.808 84.0292 64.808V63.496C84.0292 63.496 83.2612 63.912 82.1412 63.912C80.4612 63.912 79.5012 62.824 79.5012 60.92C79.5012 59.016 80.4612 57.928 82.1572 57.928C83.2612 57.928 84.0292 58.328 84.0292 58.328V57.032C84.0292 57.032 83.2932 56.712 81.9972 56.712C79.5012 56.712 77.9012 58.408 77.9012 60.92C77.9012 63.432 79.4532 65.128 81.9812 65.128ZM87.9708 65H89.4748V58.056H92.3228V56.84H85.1228V58.056H87.9708V65ZM93.8983 65H95.4023V61.368H99.4983V65H101.002V56.84H99.4983V60.152H95.4023V56.84H93.8983V65ZM103.664 65H105.568L109.312 58.6H109.344V65H110.848V56.84H108.944L105.2 63.24H105.168V56.84H103.664V65ZM113.508 65H115.012V61.352H116.516L119.172 65H121.044L117.876 60.712L120.66 56.84H118.9L116.532 60.136H115.012V56.84H113.508V65ZM126.03 65.128C128.494 65.128 130.206 63.416 130.206 60.92C130.206 58.424 128.494 56.712 126.03 56.712C123.566 56.712 121.854 58.424 121.854 60.92C121.854 63.416 123.566 65.128 126.03 65.128ZM126.03 63.912C124.622 63.912 123.454 62.744 123.454 60.92C123.454 59.096 124.622 57.928 126.03 57.928C127.422 57.928 128.606 59.096 128.606 60.92C128.606 62.744 127.438 63.912 126.03 63.912ZM138.816 58.984C138.816 57.768 137.936 56.84 135.616 56.84H132.32V65H135.936C138.096 65 139.136 63.96 139.136 62.616C139.136 61.672 138.608 61.064 137.584 60.728V60.696C138.4 60.36 138.816 59.832 138.816 58.984ZM133.824 63.784V61.368H135.936C137.024 61.368 137.504 61.848 137.504 62.584C137.504 63.32 137.024 63.784 135.936 63.784H133.824ZM133.824 60.152V58.056H135.616C136.704 58.056 137.184 58.52 137.184 59.096C137.184 59.672 136.704 60.152 135.616 60.152H133.824Z" fill="white" fill-opacity="0.8"></path> </g> <defs> <clipPath id="clip0_134_6049"> <rect width="140" height="70" fill="white"></rect> </clipPath> </defs> </svg> 