<?xml version="1.0" encoding="UTF-8"?> <svg xmlns="http://www.w3.org/2000/svg" width="83" height="20" viewBox="0 0 83 20" fill="none"> <g clip-path="url(#clip0_169_2810)"> <mask id="mask0_169_2810" style="mask-type:luminance" maskUnits="userSpaceOnUse" x="0" y="0" width="83" height="20"> <path d="M83 0H0V20H83V0Z" fill="white"></path> </mask> <g mask="url(#mask0_169_2810)"> <path d="M82.4569 0.0821386H79.1097C78.9688 0.0821386 78.8334 0.138635 78.7338 0.239199C78.634 0.339764 78.5779 0.476159 78.5779 0.618377V12.8821H78.4717L77.9399 12.1368L67.893 0.269822C67.8444 0.210666 67.7834 0.163138 67.7145 0.130676C67.6456 0.0982148 67.5703 0.0816341 67.4942 0.0821386H63.8599C63.7188 0.0821386 63.5836 0.138635 63.4838 0.239199C63.3841 0.339764 63.3281 0.476159 63.3281 0.618377V19.3705C63.3281 19.5129 63.3841 19.6493 63.4838 19.7498C63.5836 19.8504 63.7188 19.9069 63.8599 19.9069H67.2096C67.3507 19.9069 67.4859 19.8504 67.5857 19.7498C67.6854 19.6493 67.7414 19.5129 67.7414 19.3705V7.10686H67.8478L68.3796 7.84956L78.4345 19.7165C78.4843 19.7745 78.546 19.8211 78.6153 19.8529C78.6846 19.8849 78.7598 19.9014 78.836 19.9014H82.4676C82.6087 19.9014 82.7438 19.8451 82.8436 19.7444C82.9432 19.6438 82.9993 19.5074 82.9993 19.3653V0.615697C82.9989 0.544592 82.9847 0.474264 82.9571 0.408808C82.9295 0.34335 82.8894 0.28407 82.8389 0.234417C82.7884 0.184764 82.7287 0.145732 82.6632 0.119589C82.5975 0.0934464 82.5275 0.0807157 82.4569 0.0821386Z" fill="#111314"></path> <path d="M9.95392 0.0820312H0.531727C0.390703 0.0820312 0.255456 0.138527 0.155738 0.239091C0.0560205 0.339657 0 0.476051 0 0.61827V19.3705C0 19.5127 0.0560205 19.6491 0.155738 19.7496C0.255456 19.8502 0.390703 19.9067 0.531727 19.9067H10.1453C12.7173 19.9038 15.1859 18.8851 17.0221 17.0689C18.8583 15.2526 19.9162 12.7834 19.9689 10.1901C20.0726 4.62934 15.4599 0.0820312 9.95392 0.0820312ZM9.75185 15.7509H4.90252C4.76149 15.7509 4.62624 15.6944 4.52653 15.5938C4.42681 15.4933 4.3708 15.3569 4.3708 15.2147V4.77412C4.3708 4.6319 4.42681 4.4955 4.52653 4.39494C4.62624 4.29437 4.76149 4.23788 4.90252 4.23788H10.148C13.2746 4.23788 15.5344 6.77696 15.5689 9.92199C15.6008 13.126 12.9289 15.7509 9.7492 15.7509H9.75185Z" fill="#111314"></path> <path d="M61.0242 9.99867C61.0242 4.4786 56.6831 0.00530013 51.3251 0H49.1519C43.7887 0 39.4424 4.47595 39.4424 9.99867C39.4424 15.5214 43.7966 20 49.1519 20H51.3514C56.6988 19.9762 61.0242 15.5081 61.0242 9.99867ZM51.3015 15.8288H49.1415C46.0248 15.8288 43.7835 13.2265 43.7835 10.0172C43.7835 6.808 46.0248 4.20565 49.1415 4.20565H51.3015C54.4206 4.20565 56.662 6.808 56.662 10.0172C56.662 13.2265 54.4311 15.8315 51.3119 15.8315L51.3015 15.8288Z" fill="#111314"></path> <path d="M25.4182 4.23671H21.2482C21.1085 4.23671 20.9747 4.18022 20.8758 4.07965C20.7771 3.97909 20.7217 3.84269 20.7217 3.70047V0.625151C20.7217 0.482931 20.7771 0.346536 20.8758 0.245972C20.9747 0.145408 21.1085 0.0889118 21.2482 0.0889118H28.9302C29.0071 0.0879023 29.0832 0.104038 29.1532 0.136181C29.2232 0.168324 29.2855 0.215696 29.3358 0.274974C29.386 0.334252 29.4228 0.404 29.4437 0.479316C29.4645 0.554632 29.469 0.633694 29.4567 0.710951C29.3093 1.69359 28.8207 2.58976 28.0796 3.23673C27.3386 3.88367 26.3942 4.23849 25.4182 4.23671Z" fill="#111314"></path> <path d="M27.2978 15.2308V10.0132C27.2978 7.38212 28.3343 4.85883 30.179 2.99839C32.0238 1.13796 34.5259 0.0927734 37.1348 0.0927734H37.6958C37.8369 0.0927734 37.972 0.149273 38.0718 0.249839C38.1716 0.350402 38.2275 0.486793 38.2275 0.629011V3.70164C38.2275 3.84386 38.1716 3.98026 38.0718 4.08083C37.972 4.18139 37.8369 4.23788 37.6958 4.23788H32.227C32.086 4.23788 31.9507 4.29439 31.8509 4.39495C31.7513 4.49552 31.6952 4.6319 31.6952 4.77413V9.97832C31.6952 12.6094 30.659 15.1327 28.814 16.9931C26.9693 18.8535 24.4672 19.8988 21.8583 19.8988H21.2681C21.1271 19.8988 20.9918 19.8423 20.8922 19.7417C20.7924 19.6412 20.7363 19.5048 20.7363 19.3626V16.2818C20.7363 16.1396 20.7924 16.0032 20.8922 15.9026C20.9918 15.802 21.1271 15.7456 21.2681 15.7456H26.7742C26.9103 15.7436 27.0404 15.6892 27.1378 15.5934C27.2352 15.4976 27.2924 15.3679 27.2978 15.2308Z" fill="#111314"></path> <path d="M33.5295 15.7461H37.6787C37.8191 15.7461 37.9537 15.8026 38.053 15.9032C38.1522 16.0037 38.208 16.1401 38.208 16.2823V19.3685C38.208 19.5107 38.1522 19.6471 38.053 19.7476C37.9537 19.8482 37.8191 19.9047 37.6787 19.9047H30.0048C29.9276 19.9056 29.8511 19.8896 29.7806 19.8574C29.7102 19.8253 29.6476 19.7778 29.5972 19.7185C29.5467 19.6593 29.5097 19.5896 29.4886 19.5143C29.4677 19.4389 29.4632 19.36 29.4756 19.2827C29.622 18.2993 30.1115 17.4015 30.8552 16.7525C31.5992 16.1036 32.5479 15.7465 33.5295 15.7461Z" fill="#111314"></path> </g> </g> <defs> <clipPath id="clip0_169_2810"> <rect width="83" height="20" fill="white"></rect> </clipPath> </defs> </svg> 