<?xml version="1.0" encoding="UTF-8"?> <svg xmlns="http://www.w3.org/2000/svg" width="123" height="77" viewBox="0 0 123 77" fill="none"> <g clip-path="url(#clip0_196_7546)"> <path d="M55.5 25.5C57.7091 25.5 59.5 23.7091 59.5 21.5C59.5 19.2909 57.7091 17.5 55.5 17.5C53.2909 17.5 51.5 19.2909 51.5 21.5C51.5 23.7091 53.2909 25.5 55.5 25.5Z" stroke="white" stroke-width="2" stroke-linecap="round" stroke-linejoin="round"></path> <path d="M49.5 28.5C50.1986 27.5685 51.1045 26.8125 52.1459 26.2918C53.1873 25.7711 54.3357 25.5 55.5 25.5C56.6643 25.5 57.8127 25.7711 58.8541 26.2918C59.8955 26.8125 60.8014 27.5685 61.5 28.5" stroke="white" stroke-width="2" stroke-linecap="round" stroke-linejoin="round"></path> <path d="M55.5 12.5C57.7091 12.5 59.5 10.7091 59.5 8.5C59.5 6.29086 57.7091 4.5 55.5 4.5C53.2909 4.5 51.5 6.29086 51.5 8.5C51.5 10.7091 53.2909 12.5 55.5 12.5Z" stroke="white" stroke-width="2" stroke-linecap="round" stroke-linejoin="round"></path> <path d="M49.5 15.5C50.1986 14.5685 51.1045 13.8125 52.1459 13.2918C53.1873 12.7711 54.3357 12.5 55.5 12.5C56.6643 12.5 57.8127 12.7711 58.8541 13.2918C59.8955 13.8125 60.8014 14.5685 61.5 15.5" stroke="white" stroke-width="2" stroke-linecap="round" stroke-linejoin="round"></path> <path d="M67.5 25.5C69.7091 25.5 71.5 23.7091 71.5 21.5C71.5 19.2909 69.7091 17.5 67.5 17.5C65.2909 17.5 63.5 19.2909 63.5 21.5C63.5 23.7091 65.2909 25.5 67.5 25.5Z" stroke="white" stroke-width="2" stroke-linecap="round" stroke-linejoin="round"></path> <path d="M61.5 28.5C62.1986 27.5685 63.1045 26.8125 64.1459 26.2918C65.1873 25.7711 66.3357 25.5 67.5 25.5C68.6643 25.5 69.8127 25.7711 70.8541 26.2918C71.8955 26.8125 72.8014 27.5685 73.5 28.5" stroke="white" stroke-width="2" stroke-linecap="round" stroke-linejoin="round"></path> <path d="M67.5 12.5C69.7091 12.5 71.5 10.7091 71.5 8.5C71.5 6.29086 69.7091 4.5 67.5 4.5C65.2909 4.5 63.5 6.29086 63.5 8.5C63.5 10.7091 65.2909 12.5 67.5 12.5Z" stroke="white" stroke-width="2" stroke-linecap="round" stroke-linejoin="round"></path> <path d="M61.5 15.5C62.1986 14.5685 63.1045 13.8125 64.1459 13.2918C65.1873 12.7711 66.3357 12.5 67.5 12.5C68.6643 12.5 69.8127 12.7711 70.8541 13.2918C71.8955 13.8125 72.8014 14.5685 73.5 15.5" stroke="white" stroke-width="2" stroke-linecap="round" stroke-linejoin="round"></path> <path d="M19.4642 56.5H20.2562V53.212H22.1402C24.0122 53.212 24.9122 52.204 24.9122 50.656C24.9122 49.084 24.0482 48.1 22.1762 48.1H19.4642V56.5ZM20.2562 52.528V48.784H22.1762C23.5202 48.784 24.0602 49.42 24.0602 50.656C24.0602 51.856 23.4842 52.528 22.1402 52.528H20.2562ZM27.7558 56.596C28.5118 56.596 29.4238 56.368 30.0718 55.528H30.1198V56.5H30.8518V52.564C30.8518 50.908 29.9638 50.248 28.3558 50.248C27.5758 50.248 26.8078 50.416 26.2918 50.596V51.292C26.9398 51.004 27.7438 50.896 28.3318 50.896C29.5318 50.896 30.0958 51.304 30.0958 52.564V52.72L29.2438 52.744C26.8078 52.816 25.7998 53.584 25.7998 54.808C25.7998 55.756 26.4478 56.596 27.7558 56.596ZM27.9718 55.96C27.0598 55.96 26.5918 55.492 26.5918 54.796C26.5918 53.992 27.2158 53.44 29.2438 53.38L30.0958 53.356V53.86C30.0958 55.084 29.2798 55.96 27.9718 55.96ZM37.6872 51.94C37.6872 51.076 37.0752 50.344 35.7792 50.344H33.0552V56.5H35.8632C36.1272 56.5 37.9392 56.44 37.9392 54.808C37.9392 54.016 37.4592 53.44 36.7752 53.236V53.224C37.3752 52.936 37.6872 52.528 37.6872 51.94ZM33.8112 55.864V53.644H35.6832C36.7512 53.644 37.1472 54.184 37.1472 54.772C37.1472 55.336 36.7632 55.864 35.8032 55.864H33.8112ZM33.8112 53.008V50.98H35.7312C36.7152 50.98 36.9312 51.604 36.9192 52.048C36.8832 52.972 35.9472 53.008 35.6112 53.008H33.8112ZM39.6177 56.5H40.3737V53.62H43.9737V56.5H44.7297V50.344H43.9737V52.984H40.3737V50.344H39.6177V56.5ZM49.5579 56.596C51.3699 56.596 52.5819 55.336 52.5819 53.428C52.5819 51.508 51.3819 50.248 49.5579 50.248C47.7339 50.248 46.5339 51.508 46.5339 53.428C46.5339 55.336 47.7459 56.596 49.5579 56.596ZM49.5579 55.96C47.9979 55.96 47.3259 54.616 47.3259 53.428C47.3259 52.228 47.9979 50.884 49.5579 50.884C51.1179 50.884 51.7899 52.228 51.7899 53.428C51.7899 54.616 51.1179 55.96 49.5579 55.96ZM54.3833 56.5H55.1393V50.98H58.6193V56.5H59.3753V50.344H54.3833V56.5ZM62.3346 55.408H62.3586C62.7546 56.08 63.5346 56.596 64.5546 56.596C66.2106 56.596 67.3386 55.396 67.3386 53.428C67.3386 51.496 66.1266 50.248 64.4826 50.248C63.4746 50.248 62.8266 50.728 62.3586 51.304H62.3106V50.344H61.5786V59.14H62.3346V55.408ZM64.4706 55.96C63.5346 55.96 62.3226 55.264 62.3226 53.44C62.3226 51.952 63.1986 50.884 64.4586 50.884C65.6946 50.884 66.5466 51.952 66.5466 53.44C66.5466 55.024 65.6106 55.96 64.4706 55.96ZM70.4706 56.596C71.2266 56.596 72.1386 56.368 72.7866 55.528H72.8346V56.5H73.5666V52.564C73.5666 50.908 72.6786 50.248 71.0706 50.248C70.2906 50.248 69.5226 50.416 69.0066 50.596V51.292C69.6546 51.004 70.4586 50.896 71.0466 50.896C72.2466 50.896 72.8106 51.304 72.8106 52.564V52.72L71.9586 52.744C69.5226 52.816 68.5146 53.584 68.5146 54.808C68.5146 55.756 69.1626 56.596 70.4706 56.596ZM70.6866 55.96C69.7746 55.96 69.3066 55.492 69.3066 54.796C69.3066 53.992 69.9306 53.44 71.9586 53.38L72.8106 53.356V53.86C72.8106 55.084 71.9946 55.96 70.6866 55.96ZM80.402 51.94C80.402 51.076 79.79 50.344 78.494 50.344H75.77V56.5H78.578C78.842 56.5 80.654 56.44 80.654 54.808C80.654 54.016 80.174 53.44 79.49 53.236V53.224C80.09 52.936 80.402 52.528 80.402 51.94ZM76.526 55.864V53.644H78.398C79.466 53.644 79.862 54.184 79.862 54.772C79.862 55.336 79.478 55.864 78.518 55.864H76.526ZM76.526 53.008V50.98H78.446C79.43 50.98 79.646 51.604 79.634 52.048C79.598 52.972 78.662 53.008 78.326 53.008H76.526ZM82.3325 56.5H83.0885V53.62H86.6885V56.5H87.4445V50.344H86.6885V52.984H83.0885V50.344H82.3325V56.5ZM89.6567 56.5H91.9847C93.6647 56.5 94.3847 55.756 94.3847 54.52C94.3847 53.284 93.6647 52.54 91.9847 52.54H90.4127V50.344H89.6567V56.5ZM90.4127 55.864V53.176H91.9847C93.1127 53.176 93.5927 53.68 93.5927 54.52C93.5927 55.36 93.1127 55.864 91.9847 55.864H90.4127ZM95.9927 56.5H96.7487V50.344H95.9927V56.5ZM104.073 53.644V53.404C104.073 52.336 103.893 50.248 101.433 50.248C99.7534 50.248 98.5534 51.388 98.5534 53.32C98.5534 55.432 99.7654 56.596 101.745 56.596C102.321 56.596 102.945 56.524 103.629 56.26V55.564C102.957 55.876 102.309 55.96 101.769 55.96C100.209 55.96 99.4054 55.072 99.3094 53.644H104.073ZM101.433 50.884C103.197 50.884 103.293 52.516 103.281 53.008H99.3214C99.4294 51.688 100.233 50.884 101.433 50.884ZM13.5414 72.596C13.9734 72.596 14.3574 72.548 14.8494 72.356V71.684C14.4174 71.852 13.9854 71.96 13.5294 71.96C12.1014 71.96 11.2614 71 11.2614 69.368C11.2614 67.844 12.0534 66.884 13.4574 66.884C14.0934 66.884 14.5854 67.052 14.8014 67.1V66.428C14.1654 66.248 13.7094 66.248 13.5174 66.248C11.5734 66.248 10.4694 67.484 10.4694 69.344C10.4694 71.312 11.5254 72.596 13.5414 72.596ZM19.2591 72.596C21.0711 72.596 22.2831 71.336 22.2831 69.428C22.2831 67.508 21.0831 66.248 19.2591 66.248C17.4351 66.248 16.2351 67.508 16.2351 69.428C16.2351 71.336 17.4471 72.596 19.2591 72.596ZM19.2591 71.96C17.6991 71.96 17.0271 70.616 17.0271 69.428C17.0271 68.228 17.6991 66.884 19.2591 66.884C20.8191 66.884 21.4911 68.228 21.4911 69.428C21.4911 70.616 20.8191 71.96 19.2591 71.96ZM23.6765 68.348C23.6765 70.88 24.5045 72.596 26.7965 72.596C28.5605 72.596 29.7245 71.384 29.7245 69.476C29.7245 67.268 28.3805 66.248 26.8685 66.248C25.7765 66.248 24.8765 66.788 24.3845 67.604H24.3485C24.4685 65.792 25.1885 64.484 26.9525 64.16C27.4565 64.052 28.1405 64.004 29.1485 63.86V63.212C28.1405 63.392 27.4685 63.44 26.9525 63.524C24.5885 63.908 23.6765 65.732 23.6765 68.348ZM26.7725 71.96C25.5365 71.96 24.4925 71.084 24.4925 69.404C24.4925 67.7 25.5965 66.884 26.7845 66.884C27.9125 66.884 28.9325 67.736 28.9325 69.476C28.9325 71.144 27.9125 71.96 26.7725 71.96ZM31.5259 72.5H33.8539C35.5339 72.5 36.2539 71.756 36.2539 70.52C36.2539 69.284 35.5339 68.54 33.8539 68.54H32.2819V66.344H31.5259V72.5ZM32.2819 71.864V69.176H33.8539C34.9819 69.176 35.4619 69.68 35.4619 70.52C35.4619 71.36 34.9819 71.864 33.8539 71.864H32.2819ZM37.8619 72.5H38.6179V66.344H37.8619V72.5ZM42.2346 72.5H42.9786V66.98H45.1506V66.344H40.0626V66.98H42.2346V72.5ZM46.5962 72.5H47.4362L50.9882 67.34H51.0242L51.0122 72.5H51.7682V66.344H50.9282L47.3762 71.504H47.3402L47.3522 66.344H46.5962V72.5ZM53.427 72.5H54.339L55.659 70.124C55.755 70.136 55.851 70.136 55.947 70.136H57.735V72.5H58.491V66.344H55.947C54.387 66.344 53.667 67.052 53.667 68.24C53.667 69.188 54.159 69.74 54.891 69.98L53.427 72.5ZM55.947 69.5C54.939 69.5 54.459 69.032 54.459 68.24C54.459 67.448 54.939 66.98 55.947 66.98H57.735V69.5H55.947ZM63.4595 72.5H64.2155V69.62H67.8155V72.5H68.5715V66.344H67.8155V68.984H64.2155V66.344H63.4595V72.5ZM72.1757 72.596C72.9317 72.596 73.8437 72.368 74.4917 71.528H74.5397V72.5H75.2717V68.564C75.2717 66.908 74.3837 66.248 72.7757 66.248C71.9957 66.248 71.2277 66.416 70.7117 66.596V67.292C71.3597 67.004 72.1637 66.896 72.7517 66.896C73.9517 66.896 74.5157 67.304 74.5157 68.564V68.72L73.6637 68.744C71.2277 68.816 70.2197 69.584 70.2197 70.808C70.2197 71.756 70.8677 72.596 72.1757 72.596ZM72.3917 71.96C71.4797 71.96 71.0117 71.492 71.0117 70.796C71.0117 69.992 71.6357 69.44 73.6637 69.38L74.5157 69.356V69.86C74.5157 71.084 73.6997 71.96 72.3917 71.96ZM81.8007 72.5H82.5927V64.1H81.8607L79.3887 65.984L79.8207 66.536L81.8007 65.024V72.5ZM87.6614 72.596C89.3174 72.596 90.5414 71.396 90.5414 68.3C90.5414 65.204 89.3174 64.004 87.6614 64.004C86.0054 64.004 84.7814 65.204 84.7814 68.3C84.7814 71.396 86.0054 72.596 87.6614 72.596ZM87.6614 71.876C86.4734 71.876 85.5974 71.024 85.5974 68.3C85.5974 65.576 86.4734 64.724 87.6614 64.724C88.8494 64.724 89.7254 65.576 89.7254 68.3C89.7254 71.024 88.8494 71.876 87.6614 71.876ZM95.1028 72.596C96.7588 72.596 97.9828 71.396 97.9828 68.3C97.9828 65.204 96.7588 64.004 95.1028 64.004C93.4468 64.004 92.2228 65.204 92.2228 68.3C92.2228 71.396 93.4468 72.596 95.1028 72.596ZM95.1028 71.876C93.9148 71.876 93.0388 71.024 93.0388 68.3C93.0388 65.576 93.9148 64.724 95.1028 64.724C96.2908 64.724 97.1668 65.576 97.1668 68.3C97.1668 71.024 96.2908 71.876 95.1028 71.876ZM102.544 72.596C104.2 72.596 105.424 71.396 105.424 68.3C105.424 65.204 104.2 64.004 102.544 64.004C100.888 64.004 99.6642 65.204 99.6642 68.3C99.6642 71.396 100.888 72.596 102.544 72.596ZM102.544 71.876C101.356 71.876 100.48 71.024 100.48 68.3C100.48 65.576 101.356 64.724 102.544 64.724C103.732 64.724 104.608 65.576 104.608 68.3C104.608 71.024 103.732 71.876 102.544 71.876ZM109.41 71.18H110.082V68.636H112.626V67.964H110.082V65.42H109.41V67.964H106.866V68.636H109.41V71.18Z" fill="#EBEDF0"></path> </g> <defs> <clipPath id="clip0_196_7546"> <rect width="123" height="76" fill="white" transform="translate(0 0.5)"></rect> </clipPath> </defs> </svg> 