<?xml version="1.0" encoding="UTF-8"?> <svg xmlns="http://www.w3.org/2000/svg" width="42" height="32" viewBox="0 0 42 32" fill="none"> <g clip-path="url(#clip0_830_2407)"> <path fill-rule="evenodd" clip-rule="evenodd" d="M4.60962 7H24.4534C25.344 7 26.0986 7.58215 26.3576 8.38669C26.4714 8.37894 26.5863 8.375 26.7021 8.375H28.4048C28.1048 6.46273 26.4499 5 24.4534 5H4.60962C2.40048 5 0.609619 6.79086 0.609619 9V24.625C0.609619 26.8341 2.40048 28.625 4.60962 28.625H21.7021V26.625H4.60962C3.50505 26.625 2.60962 25.7296 2.60962 24.625V9C2.60962 7.89543 3.50505 7 4.60962 7Z" fill="white"></path> <path fill-rule="evenodd" clip-rule="evenodd" d="M26.5457 11.2188H32.8894C33.994 11.2188 34.8894 12.1142 34.8894 13.2188V13.548C35.1902 13.4758 35.5042 13.4375 35.8271 13.4375H36.8894V13.2188C36.8894 11.0096 35.0985 9.21875 32.8894 9.21875H26.5457C24.3365 9.21875 22.5457 11.0096 22.5457 13.2188V28C22.5457 30.2091 24.3365 32 26.5457 32H32.8894C33.0411 32 33.1907 31.9916 33.338 31.9751C32.7092 31.4746 32.2345 30.7887 31.9968 30H26.5457C25.4411 30 24.5457 29.1046 24.5457 28V13.2188C24.5457 12.1142 25.4411 11.2188 26.5457 11.2188Z" fill="white"></path> <rect x="33.6721" y="15.3103" width="7.28125" height="15.6897" rx="2" stroke="white" stroke-width="2"></rect> <rect x="6.51587" y="30.1379" width="15.1875" height="1.86207" rx="0.931035" fill="#EBEDF0"></rect> </g> <defs> <clipPath id="clip0_830_2407"> <rect width="41" height="32" fill="white" transform="translate(0.890869)"></rect> </clipPath> </defs> </svg> 