<?xml version="1.0" encoding="UTF-8"?> <svg xmlns="http://www.w3.org/2000/svg" width="79" height="19" viewBox="0 0 79 19" fill="none"> <path d="M78.4838 0.0764841H75.2979C75.1637 0.0764841 75.0349 0.130155 74.94 0.225691C74.8451 0.321227 74.7918 0.450802 74.7918 0.58591V12.2365H74.6906L74.1844 11.5284L64.6217 0.254783C64.5755 0.198585 64.5175 0.153433 64.4518 0.122595C64.3862 0.0917565 64.3146 0.0760048 64.2421 0.0764841H60.7829C60.6487 0.0764841 60.5199 0.130155 60.425 0.225691C60.3301 0.321227 60.2768 0.450802 60.2768 0.58591V18.4005C60.2768 18.5357 60.3301 18.6652 60.425 18.7608C60.5199 18.8563 60.6487 18.91 60.7829 18.91H63.9713C64.1056 18.91 64.2343 18.8563 64.3292 18.7608C64.4241 18.6652 64.4774 18.5357 64.4774 18.4005V6.74997H64.5787L65.0848 7.45552L74.6551 18.7291C74.7026 18.7842 74.7613 18.8285 74.8272 18.8588C74.8931 18.8891 74.9648 18.9048 75.0372 18.9049H78.4939C78.6281 18.9049 78.7569 18.8512 78.8518 18.7557C78.9467 18.6601 79 18.5306 79 18.3954V0.583365C78.9997 0.515814 78.986 0.449003 78.9598 0.386819C78.9336 0.324634 78.8954 0.268317 78.8473 0.221148C78.7993 0.173978 78.7424 0.136898 78.68 0.112062C78.6176 0.0872265 78.5509 0.0751323 78.4838 0.0764841Z" fill="#EBEDF0"></path> <path d="M9.47421 0.0763821H0.506101C0.371874 0.0763821 0.243145 0.130053 0.148233 0.225589C0.0533208 0.321125 0 0.4507 0 0.585808V18.4004C0 18.5356 0.0533208 18.6651 0.148233 18.7607C0.243145 18.8562 0.371874 18.9099 0.506101 18.9099H9.6564C12.1044 18.9071 14.454 17.9393 16.2017 16.2139C17.9495 14.4885 18.9563 12.1427 19.0066 9.67906C19.1053 4.39632 14.7149 0.0763821 9.47421 0.0763821ZM9.28189 14.9618H4.66625C4.53202 14.9618 4.40329 14.9081 4.30838 14.8126C4.21347 14.7171 4.16015 14.5875 4.16015 14.4524V4.53386C4.16015 4.39875 4.21347 4.26918 4.30838 4.17364C4.40329 4.07811 4.53202 4.02444 4.66625 4.02444H9.65894C12.6348 4.02444 14.7857 6.43657 14.8186 9.42435C14.849 12.4682 12.3058 14.9618 9.27936 14.9618H9.28189Z" fill="#EBEDF0"></path> <path d="M58.0813 9.49874C58.0813 4.25467 53.9494 0.00503511 48.8497 0H46.7812C41.6764 0 37.5396 4.25216 37.5396 9.49874C37.5396 14.7453 41.6839 19 46.7812 19H48.8747C53.9645 18.9773 58.0813 14.7327 58.0813 9.49874ZM48.8271 15.0374H46.7712C43.8049 15.0374 41.6714 12.5651 41.6714 9.51637C41.6714 6.4676 43.8049 3.99536 46.7712 3.99536H48.8271C51.796 3.99536 53.9294 6.4676 53.9294 9.51637C53.9294 12.5651 51.806 15.0399 48.8372 15.0399L48.8271 15.0374Z" fill="#EBEDF0"></path> <path d="M24.1962 4.02447H20.2271C20.0942 4.02447 19.9667 3.9708 19.8727 3.87527C19.7787 3.77973 19.7259 3.65016 19.7259 3.51505V0.593489C19.7259 0.458381 19.7787 0.328806 19.8727 0.23327C19.9667 0.137734 20.0942 0.0840627 20.2271 0.0840627H27.5388C27.612 0.0831038 27.6844 0.0984326 27.7511 0.128969C27.8178 0.159505 27.8771 0.204508 27.9249 0.260822C27.9726 0.317136 28.0077 0.383396 28.0276 0.454947C28.0475 0.526497 28.0517 0.601606 28.04 0.674999C27.8997 1.6085 27.4346 2.45988 26.7293 3.07449C26.024 3.6891 25.1252 4.02617 24.1962 4.02447Z" fill="#EBEDF0"></path> <path d="M25.9839 14.4677V9.51095C25.9839 7.01145 26.9703 4.61432 28.7262 2.8469C30.4821 1.07949 32.8635 0.0865664 35.3467 0.0865664H35.8807C36.0149 0.0865664 36.1436 0.140241 36.2385 0.235777C36.3334 0.331313 36.3868 0.460884 36.3868 0.595993V3.51501C36.3868 3.65011 36.3334 3.77969 36.2385 3.87523C36.1436 3.97076 36.0149 4.02443 35.8807 4.02443H30.6754C30.5412 4.02443 30.4125 4.0781 30.3175 4.17364C30.2226 4.26918 30.1693 4.39875 30.1693 4.53386V9.47784C30.1693 11.9773 29.1829 14.3745 27.427 16.1419C25.6711 17.9093 23.2896 18.9022 20.8064 18.9022H20.2447C20.1104 18.9022 19.9817 18.8486 19.8868 18.753C19.7919 18.6575 19.7386 18.5279 19.7386 18.3928V15.4661C19.7386 15.331 19.7919 15.2015 19.8868 15.1059C19.9817 15.0104 20.1104 14.9567 20.2447 14.9567H25.4853C25.6148 14.9549 25.7387 14.9031 25.8314 14.8122C25.9241 14.7212 25.9787 14.5979 25.9839 14.4677Z" fill="#EBEDF0"></path> <path d="M31.9116 14.9582H35.8608C35.9944 14.9582 36.1225 15.0118 36.217 15.1074C36.3115 15.2029 36.3645 15.3325 36.3645 15.4676V18.3993C36.3645 18.5344 36.3115 18.664 36.217 18.7596C36.1225 18.8551 35.9944 18.9088 35.8608 18.9088H28.5568C28.4833 18.9097 28.4104 18.8944 28.3434 18.8639C28.2764 18.8333 28.2168 18.7883 28.1687 18.732C28.1207 18.6757 28.0855 18.6094 28.0655 18.5379C28.0455 18.4663 28.0413 18.3912 28.053 18.3178C28.1923 17.3836 28.6582 16.5308 29.3662 15.9143C30.0742 15.2978 30.9773 14.9586 31.9116 14.9582Z" fill="#EBEDF0"></path> </svg> 