<?xml version="1.0" encoding="UTF-8"?> <svg xmlns="http://www.w3.org/2000/svg" width="147" height="76" viewBox="0 0 147 76" fill="none"> <g clip-path="url(#clip0_196_7696)"> <g clip-path="url(#clip1_196_7696)"> <path d="M69.8335 9.33331L76.5002 16L69.8335 22.6666" stroke="white" stroke-width="2" stroke-linecap="round" stroke-linejoin="round"></path> <path d="M61.5352 9.33331L68.2018 16L61.5352 22.6666" stroke="white" stroke-width="2" stroke-linecap="round" stroke-linejoin="round"></path> <path d="M77.8335 9.33331L84.5002 16L77.8335 22.6666" stroke="white" stroke-width="2" stroke-linecap="round" stroke-linejoin="round"></path> </g> <path d="M1.78064 56H2.57264V52.712H4.45664C6.32864 52.712 7.22864 51.704 7.22864 50.156C7.22864 48.584 6.36464 47.6 4.49264 47.6H1.78064V56ZM2.57264 52.028V48.284H4.49264C5.83664 48.284 6.37664 48.92 6.37664 50.156C6.37664 51.356 5.80064 52.028 4.45664 52.028H2.57264ZM13.7922 53.144V52.904C13.7922 51.836 13.6122 49.748 11.1522 49.748C9.47217 49.748 8.27217 50.888 8.27217 52.82C8.27217 54.932 9.48417 56.096 11.4642 56.096C12.0402 56.096 12.6642 56.024 13.3482 55.76V55.064C12.6762 55.376 12.0282 55.46 11.4882 55.46C9.92817 55.46 9.12417 54.572 9.02817 53.144H13.7922ZM11.1522 50.384C12.9162 50.384 13.0122 52.016 13.0002 52.508H9.04017C9.14817 51.188 9.95217 50.384 11.1522 50.384ZM18.2465 56.096C18.6785 56.096 19.0625 56.048 19.5545 55.856V55.184C19.1225 55.352 18.6905 55.46 18.2345 55.46C16.8065 55.46 15.9665 54.5 15.9665 52.868C15.9665 51.344 16.7585 50.384 18.1625 50.384C18.7985 50.384 19.2905 50.552 19.5065 50.6V49.928C18.8705 49.748 18.4145 49.748 18.2225 49.748C16.2785 49.748 15.1745 50.984 15.1745 52.844C15.1745 54.812 16.2305 56.096 18.2465 56.096ZM22.1479 58.64C22.9999 58.64 23.3479 58.016 23.6359 57.308L26.6719 49.844H25.8679L23.7559 55.148H23.7079L21.5839 49.844H20.7679L23.3119 56.168L22.9039 57.164C22.6399 57.812 22.4119 57.956 22.0519 57.956C21.7399 57.956 21.4639 57.848 21.4639 57.848V58.532C21.4759 58.532 21.8119 58.64 22.1479 58.64ZM28.8776 54.908H28.9016C29.2976 55.58 30.0776 56.096 31.0976 56.096C32.7536 56.096 33.8816 54.896 33.8816 52.928C33.8816 50.996 32.6696 49.748 31.0256 49.748C30.0176 49.748 29.3696 50.228 28.9016 50.804H28.8536V49.844H28.1216V58.64H28.8776V54.908ZM31.0136 55.46C30.0776 55.46 28.8656 54.764 28.8656 52.94C28.8656 51.452 29.7416 50.384 31.0016 50.384C32.2376 50.384 33.0896 51.452 33.0896 52.94C33.0896 54.524 32.1536 55.46 31.0136 55.46ZM38.3442 56.096C38.7762 56.096 39.1602 56.048 39.6522 55.856V55.184C39.2202 55.352 38.7882 55.46 38.3322 55.46C36.9042 55.46 36.0642 54.5 36.0642 52.868C36.0642 51.344 36.8562 50.384 38.2602 50.384C38.8962 50.384 39.3882 50.552 39.6042 50.6V49.928C38.9682 49.748 38.5122 49.748 38.3202 49.748C36.3762 49.748 35.2722 50.984 35.2722 52.844C35.2722 54.812 36.3282 56.096 38.3442 56.096ZM41.5044 56H43.8324C45.5124 56 46.2324 55.256 46.2324 54.02C46.2324 52.784 45.5124 52.04 43.8324 52.04H42.2604V49.844H41.5044V56ZM42.2604 55.364V52.676H43.8324C44.9604 52.676 45.4404 53.18 45.4404 54.02C45.4404 54.86 44.9604 55.364 43.8324 55.364H42.2604ZM47.8404 56H48.5964V49.844H47.8404V56ZM54.9787 56H55.7227V50.48H57.8947V49.844H52.8067V50.48H54.9787V56ZM60.0963 54.908H60.1203C60.5163 55.58 61.2963 56.096 62.3163 56.096C63.9723 56.096 65.1003 54.896 65.1003 52.928C65.1003 50.996 63.8883 49.748 62.2443 49.748C61.2363 49.748 60.5883 50.228 60.1203 50.804H60.0723V49.844H59.3403V58.64H60.0963V54.908ZM62.2323 55.46C61.2963 55.46 60.0843 54.764 60.0843 52.94C60.0843 51.452 60.9603 50.384 62.2203 50.384C63.4563 50.384 64.3083 51.452 64.3083 52.94C64.3083 54.524 63.3723 55.46 62.2323 55.46ZM68.2323 56.096C68.9883 56.096 69.9003 55.868 70.5483 55.028H70.5963V56H71.3283V52.064C71.3283 50.408 70.4403 49.748 68.8323 49.748C68.0523 49.748 67.2843 49.916 66.7683 50.096V50.792C67.4163 50.504 68.2203 50.396 68.8083 50.396C70.0083 50.396 70.5723 50.804 70.5723 52.064V52.22L69.7203 52.244C67.2843 52.316 66.2763 53.084 66.2763 54.308C66.2763 55.256 66.9243 56.096 68.2323 56.096ZM68.4483 55.46C67.5363 55.46 67.0683 54.992 67.0683 54.296C67.0683 53.492 67.6923 52.94 69.7203 52.88L70.5723 52.856V53.36C70.5723 54.584 69.7563 55.46 68.4483 55.46ZM74.9357 56H75.6797V50.48H77.8517V49.844H72.7637V50.48H74.9357V56ZM78.7454 56H79.6574L80.9774 53.624C81.0734 53.636 81.1694 53.636 81.2654 53.636H83.0534V56H83.8094V49.844H81.2654C79.7054 49.844 78.9854 50.552 78.9854 51.74C78.9854 52.688 79.4774 53.24 80.2094 53.48L78.7454 56ZM81.2654 53C80.2574 53 79.7774 52.532 79.7774 51.74C79.7774 50.948 80.2574 50.48 81.2654 50.48H83.0534V53H81.2654ZM87.4162 56H88.1602V50.48H90.3322V49.844H85.2442V50.48H87.4162V56ZM94.266 56.096C94.698 56.096 95.082 56.048 95.574 55.856V55.184C95.142 55.352 94.71 55.46 94.254 55.46C92.826 55.46 91.986 54.5 91.986 52.868C91.986 51.344 92.778 50.384 94.182 50.384C94.818 50.384 95.31 50.552 95.526 50.6V49.928C94.89 49.748 94.434 49.748 94.242 49.748C92.298 49.748 91.194 50.984 91.194 52.844C91.194 54.812 92.25 56.096 94.266 56.096ZM96.9329 56H97.8449L99.1649 53.624C99.2609 53.636 99.3569 53.636 99.4529 53.636H101.241V56H101.997V49.844H99.4529C97.8929 49.844 97.1729 50.552 97.1729 51.74C97.1729 52.688 97.6649 53.24 98.3969 53.48L96.9329 56ZM99.4529 53C98.4449 53 97.9649 52.532 97.9649 51.74C97.9649 50.948 98.4449 50.48 99.4529 50.48H101.241V53H99.4529ZM108.369 56H109.113V50.48H111.285V49.844H106.197V50.48H108.369V56ZM115.171 56.096C116.983 56.096 118.195 54.836 118.195 52.928C118.195 51.008 116.995 49.748 115.171 49.748C113.347 49.748 112.147 51.008 112.147 52.928C112.147 54.836 113.359 56.096 115.171 56.096ZM115.171 55.46C113.611 55.46 112.939 54.116 112.939 52.928C112.939 51.728 113.611 50.384 115.171 50.384C116.731 50.384 117.403 51.728 117.403 52.928C117.403 54.116 116.731 55.46 115.171 55.46ZM119.541 56.096C120.585 56.096 121.269 55.4 121.269 51.32V50.48H124.113V56H124.869V49.844H120.513V51.32C120.513 54.992 119.997 55.412 119.409 55.412C119.121 55.412 118.953 55.352 118.953 55.352V56.036C118.953 56.036 119.241 56.096 119.541 56.096ZM127.075 56H129.595C131.275 56 131.995 55.256 131.995 54.02C131.995 52.784 131.275 52.04 129.595 52.04H127.831V49.844H127.075V56ZM129.595 52.676C130.723 52.676 131.203 53.18 131.203 54.02C131.203 54.86 130.723 55.364 129.595 55.364H127.831V52.676H129.595ZM133.438 56H134.194V53.144H135.922L137.938 56H138.874L136.594 52.784L138.67 49.844H137.758L135.886 52.508H134.194V49.844H133.438V56ZM142.722 56.096C144.534 56.096 145.746 54.836 145.746 52.928C145.746 51.008 144.546 49.748 142.722 49.748C140.898 49.748 139.698 51.008 139.698 52.928C139.698 54.836 140.91 56.096 142.722 56.096ZM142.722 55.46C141.162 55.46 140.49 54.116 140.49 52.928C140.49 51.728 141.162 50.384 142.722 50.384C144.282 50.384 144.954 51.728 144.954 52.928C144.954 54.116 144.282 55.46 142.722 55.46ZM16.2856 72H17.0416V69.12H20.6416V72H21.3976V65.844H20.6416V68.484H17.0416V65.844H16.2856V72ZM25.0019 72.096C25.7579 72.096 26.6699 71.868 27.3179 71.028H27.3659V72H28.0979V68.064C28.0979 66.408 27.2099 65.748 25.6019 65.748C24.8219 65.748 24.0539 65.916 23.5379 66.096V66.792C24.1859 66.504 24.9899 66.396 25.5779 66.396C26.7779 66.396 27.3419 66.804 27.3419 68.064V68.22L26.4899 68.244C24.0539 68.316 23.0459 69.084 23.0459 70.308C23.0459 71.256 23.6939 72.096 25.0019 72.096ZM25.2179 71.46C24.3059 71.46 23.8379 70.992 23.8379 70.296C23.8379 69.492 24.4619 68.94 26.4899 68.88L27.3419 68.856V69.36C27.3419 70.584 26.5259 71.46 25.2179 71.46ZM33.0669 72H33.8229V66.48H36.7629V65.844H33.0669V72ZM37.5914 72.096C38.6354 72.096 39.3194 71.4 39.3194 67.32V66.48H42.1634V72H42.9194V65.844H38.5634V67.32C38.5634 70.992 38.0474 71.412 37.4594 71.412C37.1714 71.412 37.0034 71.352 37.0034 71.352V72.036C37.0034 72.036 37.2914 72.096 37.5914 72.096ZM46.5175 72.096C47.2735 72.096 48.1855 71.868 48.8335 71.028H48.8815V72H49.6135V68.064C49.6135 66.408 48.7255 65.748 47.1175 65.748C46.3375 65.748 45.5695 65.916 45.0535 66.096V66.792C45.7015 66.504 46.5055 66.396 47.0935 66.396C48.2935 66.396 48.8575 66.804 48.8575 68.064V68.22L48.0055 68.244C45.5695 68.316 44.5615 69.084 44.5615 70.308C44.5615 71.256 45.2095 72.096 46.5175 72.096ZM46.7335 71.46C45.8215 71.46 45.3535 70.992 45.3535 70.296C45.3535 69.492 45.9775 68.94 48.0055 68.88L48.8575 68.856V69.36C48.8575 70.584 48.0415 71.46 46.7335 71.46ZM56.4489 67.44C56.4489 66.576 55.8369 65.844 54.5409 65.844H51.8169V72H54.6249C54.8889 72 56.7009 71.94 56.7009 70.308C56.7009 69.516 56.2209 68.94 55.5369 68.736V68.724C56.1369 68.436 56.4489 68.028 56.4489 67.44ZM52.5729 71.364V69.144H54.4449C55.5129 69.144 55.9089 69.684 55.9089 70.272C55.9089 70.836 55.5249 71.364 54.5649 71.364H52.5729ZM52.5729 68.508V66.48H54.4929C55.4769 66.48 55.6929 67.104 55.6809 67.548C55.6449 68.472 54.7089 68.508 54.3729 68.508H52.5729ZM58.3794 72H59.1354V69.12H62.7354V72H63.4914V65.844H62.7354V68.484H59.1354V65.844H58.3794V72ZM65.7036 72H68.0316C69.7116 72 70.4316 71.256 70.4316 70.02C70.4316 68.784 69.7116 68.04 68.0316 68.04H66.4596V65.844H65.7036V72ZM66.4596 71.364V68.676H68.0316C69.1596 68.676 69.6396 69.18 69.6396 70.02C69.6396 70.86 69.1596 71.364 68.0316 71.364H66.4596ZM72.0396 72H72.7956V65.844H72.0396V72ZM75.0083 72H75.8483L79.4003 66.84H79.4363L79.4243 72H80.1803V65.844H79.3403L75.7883 71.004H75.7523L75.7643 65.844H75.0083V72ZM77.6003 64.632C78.5483 64.632 79.4003 64.152 79.4603 62.988H78.8123C78.7283 63.732 78.2603 64.032 77.6003 64.032C76.9643 64.032 76.4963 63.732 76.4123 62.988H75.7403C75.8003 64.152 76.6523 64.632 77.6003 64.632ZM85.1567 72H85.9127V66.48H89.3927V72H90.1487V65.844H85.1567V72ZM93.108 70.908H93.132C93.528 71.58 94.308 72.096 95.328 72.096C96.984 72.096 98.112 70.896 98.112 68.928C98.112 66.996 96.9 65.748 95.256 65.748C94.248 65.748 93.6 66.228 93.132 66.804H93.084V65.844H92.352V74.64H93.108V70.908ZM95.244 71.46C94.308 71.46 93.096 70.764 93.096 68.94C93.096 67.452 93.972 66.384 95.232 66.384C96.468 66.384 97.32 67.452 97.32 68.94C97.32 70.524 96.384 71.46 95.244 71.46ZM102.527 72.096C104.339 72.096 105.551 70.836 105.551 68.928C105.551 67.008 104.351 65.748 102.527 65.748C100.703 65.748 99.5026 67.008 99.5026 68.928C99.5026 70.836 100.715 72.096 102.527 72.096ZM102.527 71.46C100.967 71.46 100.295 70.116 100.295 68.928C100.295 67.728 100.967 66.384 102.527 66.384C104.087 66.384 104.759 67.728 104.759 68.928C104.759 70.116 104.087 71.46 102.527 71.46ZM112.428 73.656H113.184V71.364H112.248V65.844H111.492V71.364H108.108V65.844H107.352V72H112.428V73.656ZM119.542 69.144V68.904C119.542 67.836 119.362 65.748 116.902 65.748C115.222 65.748 114.022 66.888 114.022 68.82C114.022 70.932 115.234 72.096 117.214 72.096C117.79 72.096 118.414 72.024 119.098 71.76V71.064C118.426 71.376 117.778 71.46 117.238 71.46C115.678 71.46 114.874 70.572 114.778 69.144H119.542ZM116.902 66.384C118.666 66.384 118.762 68.016 118.75 68.508H114.79C114.898 67.188 115.702 66.384 116.902 66.384ZM123.997 72.096C124.429 72.096 124.813 72.048 125.305 71.856V71.184C124.873 71.352 124.441 71.46 123.985 71.46C122.557 71.46 121.717 70.5 121.717 68.868C121.717 67.344 122.509 66.384 123.913 66.384C124.549 66.384 125.041 66.552 125.257 66.6V65.928C124.621 65.748 124.165 65.748 123.973 65.748C122.029 65.748 120.925 66.984 120.925 68.844C120.925 70.812 121.981 72.096 123.997 72.096ZM129.762 72.096C130.194 72.096 130.578 72.048 131.07 71.856V71.184C130.638 71.352 130.206 71.46 129.75 71.46C128.322 71.46 127.482 70.5 127.482 68.868C127.482 67.344 128.274 66.384 129.678 66.384C130.314 66.384 130.806 66.552 131.022 66.6V65.928C130.386 65.748 129.93 65.748 129.738 65.748C127.794 65.748 126.69 66.984 126.69 68.844C126.69 70.812 127.746 72.096 129.762 72.096Z" fill="#EBEDF0"></path> </g> <defs> <clipPath id="clip0_196_7696"> <rect width="146" height="76" fill="white" transform="translate(0.5)"></rect> </clipPath> <clipPath id="clip1_196_7696"> <rect width="32" height="32" fill="white" transform="translate(57.5)"></rect> </clipPath> </defs> </svg> 