<?xml version="1.0" encoding="UTF-8"?> <svg xmlns="http://www.w3.org/2000/svg" width="32" height="32" viewBox="0 0 32 32" fill="none"> <path fill-rule="evenodd" clip-rule="evenodd" d="M8.843 6C6.16829 6 4 8.15121 4 10.8049V17.2864C4 19.94 6.16828 22.0912 8.843 22.0912H10.1131C10.4724 22.0912 10.7636 22.3802 10.7636 22.7367V26.3536C10.7636 26.858 11.3208 27.1675 11.7542 26.9038L19.509 22.1864C19.6113 22.1242 19.729 22.0912 19.849 22.0912H23.157C25.8317 22.0912 28 19.94 28 17.2864V10.8049C28 8.15121 25.8317 6 23.157 6H8.843ZM15.9999 12.1434C14.9432 12.1434 14.0866 12.9932 14.0866 14.0415C14.0866 15.0899 14.9432 15.9397 15.9999 15.9397C17.0566 15.9397 17.9132 15.0899 17.9132 14.0415C17.9132 12.9932 17.0566 12.1434 15.9999 12.1434ZM20.398 14.0415C20.398 12.9932 21.2546 12.1434 22.3113 12.1434C23.3679 12.1434 24.2245 12.9932 24.2245 14.0415C24.2245 15.0899 23.3679 15.9397 22.3113 15.9397C21.2546 15.9397 20.398 15.0899 20.398 14.0415ZM9.68867 12.1434C8.63201 12.1434 7.77541 12.9932 7.77541 14.0415C7.77541 15.0899 8.63201 15.9397 9.68867 15.9397C10.7453 15.9397 11.6019 15.0899 11.6019 14.0415C11.6019 12.9932 10.7453 12.1434 9.68867 12.1434Z" fill="white"></path> </svg> 