<?xml version="1.0" encoding="UTF-8"?> <svg xmlns="http://www.w3.org/2000/svg" width="62" height="76" viewBox="0 0 62 76" fill="none"> <path d="M37.9734 17.95C37.9734 19.3381 39.0986 20.4633 40.4867 20.4633C41.8748 20.4633 43 19.3381 43 17.95V6.51331C43 5.12525 41.8748 4 40.4867 4C39.0986 4 37.9734 5.12525 37.9734 6.51331V17.95Z" fill="#EBEDF0"></path> <path d="M21.5502 22.8996C20.1418 22.8996 19 24.0414 19 25.4498C19 26.8582 20.1418 28 21.5502 28H32.9131C34.3216 28 35.4633 26.8582 35.4633 25.4498C35.4633 24.0414 34.3216 22.8996 32.9131 22.8996H21.5502Z" fill="#EBEDF0"></path> <path d="M40.4498 28C39.0414 28 37.8996 26.8582 37.8996 25.4498C37.8996 24.0414 39.0414 22.8996 40.4498 22.8996C41.8582 22.8996 43 24.0414 43 25.4498C43 26.8582 41.8582 28 40.4498 28Z" fill="#EBEDF0"></path> <path fill-rule="evenodd" clip-rule="evenodd" d="M19 8.8C19 6.14903 21.149 4 23.8 4H30.6633C33.3143 4 35.4633 6.14903 35.4633 8.8V15.6633C35.4633 18.3143 33.3143 20.4633 30.6633 20.4633H23.8C21.149 20.4633 19 18.3143 19 15.6633V8.8ZM21.4716 10.8138C21.4716 9.63463 22.4276 8.67868 23.6068 8.67868H27.5379C28.7171 8.67868 29.673 9.63463 29.673 10.8138V13.6495C29.673 14.8287 28.7171 15.7846 27.5379 15.7846H23.6068C22.4276 15.7846 21.4716 14.8287 21.4716 13.6495V10.8138ZM32.4776 15.2484C32.6446 15.4655 32.9917 15.3474 32.9917 15.0735V9.35849C32.9917 9.08421 32.6437 8.96639 32.4771 9.18429L30.8697 11.2865C30.8315 11.3366 30.8107 11.3978 30.8107 11.4608V12.9842C30.8107 13.0474 30.8317 13.1089 30.8702 13.159L32.4776 15.2484Z" fill="#EBEDF0"></path> <path d="M2.75186 59H3.87986V50.6H2.88386L0.375859 52.604L0.951859 53.372L2.75186 51.98V59ZM10.3942 59.096C11.1622 59.096 12.0262 58.82 12.5422 58.064H12.5662V59H13.7182V55.196C13.7182 53.504 12.7342 52.784 11.0662 52.784C10.3222 52.784 9.48217 52.928 8.87017 53.192V54.248C9.60217 53.852 10.2742 53.72 10.9222 53.72C11.9302 53.72 12.5902 54.104 12.5902 54.98V55.184H11.4622C9.32617 55.184 8.30617 55.928 8.30617 57.26C8.30617 58.4 9.12217 59.096 10.3942 59.096ZM10.6702 58.136C9.95017 58.136 9.50617 57.8 9.50617 57.188C9.50617 56.528 10.0222 56.048 11.5102 56.048H12.5902V56.432C12.5902 57.368 11.7862 58.136 10.6702 58.136ZM15.5136 59H16.6416V56.264H17.7696L19.7616 59H21.1656L18.7896 55.784L20.8776 52.88H19.5576L17.7816 55.352H16.6416V52.88H15.5136V59ZM23.6187 59H24.7467V53.792H26.8827V52.88H21.4827V53.792H23.6187V59ZM28.0644 59H29.4924L32.3004 54.2H32.3244V59H33.4524V52.88H32.0244L29.2164 57.68H29.1924V52.88H28.0644V59ZM40.3192 54.488C40.3192 53.576 39.6592 52.88 37.9192 52.88H35.4472V59H38.1592C39.7792 59 40.5592 58.22 40.5592 57.212C40.5592 56.504 40.1632 56.048 39.3952 55.796V55.772C40.0072 55.52 40.3192 55.124 40.3192 54.488ZM36.5752 58.088V56.276H38.1592C38.9752 56.276 39.3352 56.636 39.3352 57.188C39.3352 57.74 38.9752 58.088 38.1592 58.088H36.5752ZM36.5752 55.364V53.792H37.9192C38.7352 53.792 39.0952 54.14 39.0952 54.572C39.0952 55.004 38.7352 55.364 37.9192 55.364H36.5752ZM42.0097 59H43.1377V56.276H46.2097V59H47.3377V52.88H46.2097V55.364H43.1377V52.88H42.0097V59ZM50.9059 59.096C51.6739 59.096 52.5379 58.82 53.0539 58.064H53.0779V59H54.2299V55.196C54.2299 53.504 53.2459 52.784 51.5779 52.784C50.8339 52.784 49.9939 52.928 49.3819 53.192V54.248C50.1139 53.852 50.7859 53.72 51.4339 53.72C52.4419 53.72 53.1019 54.104 53.1019 54.98V55.184H51.9739C49.8379 55.184 48.8179 55.928 48.8179 57.26C48.8179 58.4 49.6339 59.096 50.9059 59.096ZM51.1819 58.136C50.4619 58.136 50.0179 57.8 50.0179 57.188C50.0179 56.528 50.5339 56.048 52.0219 56.048H53.1019V56.432C53.1019 57.368 52.2979 58.136 51.1819 58.136ZM55.3893 59H56.7213L57.9213 56.816H59.6253V59H60.7533V52.88H58.0173C56.4573 52.88 55.7133 53.66 55.7133 54.848C55.7133 55.712 56.1813 56.312 56.8053 56.6L55.3893 59ZM58.0173 55.904C57.2493 55.904 56.8653 55.496 56.8653 54.86C56.8653 54.212 57.2373 53.792 58.0173 53.792H59.6253V55.904H58.0173ZM7.32217 73H8.45017V70.264H9.57817L11.5702 73H12.9742L10.5982 69.784L12.6862 66.88H11.3662L9.59017 69.352H8.45017V66.88H7.32217V73ZM16.7141 73.096C18.5621 73.096 19.8461 71.812 19.8461 69.94C19.8461 68.068 18.5621 66.784 16.7141 66.784C14.8661 66.784 13.5821 68.068 13.5821 69.94C13.5821 71.812 14.8661 73.096 16.7141 73.096ZM16.7141 72.184C15.6581 72.184 14.7821 71.308 14.7821 69.94C14.7821 68.572 15.6581 67.696 16.7141 67.696C17.7581 67.696 18.6461 68.572 18.6461 69.94C18.6461 71.308 17.7701 72.184 16.7141 72.184ZM21.4315 73H22.5595V67.96H22.5835L24.2515 71.44H25.3795L27.0475 67.96H27.0715V73H28.1995V66.88H26.5075L24.8395 70.372L23.1715 66.88H21.4315V73ZM30.1972 73H31.3252V70.276H34.3972V73H35.5252V66.88H34.3972V69.364H31.3252V66.88H30.1972V73ZM39.0934 73.096C39.8614 73.096 40.7254 72.82 41.2414 72.064H41.2654V73H42.4174V69.196C42.4174 67.504 41.4334 66.784 39.7654 66.784C39.0214 66.784 38.1814 66.928 37.5694 67.192V68.248C38.3014 67.852 38.9734 67.72 39.6214 67.72C40.6294 67.72 41.2894 68.104 41.2894 68.98V69.184H40.1614C38.0254 69.184 37.0054 69.928 37.0054 71.26C37.0054 72.4 37.8214 73.096 39.0934 73.096ZM39.3694 72.136C38.6494 72.136 38.2054 71.8 38.2054 71.188C38.2054 70.528 38.7214 70.048 40.2094 70.048H41.2894V70.432C41.2894 71.368 40.4854 72.136 39.3694 72.136ZM45.5328 73H46.6608V67.792H48.7968V66.88H43.3968V67.792H45.5328V73ZM51.5504 73.096C52.3184 73.096 53.1824 72.82 53.6984 72.064H53.7224V73H54.8744V69.196C54.8744 67.504 53.8904 66.784 52.2224 66.784C51.4784 66.784 50.6384 66.928 50.0264 67.192V68.248C50.7584 67.852 51.4304 67.72 52.0784 67.72C53.0864 67.72 53.7464 68.104 53.7464 68.98V69.184H52.6184C50.4824 69.184 49.4624 69.928 49.4624 71.26C49.4624 72.4 50.2784 73.096 51.5504 73.096ZM51.8264 72.136C51.1064 72.136 50.6624 71.8 50.6624 71.188C50.6624 70.528 51.1784 70.048 52.6664 70.048H53.7464V70.432C53.7464 71.368 52.9424 72.136 51.8264 72.136Z" fill="#EBEDF0"></path> </svg> 