<?xml version="1.0" encoding="UTF-8"?> <svg xmlns="http://www.w3.org/2000/svg" width="145" height="94" viewBox="0 0 145 94" fill="none"> <g clip-path="url(#clip0_204_6195)"> <g clip-path="url(#clip1_204_6195)"> <path d="M65.8335 20C68.0426 20 69.8335 18.2091 69.8335 16C69.8335 13.7909 68.0426 12 65.8335 12C63.6244 12 61.8335 13.7909 61.8335 16C61.8335 18.2091 63.6244 20 65.8335 20Z" stroke="white" stroke-width="2" stroke-linecap="round" stroke-linejoin="round"></path> <path d="M79.1665 20C81.3756 20 83.1665 18.2091 83.1665 16C83.1665 13.7909 81.3756 12 79.1665 12C76.9574 12 75.1665 13.7909 75.1665 16C75.1665 18.2091 76.9574 20 79.1665 20Z" stroke="white" stroke-width="2" stroke-linecap="round" stroke-linejoin="round"></path> <path d="M65.8335 20H79.1668" stroke="white" stroke-width="2" stroke-linecap="round" stroke-linejoin="round"></path> </g> <path d="M3.57775 61.16C6.08975 61.16 7.59375 59.72 7.59375 57.864C7.59375 56.568 6.92175 55.624 5.28975 55.208V55.192C6.63375 54.664 7.27375 53.768 7.27375 52.584C7.27375 50.824 5.96175 49.64 3.27375 49.64C1.75375 49.64 0.50575 50.2 0.50575 50.2V51.704C0.50575 51.704 1.78575 51.048 3.27375 51.048C4.92175 51.048 5.60975 51.688 5.60975 52.808C5.60975 53.88 4.92175 54.584 3.27375 54.584H2.26575V55.896H3.59375C5.20975 55.896 5.92975 56.648 5.92975 57.832C5.92975 59.096 5.19375 59.752 3.59375 59.752C1.60975 59.752 0.18575 59.016 0.18575 59.016V60.52C0.18575 60.52 1.56175 61.16 3.57775 61.16ZM11.6584 61.128C12.6824 61.128 13.8344 60.76 14.5224 59.752H14.5544V61H16.0904V55.928C16.0904 53.672 14.7784 52.712 12.5544 52.712C11.5624 52.712 10.4424 52.904 9.62638 53.256V54.664C10.6024 54.136 11.4984 53.96 12.3624 53.96C13.7064 53.96 14.5864 54.472 14.5864 55.64V55.912H13.0824C10.2344 55.912 8.87438 56.904 8.87438 58.68C8.87438 60.2 9.96238 61.128 11.6584 61.128ZM12.0264 59.848C11.0664 59.848 10.4744 59.4 10.4744 58.584C10.4744 57.704 11.1624 57.064 13.1464 57.064H14.5864V57.576C14.5864 58.824 13.5144 59.848 12.0264 59.848ZM18.4843 61H19.9883V54.056H23.9243V61H25.4283V52.84H18.4843V61ZM28.078 61H29.982L33.726 54.6H33.758V61H35.262V52.84H33.358L29.614 59.24H29.582V52.84H28.078V61ZM41.4578 61.128C42.7218 61.128 43.5058 60.808 43.5058 60.808V59.496C43.5058 59.496 42.7378 59.912 41.6178 59.912C39.9378 59.912 38.9778 58.824 38.9778 56.92C38.9778 55.016 39.9378 53.928 41.6338 53.928C42.7378 53.928 43.5058 54.328 43.5058 54.328V53.032C43.5058 53.032 42.7698 52.712 41.4738 52.712C38.9778 52.712 37.3778 54.408 37.3778 56.92C37.3778 59.432 38.9298 61.128 41.4578 61.128ZM45.6874 61H49.1274C51.4474 61 52.4874 59.944 52.4874 58.328C52.4874 56.712 51.4474 55.656 49.1274 55.656H47.1914V52.84H45.6874V61ZM49.1274 56.872C50.3914 56.872 50.9514 57.448 50.9514 58.328C50.9514 59.208 50.4074 59.784 49.1274 59.784H47.1914V56.872H49.1274ZM57.8593 61H59.7633L63.5073 54.6H63.5393V61H65.0433V52.84H63.1393L59.3953 59.24H59.3633V52.84H57.8593V61ZM70.3825 61H72.1745L74.3505 57.736L76.5265 61H78.3825L75.3585 56.728L78.2065 52.84H76.5265L74.4785 55.864L72.4625 52.84H70.5905L73.4705 56.728L70.3825 61ZM81.5351 59.928H81.5991C82.0631 60.52 82.9911 61.128 84.3031 61.128C86.6231 61.128 87.9991 59.176 87.9991 56.856C87.9991 54.488 86.6231 52.712 84.2231 52.712C83.5831 52.712 82.3671 52.856 81.5031 54.008H81.4711V52.84H80.0311V64.584H81.5351V59.928ZM83.9511 59.912C82.4791 59.912 81.5351 58.744 81.5351 56.936C81.5351 55.112 82.4951 53.928 83.9991 53.928C85.4551 53.928 86.3991 55.064 86.3991 56.808C86.3991 58.696 85.4391 59.912 83.9511 59.912ZM92.1271 61.128C93.1511 61.128 94.3031 60.76 94.9911 59.752H95.0231V61H96.5591V55.928C96.5591 53.672 95.2471 52.712 93.0231 52.712C92.0311 52.712 90.9111 52.904 90.0951 53.256V54.664C91.0711 54.136 91.9671 53.96 92.8311 53.96C94.1751 53.96 95.0551 54.472 95.0551 55.64V55.912H93.5511C90.7031 55.912 89.3431 56.904 89.3431 58.68C89.3431 60.2 90.4311 61.128 92.1271 61.128ZM92.4951 59.848C91.5351 59.848 90.9431 59.4 90.9431 58.584C90.9431 57.704 91.6311 57.064 93.6151 57.064H95.0551V57.576C95.0551 58.824 93.9831 59.848 92.4951 59.848ZM98.953 61H100.457V57.368H104.553V61H106.057V52.84H104.553V56.152H100.457V52.84H98.953V61ZM115.759 57.256V56.84C115.759 54.072 114.351 52.712 112.031 52.712C109.871 52.712 108.175 54.28 108.175 56.776C108.175 59.496 109.727 61.128 112.479 61.128C113.791 61.128 114.687 60.872 115.199 60.712V59.24C114.591 59.592 113.551 59.88 112.575 59.88C110.927 59.88 109.903 58.936 109.727 57.256H115.759ZM112.015 53.928C113.247 53.928 114.159 54.728 114.159 56.136H109.727C109.919 54.792 110.767 53.928 112.015 53.928ZM117.922 61H119.426V57.368H123.522V61H125.026V52.84H123.522V56.152H119.426V52.84H117.922V61ZM127.687 61H129.591L133.335 54.6H133.367V61H134.871V52.84H132.967L129.223 59.24H129.191V52.84H127.687V61ZM144.571 57.256V56.84C144.571 54.072 143.163 52.712 140.843 52.712C138.683 52.712 136.987 54.28 136.987 56.776C136.987 59.496 138.539 61.128 141.291 61.128C142.603 61.128 143.499 60.872 144.011 60.712V59.24C143.403 59.592 142.363 59.88 141.387 59.88C139.739 59.88 138.715 58.936 138.539 57.256H144.571ZM140.827 53.928C142.059 53.928 142.971 54.728 142.971 56.136H138.539C138.731 54.792 139.579 53.928 140.827 53.928ZM8.93738 83.128C11.5934 83.128 12.6814 82.056 12.6814 80.744C12.6814 79.768 12.0734 78.968 10.9214 78.712V78.696C11.8814 78.376 12.3614 77.736 12.3614 76.872C12.3614 75.608 11.3214 74.712 9.00138 74.712C7.60938 74.712 6.61738 75.032 6.61738 75.032V76.344C6.61738 76.344 7.65738 75.928 8.90538 75.928C10.1534 75.928 10.7614 76.36 10.7614 77.048C10.7614 77.704 10.2174 78.168 8.92138 78.168H7.84938V79.352H9.16138C10.4574 79.352 11.0814 79.832 11.0814 80.584C11.0814 81.416 10.3134 81.912 8.77738 81.912C7.27338 81.912 6.31338 81.432 6.31338 81.432V82.728C6.31338 82.744 7.25738 83.128 8.93738 83.128ZM16.7209 83.128C17.7449 83.128 18.8969 82.76 19.5849 81.752H19.6169V83H21.1529V77.928C21.1529 75.672 19.8409 74.712 17.6169 74.712C16.6249 74.712 15.5049 74.904 14.6889 75.256V76.664C15.6649 76.136 16.5609 75.96 17.4249 75.96C18.7689 75.96 19.6489 76.472 19.6489 77.64V77.912H18.1449C15.2969 77.912 13.9369 78.904 13.9369 80.68C13.9369 82.2 15.0249 83.128 16.7209 83.128ZM17.0889 81.848C16.1289 81.848 15.5369 81.4 15.5369 80.584C15.5369 79.704 16.2249 79.064 18.2089 79.064H19.6489V79.576C19.6489 80.824 18.5769 81.848 17.0889 81.848ZM23.5468 83H25.0508V76.056H28.9868V83H30.4908V74.84H23.5468V83ZM33.1405 83H35.0445L38.7885 76.6H38.8205V83H40.3245V74.84H38.4205L34.6765 81.24H34.6445V74.84H33.1405V83ZM46.5203 83.128C47.7843 83.128 48.5683 82.808 48.5683 82.808V81.496C48.5683 81.496 47.8003 81.912 46.6803 81.912C45.0003 81.912 44.0403 80.824 44.0403 78.92C44.0403 77.016 45.0003 75.928 46.6963 75.928C47.8003 75.928 48.5683 76.328 48.5683 76.328V75.032C48.5683 75.032 47.8323 74.712 46.5363 74.712C44.0403 74.712 42.4403 76.408 42.4403 78.92C42.4403 81.432 43.9923 83.128 46.5203 83.128ZM57.7118 79.256V78.84C57.7118 76.072 56.3038 74.712 53.9838 74.712C51.8238 74.712 50.1278 76.28 50.1278 78.776C50.1278 81.496 51.6798 83.128 54.4318 83.128C55.7438 83.128 56.6398 82.872 57.1518 82.712V81.24C56.5438 81.592 55.5038 81.88 54.5278 81.88C52.8798 81.88 51.8558 80.936 51.6798 79.256H57.7118ZM53.9678 75.928C55.1998 75.928 56.1118 76.728 56.1118 78.136H51.6798C51.8718 76.792 52.7198 75.928 53.9678 75.928ZM59.8749 83H61.7789L65.5229 76.6H65.5549V83H67.0589V74.84H65.1549L61.4109 81.24H61.3789V74.84H59.8749V83ZM63.5229 73.144C64.8669 73.144 65.8909 72.456 65.9549 70.968H64.8669C64.7549 71.672 64.2589 72.056 63.5229 72.056C62.7869 72.056 62.2429 71.672 62.1309 70.968H60.9949C61.0589 72.456 62.1789 73.144 63.5229 73.144ZM76.9421 83.128C78.2061 83.128 78.9901 82.808 78.9901 82.808V81.496C78.9901 81.496 78.2221 81.912 77.1021 81.912C75.4221 81.912 74.4621 80.824 74.4621 78.92C74.4621 77.016 75.4221 75.928 77.1181 75.928C78.2221 75.928 78.9901 76.328 78.9901 76.328V75.032C78.9901 75.032 78.2541 74.712 76.9581 74.712C74.4621 74.712 72.8621 76.408 72.8621 78.92C72.8621 81.432 74.4141 83.128 76.9421 83.128ZM84.7256 83.128C87.1896 83.128 88.9016 81.416 88.9016 78.92C88.9016 76.424 87.1896 74.712 84.7256 74.712C82.2616 74.712 80.5496 76.424 80.5496 78.92C80.5496 81.416 82.2616 83.128 84.7256 83.128ZM84.7256 81.912C83.3176 81.912 82.1496 80.744 82.1496 78.92C82.1496 77.096 83.3176 75.928 84.7256 75.928C86.1176 75.928 87.3016 77.096 87.3016 78.92C87.3016 80.744 86.1336 81.912 84.7256 81.912ZM94.7275 83.128C97.1595 83.128 98.8235 81.368 98.8235 78.92C98.8235 76.44 97.3355 74.712 95.0155 74.712C93.6555 74.712 92.5515 75.384 91.9435 76.392H91.8635L91.8795 75.992C91.9595 74.008 92.8235 72.632 94.8875 72.28C95.9595 72.104 96.9675 72.232 98.1035 71.928V70.6C96.5675 71 95.7195 70.696 94.1995 71.08C91.4315 71.784 90.4715 74.04 90.4715 76.968C90.4715 80.664 91.5915 83.128 94.7275 83.128ZM94.7275 81.912C93.2395 81.912 92.2155 80.6 92.2155 78.92C92.2155 77.32 93.1595 75.928 94.7275 75.928C96.2955 75.928 97.2235 77.32 97.2235 78.92C97.2235 80.552 96.2475 81.912 94.7275 81.912ZM100.937 83H104.089C106.409 83 107.449 81.96 107.449 80.344C107.449 78.712 106.409 77.656 104.089 77.656H102.441V74.84H100.937V83ZM102.441 81.784V78.872H104.089C105.353 78.872 105.913 79.448 105.913 80.344C105.913 81.224 105.353 81.784 104.089 81.784H102.441ZM109.177 83H110.681V74.84H109.177V83ZM115.104 83H116.608V76.056H119.456V74.84H112.256V76.056H115.104V83ZM121.031 83H122.935L126.679 76.6H126.711V83H128.215V74.84H126.311L122.567 81.24H122.535V74.84H121.031V83ZM130.875 83H132.779L136.523 76.6H136.555V83H138.059V74.84H136.155L132.411 81.24H132.379V74.84H130.875V83ZM134.523 73.144C135.867 73.144 136.891 72.456 136.955 70.968H135.867C135.755 71.672 135.259 72.056 134.523 72.056C133.787 72.056 133.243 71.672 133.131 70.968H131.995C132.059 72.456 133.179 73.144 134.523 73.144Z" fill="white" fill-opacity="0.8"></path> </g> <defs> <clipPath id="clip0_204_6195"> <rect width="145" height="94" fill="white"></rect> </clipPath> <clipPath id="clip1_204_6195"> <rect width="32" height="32" fill="white" transform="translate(56.5)"></rect> </clipPath> </defs> </svg> 