<?xml version="1.0" encoding="UTF-8"?> <svg xmlns="http://www.w3.org/2000/svg" width="122" height="94" viewBox="0 0 122 94" fill="none"> <g clip-path="url(#clip0_204_6206)"> <path d="M61 16V16.0133" stroke="white" stroke-width="2" stroke-linecap="round" stroke-linejoin="round"></path> <path d="M64.7705 12.2292C65.7704 13.2294 66.332 14.5857 66.332 15.9999C66.332 17.4141 65.7704 18.7704 64.7705 19.7706" stroke="white" stroke-width="2" stroke-linecap="round" stroke-linejoin="round"></path> <path d="M68.5425 8.45728C69.533 9.44777 70.3188 10.6237 70.8549 11.9179C71.391 13.212 71.6669 14.5991 71.6669 15.9999C71.6669 17.4008 71.391 18.7879 70.8549 20.082C70.3188 21.3762 69.533 22.5521 68.5425 23.5426" stroke="white" stroke-width="2" stroke-linecap="round" stroke-linejoin="round"></path> <path d="M57.2241 19.7706C56.2243 18.7704 55.6626 17.4141 55.6626 15.9999C55.6626 14.5857 56.2243 13.2294 57.2241 12.2292" stroke="white" stroke-width="2" stroke-linecap="round" stroke-linejoin="round"></path> <path d="M53.4491 23.5426C52.4585 22.5521 51.6728 21.3762 51.1367 20.082C50.6006 18.7879 50.3247 17.4008 50.3247 15.9999C50.3247 14.5991 50.6006 13.212 51.1367 11.9179C51.6728 10.6237 52.4585 9.44777 53.4491 8.45728" stroke="white" stroke-width="2" stroke-linecap="round" stroke-linejoin="round"></path> </g> <path d="M30.8786 61H32.4466V55.816H34.0786L37.6786 61H39.6306L35.4226 55.096L39.2626 49.8H37.3266L34.0946 54.408H32.4466V49.8H30.8786V61ZM42.8928 61.128C43.9168 61.128 45.0688 60.76 45.7568 59.752H45.7888V61H47.3248V55.928C47.3248 53.672 46.0128 52.712 43.7888 52.712C42.7968 52.712 41.6768 52.904 40.8608 53.256V54.664C41.8368 54.136 42.7328 53.96 43.5968 53.96C44.9408 53.96 45.8208 54.472 45.8208 55.64V55.912H44.3168C41.4688 55.912 40.1088 56.904 40.1088 58.68C40.1088 60.2 41.1968 61.128 42.8928 61.128ZM43.2608 59.848C42.3008 59.848 41.7088 59.4 41.7088 58.584C41.7088 57.704 42.3968 57.064 44.3808 57.064H45.8208V57.576C45.8208 58.824 44.7488 59.848 43.2608 59.848ZM49.7186 61H51.2226V57.368H55.3186V61H56.8226V52.84H55.3186V56.152H51.2226V52.84H49.7186V61ZM61.5803 61.128C62.6043 61.128 63.7563 60.76 64.4443 59.752H64.4763V61H66.0123V55.928C66.0123 53.672 64.7003 52.712 62.4763 52.712C61.4843 52.712 60.3643 52.904 59.5483 53.256V54.664C60.5243 54.136 61.4203 53.96 62.2843 53.96C63.6283 53.96 64.5083 54.472 64.5083 55.64V55.912H63.0043C60.1562 55.912 58.7963 56.904 58.7963 58.68C58.7963 60.2 59.8843 61.128 61.5803 61.128ZM61.9483 59.848C60.9883 59.848 60.3963 59.4 60.3963 58.584C60.3963 57.704 61.0843 57.064 63.0683 57.064H64.5083V57.576C64.5083 58.824 63.4363 59.848 61.9483 59.848ZM68.0541 61.128C69.7501 61.128 70.5341 59.24 70.5341 54.28V54.056H73.6861V61H75.1901V52.84H69.1741V53.48C69.1741 58.04 68.8221 59.736 67.7661 59.736C67.5421 59.736 67.3021 59.656 67.3021 59.656V61.016C67.3021 61.032 67.6701 61.128 68.0541 61.128ZM77.8436 61H80.9956C83.3156 61 84.3556 59.96 84.3556 58.344C84.3556 56.712 83.3156 55.656 80.9956 55.656H79.3476V52.84H77.8436V61ZM79.3476 59.784V56.872H80.9956C82.2596 56.872 82.8196 57.448 82.8196 58.344C82.8196 59.224 82.2596 59.784 80.9956 59.784H79.3476ZM86.0836 61H87.5876V52.84H86.0836V61ZM8.50463 83.128C9.76863 83.128 10.5526 82.808 10.5526 82.808V81.496C10.5526 81.496 9.78463 81.912 8.66463 81.912C6.98463 81.912 6.02463 80.824 6.02463 78.92C6.02463 77.016 6.98463 75.928 8.68063 75.928C9.78463 75.928 10.5526 76.328 10.5526 76.328V75.032C10.5526 75.032 9.81663 74.712 8.52063 74.712C6.02463 74.712 4.42463 76.408 4.42463 78.92C4.42463 81.432 5.97663 83.128 8.50463 83.128ZM16.4218 83H17.9258V76.056H21.8618V83H23.3658V74.84H16.4218V83ZM25.6635 83.128C27.3595 83.128 28.1435 81.24 28.1435 76.28V76.056H31.2955V83H32.7995V74.84H26.7835V75.48C26.7835 80.04 26.4315 81.736 25.3755 81.736C25.1515 81.736 24.9115 81.656 24.9115 81.656V83.016C24.9115 83.032 25.2795 83.128 25.6635 83.128ZM42.493 79.256V78.84C42.493 76.072 41.085 74.712 38.765 74.712C36.605 74.712 34.909 76.28 34.909 78.776C34.909 81.496 36.461 83.128 39.213 83.128C40.525 83.128 41.421 82.872 41.933 82.712V81.24C41.325 81.592 40.285 81.88 39.309 81.88C37.661 81.88 36.637 80.936 36.461 79.256H42.493ZM38.749 75.928C39.981 75.928 40.893 76.728 40.893 78.136H36.461C36.653 76.792 37.501 75.928 38.749 75.928ZM44.6561 83H46.5601L50.3041 76.6H50.3361V83H51.8401V74.84H49.9361L46.1921 81.24H46.1601V74.84H44.6561V83ZM48.3041 73.144C49.6481 73.144 50.6721 72.456 50.7361 70.968H49.6481C49.5361 71.672 49.0401 72.056 48.3041 72.056C47.5681 72.056 47.0241 71.672 46.9121 70.968H45.7761C45.8401 72.456 46.9601 73.144 48.3041 73.144ZM54.1479 83.128C55.8439 83.128 56.6279 81.24 56.6279 76.28V76.056H59.7799V83H61.2839V74.84H55.2679V75.48C55.2679 80.04 54.9159 81.736 53.8599 81.736C53.6359 81.736 53.3959 81.656 53.3959 81.656V83.016C53.3959 83.032 53.7639 83.128 54.1479 83.128ZM63.9374 83H65.8414L69.5854 76.6H69.6174V83H71.1214V74.84H69.2174L65.4734 81.24H65.4414V74.84H63.9374V83ZM77.3171 83.128C78.5811 83.128 79.3651 82.808 79.3651 82.808V81.496C79.3651 81.496 78.5971 81.912 77.4771 81.912C75.7971 81.912 74.8371 80.824 74.8371 78.92C74.8371 77.016 75.7971 75.928 77.4931 75.928C78.5971 75.928 79.3651 76.328 79.3651 76.328V75.032C79.3651 75.032 78.6291 74.712 77.3331 74.712C74.8371 74.712 73.2371 76.408 73.2371 78.92C73.2371 81.432 74.7891 83.128 77.3171 83.128ZM83.3068 83H84.8108V76.056H87.6588V74.84H80.4588V76.056H83.3068V83ZM91.3303 83.128C92.3543 83.128 93.5063 82.76 94.1943 81.752H94.2263V83H95.7623V77.928C95.7623 75.672 94.4503 74.712 92.2263 74.712C91.2343 74.712 90.1143 74.904 89.2983 75.256V76.664C90.2743 76.136 91.1703 75.96 92.0343 75.96C93.3783 75.96 94.2583 76.472 94.2583 77.64V77.912H92.7543C89.9062 77.912 88.5463 78.904 88.5463 80.68C88.5463 82.2 89.6343 83.128 91.3303 83.128ZM91.6983 81.848C90.7383 81.848 90.1463 81.4 90.1463 80.584C90.1463 79.704 90.8343 79.064 92.8183 79.064H94.2583V79.576C94.2583 80.824 93.1863 81.848 91.6983 81.848ZM98.1561 83H99.6601V76.28H99.6921L101.916 80.92H103.42L105.644 76.28H105.676V83H107.18V74.84H104.924L102.7 79.496L100.476 74.84H98.1561V83ZM109.844 83H111.748L115.492 76.6H115.524V83H117.028V74.84H115.124L111.38 81.24H111.348V74.84H109.844V83Z" fill="white" fill-opacity="0.8"></path> <defs> <clipPath id="clip0_204_6206"> <rect width="32" height="32" fill="white" transform="translate(45)"></rect> </clipPath> </defs> </svg> 