<?xml version="1.0" encoding="UTF-8"?> <svg xmlns="http://www.w3.org/2000/svg" width="92" height="76" viewBox="0 0 92 76" fill="none"> <g clip-path="url(#clip0_196_7690)"> <path d="M46.7988 4.39062L43.8027 9.38672L41.9531 7.53906L41.25 8.33789C37.767 12.2859 36 15.873 36 19C36 23.962 40.486 28 46 28C51.514 28 56 23.962 56 19C56 14.238 50.8031 8.36606 47.7051 5.28906L46.7988 4.39062ZM47.1914 7.62305C49.7674 10.309 54 15.288 54 19C54 21.3912 52.6203 23.5043 50.5234 24.7676C50.822 24.0541 51 23.2675 51 22.4297C51 20.0487 49.3153 17.2244 47.9023 15.2754L47.0586 14.1094L44.8438 17.4316L43.4375 16.0254L42.7773 17.1152C41.5983 19.0612 41 20.8487 41 22.4297C41 23.2675 41.178 24.0541 41.4766 24.7676C39.3797 23.5043 38 21.3912 38 19C38 16.611 39.3976 13.6767 42.0566 10.4707L44.1973 12.6133L47.1914 7.62305ZM47.1035 17.6484C48.3335 19.5654 49 21.2337 49 22.4297C49 24.3987 47.654 26 46 26C44.346 26 43 24.3987 43 22.4297C43 21.5077 43.2902 20.4523 43.8652 19.2812L45.1562 20.5703L47.1035 17.6484Z" fill="white"></path> <path d="M9.38622 56.096C10.2382 56.096 10.9462 55.928 11.4142 55.772V55.04C10.8142 55.292 10.1062 55.4 9.42222 55.4C7.41822 55.4 6.12222 54.08 6.12222 51.716C6.12222 49.628 7.47822 48.188 9.43422 48.188C9.91422 48.188 10.4662 48.26 11.3422 48.56V47.828C10.7662 47.6 10.0822 47.504 9.39822 47.504C6.90222 47.504 5.27022 49.184 5.27022 51.68C5.27022 54.476 6.85422 56.096 9.38622 56.096ZM15.677 56.096C17.489 56.096 18.701 54.836 18.701 52.928C18.701 51.008 17.501 49.748 15.677 49.748C13.853 49.748 12.653 51.008 12.653 52.928C12.653 54.836 13.865 56.096 15.677 56.096ZM15.677 55.46C14.117 55.46 13.445 54.116 13.445 52.928C13.445 51.728 14.117 50.384 15.677 50.384C17.237 50.384 17.909 51.728 17.909 52.928C17.909 54.116 17.237 55.46 15.677 55.46ZM25.1344 51.44C25.1344 50.576 24.5224 49.844 23.2264 49.844H20.5024V56H23.3104C23.5744 56 25.3864 55.94 25.3864 54.308C25.3864 53.516 24.9064 52.94 24.2224 52.736V52.724C24.8224 52.436 25.1344 52.028 25.1344 51.44ZM21.2584 55.364V53.144H23.1304C24.1984 53.144 24.5944 53.684 24.5944 54.272C24.5944 54.836 24.2104 55.364 23.2504 55.364H21.2584ZM21.2584 52.508V50.48H23.1784C24.1624 50.48 24.3784 51.104 24.3664 51.548C24.3304 52.472 23.3944 52.508 23.0584 52.508H21.2584ZM27.8209 54.908H27.8449C28.2409 55.58 29.0209 56.096 30.0409 56.096C31.6969 56.096 32.8249 54.896 32.8249 52.928C32.8249 50.996 31.6129 49.748 29.9689 49.748C28.9609 49.748 28.3129 50.228 27.8449 50.804H27.7969V49.844H27.0649V58.64H27.8209V54.908ZM29.9569 55.46C29.0209 55.46 27.8089 54.764 27.8089 52.94C27.8089 51.452 28.6849 50.384 29.9449 50.384C31.1809 50.384 32.0329 51.452 32.0329 52.94C32.0329 54.524 31.0969 55.46 29.9569 55.46ZM39.7355 53.144V52.904C39.7355 51.836 39.5555 49.748 37.0955 49.748C35.4155 49.748 34.2155 50.888 34.2155 52.82C34.2155 54.932 35.4275 56.096 37.4075 56.096C37.9835 56.096 38.6075 56.024 39.2915 55.76V55.064C38.6195 55.376 37.9715 55.46 37.4315 55.46C35.8715 55.46 35.0675 54.572 34.9715 53.144H39.7355ZM37.0955 50.384C38.8595 50.384 38.9555 52.016 38.9435 52.508H34.9835C35.0915 51.188 35.8955 50.384 37.0955 50.384ZM41.5259 56H42.2939V50.552H42.3179L44.4179 54.524H45.1859L47.2859 50.552H47.3099V56H48.0779V49.844H46.8779L44.8139 53.756L42.7499 49.844H41.5259V56ZM55.4035 53.144V52.904C55.4035 51.836 55.2235 49.748 52.7635 49.748C51.0835 49.748 49.8835 50.888 49.8835 52.82C49.8835 54.932 51.0955 56.096 53.0755 56.096C53.6515 56.096 54.2755 56.024 54.9595 55.76V55.064C54.2875 55.376 53.6395 55.46 53.0995 55.46C51.5395 55.46 50.7355 54.572 50.6395 53.144H55.4035ZM52.7635 50.384C54.5275 50.384 54.6235 52.016 54.6115 52.508H50.6515C50.7595 51.188 51.5635 50.384 52.7635 50.384ZM57.1938 56H57.9498V53.12H61.5498V56H62.3058V49.844H61.5498V52.484H57.9498V49.844H57.1938V56ZM64.5181 56H65.2741V53.12H68.8741V56H69.6301V49.844H68.8741V52.484H65.2741V49.844H64.5181V56ZM71.8423 56H74.1703C75.8503 56 76.5703 55.256 76.5703 54.02C76.5703 52.784 75.8503 52.04 74.1703 52.04H72.5983V49.844H71.8423V56ZM72.5983 55.364V52.676H74.1703C75.2983 52.676 75.7783 53.18 75.7783 54.02C75.7783 54.86 75.2983 55.364 74.1703 55.364H72.5983ZM78.1783 56H78.9343V49.844H78.1783V56ZM81.147 56H81.987L85.539 50.84H85.575L85.563 56H86.319V49.844H85.479L81.927 55.004H81.891L81.903 49.844H81.147V56ZM83.739 48.632C84.687 48.632 85.539 48.152 85.599 46.988H84.951C84.867 47.732 84.399 48.032 83.739 48.032C83.103 48.032 82.635 47.732 82.551 46.988H81.879C81.939 48.152 82.791 48.632 83.739 48.632ZM37.2172 72.096C37.6492 72.096 38.0332 72.048 38.5252 71.856V71.184C38.0932 71.352 37.6612 71.46 37.2052 71.46C35.7772 71.46 34.9372 70.5 34.9372 68.868C34.9372 67.344 35.7292 66.384 37.1332 66.384C37.7692 66.384 38.2612 66.552 38.4772 66.6V65.928C37.8412 65.748 37.3852 65.748 37.1932 65.748C35.2492 65.748 34.1452 66.984 34.1452 68.844C34.1452 70.812 35.2012 72.096 37.2172 72.096ZM41.7814 72H42.5254V66.48H44.6974V65.844H39.6094V66.48H41.7814V72ZM51.0793 69.144V68.904C51.0793 67.836 50.8993 65.748 48.4393 65.748C46.7593 65.748 45.5593 66.888 45.5593 68.82C45.5593 70.932 46.7713 72.096 48.7513 72.096C49.3273 72.096 49.9513 72.024 50.6353 71.76V71.064C49.9633 71.376 49.3153 71.46 48.7753 71.46C47.2153 71.46 46.4113 70.572 46.3153 69.144H51.0793ZM48.4393 66.384C50.2033 66.384 50.2993 68.016 50.2873 68.508H46.3273C46.4353 67.188 47.2393 66.384 48.4393 66.384ZM52.8696 72H53.6256V69.144H55.3536L57.3696 72H58.3056L56.0256 68.784L58.1016 65.844H57.1896L55.3176 68.508H53.6256V65.844H52.8696V72Z" fill="#EBEDF0"></path> </g> <defs> <clipPath id="clip0_196_7690"> <rect width="91" height="76" fill="white" transform="translate(0.5)"></rect> </clipPath> </defs> </svg> 