<?xml version="1.0" encoding="UTF-8"?> <svg xmlns="http://www.w3.org/2000/svg" width="76" height="76" viewBox="0 0 76 76" fill="none"> <g clip-path="url(#clip0_196_7703)"> <path d="M47.5 6H29.5C29.2348 6 28.9804 6.10536 28.7929 6.29289C28.6054 6.48043 28.5 6.73478 28.5 7V25C28.5 25.2652 28.6054 25.5196 28.7929 25.7071C28.9804 25.8946 29.2348 26 29.5 26H47.5C47.7652 26 48.0196 25.8946 48.2071 25.7071C48.3946 25.5196 48.5 25.2652 48.5 25V7C48.5 6.73478 48.3946 6.48043 48.2071 6.29289C48.0196 6.10536 47.7652 6 47.5 6V6ZM34.5 24H30.5V8H34.5V24ZM46.5 24H36.5V17H46.5V24ZM46.5 15H36.5V8H46.5V15Z" fill="white"></path> <path d="M5.21033 56H6.00233V48.344H6.02633L8.81033 53.6H9.48233L12.2663 48.344H12.2903V56H13.0823V47.6H11.8463L9.15833 52.748L6.45833 47.6H5.21033V56ZM17.9134 56.096C19.7254 56.096 20.9374 54.836 20.9374 52.928C20.9374 51.008 19.7374 49.748 17.9134 49.748C16.0894 49.748 14.8894 51.008 14.8894 52.928C14.8894 54.836 16.1014 56.096 17.9134 56.096ZM17.9134 55.46C16.3534 55.46 15.6814 54.116 15.6814 52.928C15.6814 51.728 16.3534 50.384 17.9134 50.384C19.4734 50.384 20.1454 51.728 20.1454 52.928C20.1454 54.116 19.4734 55.46 17.9134 55.46ZM21.6602 55.364V57.656H22.4162V56H27.6962V57.656H28.4522V55.364H27.5162V49.844H23.1602V51.668C23.1602 53.372 23.0042 54.308 22.3802 55.364H21.6602ZM23.9162 51.68V50.48H26.7602V55.364H23.2442C23.8082 54.26 23.9162 53.456 23.9162 51.68ZM30.4409 58.64C31.2929 58.64 31.6409 58.016 31.9289 57.308L34.9649 49.844H34.1609L32.0489 55.148H32.0009L29.8769 49.844H29.0609L31.6049 56.168L31.1969 57.164C30.9329 57.812 30.7049 57.956 30.3449 57.956C30.0329 57.956 29.7569 57.848 29.7569 57.848V58.532C29.7689 58.532 30.1049 58.64 30.4409 58.64ZM35.7242 56.096C36.7682 56.096 37.4522 55.4 37.4522 51.32V50.48H40.2962V56H41.0522V49.844H36.6962V51.32C36.6962 54.992 36.1802 55.412 35.5922 55.412C35.3042 55.412 35.1362 55.352 35.1362 55.352V56.036C35.1362 56.036 35.4242 56.096 35.7242 56.096ZM43.2583 56H45.7783C47.4583 56 48.1783 55.256 48.1783 54.02C48.1783 52.784 47.4583 52.04 45.7783 52.04H44.0143V49.844H43.2583V56ZM45.7783 52.676C46.9063 52.676 47.3863 53.18 47.3863 54.02C47.3863 54.86 46.9063 55.364 45.7783 55.364H44.0143V52.676H45.7783ZM49.6216 56H50.3776V53.12H53.9776V56H54.7336V49.844H53.9776V52.484H50.3776V49.844H49.6216V56ZM58.3378 56.096C59.0938 56.096 60.0058 55.868 60.6538 55.028H60.7018V56H61.4338V52.064C61.4338 50.408 60.5458 49.748 58.9378 49.748C58.1578 49.748 57.3898 49.916 56.8738 50.096V50.792C57.5218 50.504 58.3258 50.396 58.9138 50.396C60.1138 50.396 60.6778 50.804 60.6778 52.064V52.22L59.8258 52.244C57.3898 52.316 56.3818 53.084 56.3818 54.308C56.3818 55.256 57.0298 56.096 58.3378 56.096ZM58.5538 55.46C57.6418 55.46 57.1738 54.992 57.1738 54.296C57.1738 53.492 57.7978 52.94 59.8258 52.88L60.6778 52.856V53.36C60.6778 54.584 59.8618 55.46 58.5538 55.46ZM63.0852 56H63.9972L65.3172 53.624C65.4132 53.636 65.5092 53.636 65.6052 53.636H67.3932V56H68.1492V49.844H65.6052C64.0452 49.844 63.3252 50.552 63.3252 51.74C63.3252 52.688 63.8172 53.24 64.5492 53.48L63.0852 56ZM65.6052 53C64.5972 53 64.1172 52.532 64.1172 51.74C64.1172 50.948 64.5972 50.48 65.6052 50.48H67.3932V53H65.6052ZM12.2543 72.096C12.6863 72.096 13.0703 72.048 13.5623 71.856V71.184C13.1303 71.352 12.6983 71.46 12.2423 71.46C10.8143 71.46 9.97433 70.5 9.97433 68.868C9.97433 67.344 10.7663 66.384 12.1703 66.384C12.8063 66.384 13.2983 66.552 13.5143 66.6V65.928C12.8783 65.748 12.4223 65.748 12.2303 65.748C10.2863 65.748 9.18233 66.984 9.18233 68.844C9.18233 70.812 10.2383 72.096 12.2543 72.096ZM16.8185 72H17.5625V66.48H19.7345V65.844H14.6465V66.48H16.8185V72ZM21.9362 70.908H21.9602C22.3562 71.58 23.1362 72.096 24.1562 72.096C25.8122 72.096 26.9402 70.896 26.9402 68.928C26.9402 66.996 25.7282 65.748 24.0842 65.748C23.0762 65.748 22.4282 66.228 21.9602 66.804H21.9122V65.844H21.1802V74.64H21.9362V70.908ZM24.0722 71.46C23.1362 71.46 21.9242 70.764 21.9242 68.94C21.9242 67.452 22.8002 66.384 24.0602 66.384C25.2962 66.384 26.1482 67.452 26.1482 68.94C26.1482 70.524 25.2122 71.46 24.0722 71.46ZM29.187 74.64C30.039 74.64 30.387 74.016 30.675 73.308L33.711 65.844H32.907L30.795 71.148H30.747L28.623 65.844H27.807L30.351 72.168L29.943 73.164C29.679 73.812 29.451 73.956 29.091 73.956C28.779 73.956 28.503 73.848 28.503 73.848V74.532C28.515 74.532 28.851 74.64 29.187 74.64ZM35.1606 72H35.9166V69.144H37.6446L39.6606 72H40.5966L38.3166 68.784L40.3926 65.844H39.4806L37.6086 68.508H35.9166V65.844H35.1606V72ZM43.3498 72H44.0938V66.48H46.2658V65.844H41.1778V66.48H43.3498V72ZM48.4526 74.64C49.3046 74.64 49.6526 74.016 49.9406 73.308L52.9766 65.844H52.1726L50.0606 71.148H50.0126L47.8886 65.844H47.0726L49.6166 72.168L49.2086 73.164C48.9446 73.812 48.7166 73.956 48.3566 73.956C48.0446 73.956 47.7686 73.848 47.7686 73.848V74.532C47.7806 74.532 48.1166 74.64 48.4526 74.64ZM55.1823 70.908H55.2063C55.6023 71.58 56.3823 72.096 57.4023 72.096C59.0583 72.096 60.1863 70.896 60.1863 68.928C60.1863 66.996 58.9743 65.748 57.3303 65.748C56.3223 65.748 55.6743 66.228 55.2063 66.804H55.1583V65.844H54.4263V74.64H55.1823V70.908ZM57.3183 71.46C56.3823 71.46 55.1703 70.764 55.1703 68.94C55.1703 67.452 56.0463 66.384 57.3063 66.384C58.5423 66.384 59.3943 67.452 59.3943 68.94C59.3943 70.524 58.4583 71.46 57.3183 71.46ZM63.3183 72.096C64.0743 72.096 64.9863 71.868 65.6343 71.028H65.6823V72H66.4143V68.064C66.4143 66.408 65.5263 65.748 63.9183 65.748C63.1383 65.748 62.3703 65.916 61.8543 66.096V66.792C62.5023 66.504 63.3063 66.396 63.8943 66.396C65.0943 66.396 65.6583 66.804 65.6583 68.064V68.22L64.8063 68.244C62.3703 68.316 61.3623 69.084 61.3623 70.308C61.3623 71.256 62.0103 72.096 63.3183 72.096ZM63.5343 71.46C62.6223 71.46 62.1543 70.992 62.1543 70.296C62.1543 69.492 62.7783 68.94 64.8063 68.88L65.6583 68.856V69.36C65.6583 70.584 64.8423 71.46 63.5343 71.46Z" fill="#EBEDF0"></path> </g> <defs> <clipPath id="clip0_196_7703"> <rect width="75" height="76" fill="white" transform="translate(0.5)"></rect> </clipPath> </defs> </svg> 