<?xml version="1.0" encoding="UTF-8"?> <svg xmlns="http://www.w3.org/2000/svg" width="33" height="32" viewBox="0 0 33 32" fill="none"> <path d="M11.5816 9.04408H6.53469C6.36569 9.04408 6.20361 8.97662 6.0841 8.85656C5.9646 8.73649 5.89746 8.57364 5.89746 8.40384V4.73209C5.89746 4.56229 5.9646 4.39944 6.0841 4.27937C6.20361 4.1593 6.36569 4.09185 6.53469 4.09185H15.8319C15.9249 4.09065 16.017 4.10991 16.1018 4.14829C16.1866 4.18666 16.262 4.24322 16.3228 4.314C16.3835 4.38477 16.4281 4.46805 16.4533 4.55797C16.4786 4.64789 16.484 4.74229 16.4691 4.83453C16.2907 6.00774 15.6993 7.07773 14.8025 7.85015C13.9057 8.62258 12.7628 9.0462 11.5816 9.04408Z" fill="white"></path> <path d="M13.8521 22.2603V15.9982C13.8521 12.8404 15.1085 9.81199 17.345 7.5791C19.5814 5.34622 22.6147 4.0918 25.7776 4.0918H26.4576C26.6286 4.0918 26.7926 4.15961 26.9135 4.2803C27.0343 4.401 27.1023 4.5647 27.1023 4.73539V8.42316C27.1023 8.59385 27.0343 8.75755 26.9135 8.87824C26.7926 8.99894 26.6286 9.06675 26.4576 9.06675H19.8277C19.6567 9.06675 19.4928 9.13455 19.3719 9.25525C19.251 9.37595 19.1831 9.53965 19.1831 9.71034V15.9564C19.1831 19.1141 17.9267 22.1426 15.6902 24.3755C13.4537 26.6084 10.4204 27.8628 7.25761 27.8628H6.54208C6.37112 27.8628 6.20716 27.795 6.08627 27.6743C5.96538 27.5536 5.89746 27.3899 5.89746 27.2192V23.5218C5.89746 23.3511 5.96538 23.1874 6.08627 23.0667C6.20716 22.946 6.37112 22.8782 6.54208 22.8782H13.2171C13.382 22.8758 13.5398 22.8105 13.6579 22.6956C13.776 22.5806 13.8455 22.4249 13.8521 22.2603Z" fill="white"></path> <path d="M21.3934 22.9105H26.4166C26.5865 22.9105 26.7494 22.9784 26.8696 23.0992C26.9897 23.2201 27.0573 23.384 27.0573 23.5549V27.2634C27.0573 27.4343 26.9897 27.5982 26.8696 27.719C26.7494 27.8399 26.5865 27.9078 26.4166 27.9078H17.1263C17.0328 27.909 16.9402 27.8896 16.8549 27.851C16.7697 27.8123 16.6939 27.7554 16.6328 27.6842C16.5717 27.6129 16.5269 27.5291 16.5015 27.4386C16.4761 27.3481 16.4707 27.2531 16.4856 27.1603C16.6627 25.9785 17.2553 24.8997 18.1559 24.1199C19.0564 23.3402 20.2051 22.911 21.3934 22.9105Z" fill="white"></path> </svg> 