<?xml version="1.0" encoding="UTF-8"?> <svg xmlns="http://www.w3.org/2000/svg" width="83" height="62" viewBox="0 0 83 62" fill="none"> <path d="M45.5125 5C43.4673 4.99997 41.4626 5.56946 39.7228 6.64465C37.9831 7.71984 36.5771 9.25825 35.6625 11.0875C34.899 12.5992 34.5008 14.2689 34.5 15.9625C34.5044 16.22 34.4116 16.4697 34.2402 16.662C34.0688 16.8542 33.8313 16.9749 33.575 17C33.4375 17.0103 33.2994 16.9921 33.1692 16.9465C33.0391 16.9009 32.9198 16.8289 32.8189 16.735C32.7179 16.6411 32.6375 16.5273 32.5826 16.4008C32.5277 16.2743 32.4996 16.1379 32.5 16C32.5005 14.6026 32.7242 13.2143 33.1625 11.8875C33.1918 11.8029 33.1978 11.712 33.1799 11.6243C33.162 11.5366 33.1209 11.4552 33.0609 11.3888C33.0009 11.3224 32.9241 11.2733 32.8386 11.2467C32.7532 11.2201 32.6621 11.2169 32.575 11.2375C30.8411 11.6674 29.3009 12.6652 28.2 14.072C27.099 15.4788 26.5005 17.2136 26.5 19C26.5 23.4 30.225 27 34.6125 27H45.5C48.4174 27.0017 51.2159 25.8443 53.28 23.7826C55.3441 21.7209 56.5046 18.9236 56.5063 16.0063C56.5079 13.0889 55.3506 10.2903 53.2888 8.22624C51.2271 6.16217 48.4299 5.00166 45.5125 5Z" fill="white"></path> <path d="M3.44163 59.12C5.42163 59.12 6.46563 58.088 6.46563 56.66C6.46563 55.148 5.28963 54.572 4.24563 54.08C3.42963 53.684 2.69763 53.324 2.69763 52.592C2.69763 52.016 3.12963 51.536 4.24563 51.536C4.65363 51.536 5.40963 51.596 6.06963 51.884V50.78C5.80563 50.684 5.14563 50.48 4.24563 50.48C2.38563 50.48 1.42563 51.428 1.42563 52.748C1.42563 54.08 2.54163 54.632 3.56163 55.124C4.41363 55.544 5.19363 55.928 5.19363 56.708C5.19363 57.416 4.56963 58.064 3.46563 58.064C2.90163 58.064 2.04963 57.896 1.52163 57.668V58.772C2.30163 59.048 2.97363 59.12 3.44163 59.12ZM9.69691 59.096C10.4649 59.096 11.3289 58.82 11.8449 58.064H11.8689V59H13.0209V55.196C13.0209 53.504 12.0369 52.784 10.3689 52.784C9.62491 52.784 8.78491 52.928 8.17291 53.192V54.248C8.90491 53.852 9.57691 53.72 10.2249 53.72C11.2329 53.72 11.8929 54.104 11.8929 54.98V55.184H10.7649C8.62891 55.184 7.60891 55.928 7.60891 57.26C7.60891 58.4 8.42491 59.096 9.69691 59.096ZM9.97291 58.136C9.25291 58.136 8.80891 57.8 8.80891 57.188C8.80891 56.528 9.32491 56.048 10.8129 56.048H11.8929V56.432C11.8929 57.368 11.0889 58.136 9.97291 58.136ZM16.3883 59.096C17.1563 59.096 18.0203 58.82 18.5363 58.064H18.5603V59H19.7123V55.196C19.7123 53.504 18.7283 52.784 17.0603 52.784C16.3163 52.784 15.4763 52.928 14.8643 53.192V54.248C15.5963 53.852 16.2683 53.72 16.9163 53.72C17.9243 53.72 18.5843 54.104 18.5843 54.98V55.184H17.4563C15.3203 55.184 14.3003 55.928 14.3003 57.26C14.3003 58.4 15.1163 59.096 16.3883 59.096ZM16.6643 58.136C15.9443 58.136 15.5003 57.8 15.5003 57.188C15.5003 56.528 16.0163 56.048 17.5043 56.048H18.5843V56.432C18.5843 57.368 17.7803 58.136 16.6643 58.136ZM23.1877 59.12C25.1677 59.12 26.2117 58.088 26.2117 56.66C26.2117 55.148 25.0357 54.572 23.9917 54.08C23.1757 53.684 22.4437 53.324 22.4437 52.592C22.4437 52.016 22.8757 51.536 23.9917 51.536C24.3997 51.536 25.1557 51.596 25.8157 51.884V50.78C25.5517 50.684 24.8917 50.48 23.9917 50.48C22.1317 50.48 21.1717 51.428 21.1717 52.748C21.1717 54.08 22.2877 54.632 23.3077 55.124C24.1597 55.544 24.9397 55.928 24.9397 56.708C24.9397 57.416 24.3157 58.064 23.2117 58.064C22.6477 58.064 21.7957 57.896 21.2677 57.668V58.772C22.0477 59.048 22.7197 59.12 23.1877 59.12ZM32.4726 60.68H33.5526C32.7366 59.372 31.7046 57.308 31.7046 55.304C31.7046 53.324 32.7606 51.224 33.5526 49.928H32.4726C30.6726 52.52 30.5046 54.44 30.5046 55.304C30.5046 56.096 30.6366 58.136 32.4726 60.68ZM38.3359 59.12C40.7719 59.12 42.2479 57.332 42.2479 54.8C42.2479 52.316 40.7959 50.48 38.3359 50.48C35.8999 50.48 34.4239 52.28 34.4239 54.8C34.4239 57.296 35.8759 59.12 38.3359 59.12ZM38.3359 58.064C36.6199 58.064 35.6719 56.612 35.6719 54.8C35.6719 53.012 36.6199 51.536 38.3359 51.536C40.0279 51.536 40.9999 52.976 40.9999 54.8C40.9999 56.576 40.0639 58.064 38.3359 58.064ZM46.6159 59.096C48.4399 59.096 49.6879 57.776 49.6879 55.94C49.6879 54.08 48.5719 52.784 46.8319 52.784C45.8119 52.784 44.9839 53.288 44.5279 54.044H44.4679L44.4799 53.744C44.5399 52.256 45.1879 51.224 46.7359 50.96C47.5399 50.828 48.2959 50.924 49.1479 50.696V49.7C47.9959 50 47.3599 49.772 46.2199 50.06C44.1439 50.588 43.4239 52.28 43.4239 54.476C43.4239 57.248 44.2639 59.096 46.6159 59.096ZM46.6159 58.184C45.4999 58.184 44.7319 57.2 44.7319 55.94C44.7319 54.74 45.4399 53.696 46.6159 53.696C47.7919 53.696 48.4879 54.74 48.4879 55.94C48.4879 57.164 47.7559 58.184 46.6159 58.184ZM50.8922 59.096C52.1642 59.096 52.7522 57.68 52.7522 53.96V53.792H55.1162V59H56.2442V52.88H51.7322V53.36C51.7322 56.78 51.4682 58.052 50.6762 58.052C50.5082 58.052 50.3282 57.992 50.3282 57.992V59.012C50.3282 59.024 50.6042 59.096 50.8922 59.096ZM59.8063 59.096C60.5743 59.096 61.4383 58.82 61.9543 58.064H61.9783V59H63.1303V55.196C63.1303 53.504 62.1463 52.784 60.4783 52.784C59.7343 52.784 58.8943 52.928 58.2823 53.192V54.248C59.0143 53.852 59.6863 53.72 60.3343 53.72C61.3423 53.72 62.0023 54.104 62.0023 54.98V55.184H60.8743C58.7383 55.184 57.7183 55.928 57.7183 57.26C57.7183 58.4 58.5343 59.096 59.8063 59.096ZM60.0823 58.136C59.3623 58.136 58.9183 57.8 58.9183 57.188C58.9183 56.528 59.4343 56.048 60.9223 56.048H62.0023V56.432C62.0023 57.368 61.1983 58.136 60.0823 58.136ZM64.9257 59H66.0537V56.264H67.1817L69.1737 59H70.5777L68.2017 55.784L70.2897 52.88H68.9697L67.1937 55.352H66.0537V52.88H64.9257V59ZM74.3177 59.096C76.1657 59.096 77.4497 57.812 77.4497 55.94C77.4497 54.068 76.1657 52.784 74.3177 52.784C72.4697 52.784 71.1857 54.068 71.1857 55.94C71.1857 57.812 72.4697 59.096 74.3177 59.096ZM74.3177 58.184C73.2617 58.184 72.3857 57.308 72.3857 55.94C72.3857 54.572 73.2617 53.696 74.3177 53.696C75.3617 53.696 76.2497 54.572 76.2497 55.94C76.2497 57.308 75.3737 58.184 74.3177 58.184ZM78.3271 60.68H79.4071C81.2071 58.088 81.3751 56.168 81.3751 55.304C81.3751 54.512 81.2431 52.472 79.4071 49.928H78.3271C79.1431 51.236 80.1751 53.3 80.1751 55.304C80.1751 57.284 79.1191 59.384 78.3271 60.68Z" fill="#EBEDF0"></path> </svg> 