<?xml version="1.0" encoding="UTF-8"?> <svg xmlns="http://www.w3.org/2000/svg" width="32" height="33" viewBox="0 0 32 33" fill="none"> <path fill-rule="evenodd" clip-rule="evenodd" d="M9.0957 8.82105C9.0957 5.00791 12.1869 1.91675 16 1.91675C19.8131 1.91675 22.9043 5.00791 22.9043 8.82104V14.0435C25.0697 14.5078 26.6932 16.4327 26.6932 18.7368V24.9801C26.6932 27.6311 24.5442 29.7801 21.8932 29.7801H10.1069C7.45593 29.7801 5.30688 27.6311 5.30688 24.9801V18.7368C5.30688 16.4327 6.9303 14.5078 9.0957 14.0435V8.82105ZM20.4043 8.82104V13.9368H11.5957V8.82105C11.5957 6.38862 13.5676 4.41675 16 4.41675C18.4324 4.41675 20.4043 6.38862 20.4043 8.82104ZM14.075 20.8059C14.075 19.7427 14.9368 18.8809 16 18.8809C17.0631 18.8809 17.925 19.7427 17.925 20.8059C17.925 21.3919 17.6631 21.9168 17.25 22.2698V24.136C17.25 24.5226 16.9366 24.836 16.55 24.836H15.45C15.0634 24.836 14.75 24.5226 14.75 24.136V22.2699C14.3369 21.9168 14.075 21.392 14.075 20.8059Z" fill="white"></path> </svg> 