<?xml version="1.0" encoding="UTF-8"?> <svg xmlns="http://www.w3.org/2000/svg" width="33" height="32" viewBox="0 0 33 32" fill="none"> <path d="M14.8136 4.67788C14.8532 3.67803 15.479 2.96573 16.3805 2.96573C17.282 2.96573 17.8343 3.7306 17.8802 4.75288C17.9204 5.64671 18.0432 12.477 18.0735 14.1792C18.0775 14.4018 18.2432 14.5896 18.4681 14.6273C18.7299 14.671 18.9773 14.499 19.0172 14.2426C19.2756 12.5817 20.1504 6.9821 20.3459 6.01112C20.5761 4.86843 21.1697 4.30837 22.1181 4.43927C23.009 4.56226 23.3498 5.29406 23.2289 6.50146C23.1235 7.55692 22.3683 13.7161 22.1798 15.2497C22.1546 15.4545 22.2721 15.6501 22.4672 15.7294C22.7247 15.8338 23.0179 15.701 23.0996 15.4408C23.4615 14.288 24.3905 11.332 24.9986 9.41821C25.3923 8.17925 25.9572 7.66126 26.8644 7.9094C27.7716 8.15755 27.8991 8.89106 27.6287 10.2401C27.3583 11.5892 26.4556 16.299 25.4381 20.3725C23.9236 26.4352 21.2782 28.7009 17.0848 28.7009C12.2097 28.7009 10.9309 27.056 6.38436 21.8625C5.31502 20.6411 4.96889 20.3889 3.98884 19.0499C3.06516 17.7877 3.04128 16.9399 3.69658 16.3198C4.67699 15.3919 5.9771 16.1993 6.96339 16.9782C8.14442 17.911 9.27192 18.7872 9.77639 19.1781C9.94246 19.3069 10.1728 19.3191 10.3529 19.2098C10.5143 19.1118 10.6053 18.9338 10.5877 18.749C10.411 16.8877 9.47091 6.98679 9.3734 5.99468C9.2657 4.89911 9.7006 4.04232 10.701 3.93871C11.7015 3.8351 12.331 4.69366 12.4732 5.67395C12.5964 6.52315 13.4414 12.4993 13.6652 14.0827C13.6967 14.3048 13.8906 14.4669 14.1205 14.4669C14.3707 14.4669 14.5748 14.276 14.5805 14.032C14.6221 12.2481 14.7792 5.54355 14.8136 4.67788Z" fill="#EBEDF0"></path> </svg> 