<?xml version="1.0" encoding="UTF-8"?> <svg xmlns="http://www.w3.org/2000/svg" width="158" height="77" viewBox="0 0 158 77" fill="none"> <g clip-path="url(#clip0_196_7522)"> <path d="M66 23.5V20.6375C66 13.45 71.775 7.52497 78.95 7.49997C80.6614 7.49339 82.3572 7.82479 83.9402 8.47515C85.5232 9.12552 86.9623 10.082 88.1747 11.2899C89.3872 12.4977 90.3492 13.933 91.0057 15.5135C91.6621 17.094 92 18.7886 92 20.5V23.5C92 23.7652 91.8946 24.0195 91.7071 24.2071C91.5196 24.3946 91.2652 24.5 91 24.5H67C66.7348 24.5 66.4804 24.3946 66.2929 24.2071C66.1054 24.0195 66 23.7652 66 23.5Z" stroke="white" stroke-width="2" stroke-linecap="round" stroke-linejoin="round"></path> <path d="M79 7.5V11.5" stroke="white" stroke-width="2" stroke-linecap="round" stroke-linejoin="round"></path> <path d="M66.4375 17.1375L70.3125 18.175" stroke="white" stroke-width="2" stroke-linecap="round" stroke-linejoin="round"></path> <path d="M91.5625 17.1375L87.6875 18.175" stroke="white" stroke-width="2" stroke-linecap="round" stroke-linejoin="round"></path> <path d="M81.5498 24.5L72.9998 13.3625" stroke="white" stroke-width="2" stroke-linecap="round" stroke-linejoin="round"></path> <path d="M18.7006 56.5H19.4926V52.492H24.1006V56.5H24.8926V48.1H24.1006V51.808H19.4926V48.1H18.7006V56.5ZM27.1001 56.5H27.9401L31.4921 51.34H31.5281L31.5161 56.5H32.2721V50.344H31.4321L27.8801 55.504H27.8441L27.8561 50.344H27.1001V56.5ZM35.8389 56.596C37.5189 56.596 38.4669 55.864 38.4669 54.76C38.4669 53.788 37.7469 53.368 37.2549 53.26V53.224C37.7589 53.056 38.2389 52.648 38.2389 51.892C38.2389 50.968 37.5549 50.248 35.9469 50.248C35.3229 50.248 34.7469 50.332 34.1589 50.512V51.196C34.6269 51.016 35.2749 50.896 35.9349 50.896C37.0509 50.896 37.4829 51.304 37.4829 51.904C37.4829 52.564 36.9909 52.984 35.9709 52.984H35.0109V53.62H35.9709C37.2549 53.62 37.6749 54.148 37.6749 54.748C37.6749 55.528 36.9789 55.948 35.8749 55.948C35.2869 55.948 34.5789 55.852 34.0149 55.588V56.332C34.7709 56.548 35.3349 56.596 35.8389 56.596ZM40.2485 56.5H41.0045V53.644H42.7325L44.7485 56.5H45.6845L43.4045 53.284L45.4805 50.344H44.5685L42.6965 53.008H41.0045V50.344H40.2485V56.5ZM49.5325 56.596C51.3445 56.596 52.5565 55.336 52.5565 53.428C52.5565 51.508 51.3565 50.248 49.5325 50.248C47.7085 50.248 46.5085 51.508 46.5085 53.428C46.5085 55.336 47.7205 56.596 49.5325 56.596ZM49.5325 55.96C47.9725 55.96 47.3005 54.616 47.3005 53.428C47.3005 52.228 47.9725 50.884 49.5325 50.884C51.0925 50.884 51.7645 52.228 51.7645 53.428C51.7645 54.616 51.0925 55.96 49.5325 55.96ZM59.4699 53.644V53.404C59.4699 52.336 59.2899 50.248 56.8299 50.248C55.1499 50.248 53.9499 51.388 53.9499 53.32C53.9499 55.432 55.1619 56.596 57.1419 56.596C57.7179 56.596 58.3419 56.524 59.0259 56.26V55.564C58.3539 55.876 57.7059 55.96 57.1659 55.96C55.6059 55.96 54.8019 55.072 54.7059 53.644H59.4699ZM56.8299 50.884C58.5939 50.884 58.6899 52.516 58.6779 53.008H54.7179C54.8259 51.688 55.6299 50.884 56.8299 50.884ZM64.0259 56.5H64.7819V50.98H68.2619V56.5H69.0179V50.344H64.0259V56.5ZM73.8372 56.596C75.6492 56.596 76.8612 55.336 76.8612 53.428C76.8612 51.508 75.6612 50.248 73.8372 50.248C72.0132 50.248 70.8132 51.508 70.8132 53.428C70.8132 55.336 72.0252 56.596 73.8372 56.596ZM73.8372 55.96C72.2772 55.96 71.6052 54.616 71.6052 53.428C71.6052 52.228 72.2772 50.884 73.8372 50.884C75.3972 50.884 76.0692 52.228 76.0692 53.428C76.0692 54.616 75.3972 55.96 73.8372 55.96ZM79.8908 56.5H80.6348V50.98H82.8068V50.344H77.7188V50.98H79.8908V56.5ZM85.0084 55.408H85.0324C85.4284 56.08 86.2084 56.596 87.2284 56.596C88.8844 56.596 90.0124 55.396 90.0124 53.428C90.0124 51.496 88.8004 50.248 87.1564 50.248C86.1484 50.248 85.5004 50.728 85.0324 51.304H84.9844V50.344H84.2524V59.14H85.0084V55.408ZM87.1444 55.96C86.2084 55.96 84.9964 55.264 84.9964 53.44C84.9964 51.952 85.8724 50.884 87.1324 50.884C88.3684 50.884 89.2204 51.952 89.2204 53.44C89.2204 55.024 88.2844 55.96 87.1444 55.96ZM96.923 53.644V53.404C96.923 52.336 96.743 50.248 94.283 50.248C92.603 50.248 91.403 51.388 91.403 53.32C91.403 55.432 92.615 56.596 94.595 56.596C95.171 56.596 95.795 56.524 96.479 56.26V55.564C95.807 55.876 95.159 55.96 94.619 55.96C93.059 55.96 92.255 55.072 92.159 53.644H96.923ZM94.283 50.884C96.047 50.884 96.143 52.516 96.131 53.008H92.171C92.279 51.688 93.083 50.884 94.283 50.884ZM98.3054 52.348C98.3054 54.88 99.1334 56.596 101.425 56.596C103.189 56.596 104.353 55.384 104.353 53.476C104.353 51.268 103.009 50.248 101.497 50.248C100.405 50.248 99.5054 50.788 99.0134 51.604H98.9774C99.0974 49.792 99.8174 48.484 101.581 48.16C102.085 48.052 102.769 48.004 103.777 47.86V47.212C102.769 47.392 102.097 47.44 101.581 47.524C99.2174 47.908 98.3054 49.732 98.3054 52.348ZM101.401 55.96C100.165 55.96 99.1214 55.084 99.1214 53.404C99.1214 51.7 100.225 50.884 101.413 50.884C102.541 50.884 103.561 51.736 103.561 53.476C103.561 55.144 102.541 55.96 101.401 55.96ZM105.582 56.596C106.626 56.596 107.31 55.9 107.31 51.82V50.98H110.154V56.5H110.91V50.344H106.554V51.82C106.554 55.492 106.038 55.912 105.45 55.912C105.162 55.912 104.994 55.852 104.994 55.852V56.536C104.994 56.536 105.282 56.596 105.582 56.596ZM118.228 53.644V53.404C118.228 52.336 118.048 50.248 115.588 50.248C113.908 50.248 112.708 51.388 112.708 53.32C112.708 55.432 113.92 56.596 115.9 56.596C116.476 56.596 117.1 56.524 117.784 56.26V55.564C117.112 55.876 116.464 55.96 115.924 55.96C114.364 55.96 113.56 55.072 113.464 53.644H118.228ZM115.588 50.884C117.352 50.884 117.448 52.516 117.436 53.008H113.476C113.584 51.688 114.388 50.884 115.588 50.884ZM120.018 56.5H120.774V53.62H124.374V56.5H125.13V50.344H124.374V52.984H120.774V50.344H120.018V56.5ZM127.342 56.5H128.182L131.734 51.34H131.77L131.758 56.5H132.514V50.344H131.674L128.122 55.504H128.086L128.098 50.344H127.342V56.5ZM139.837 53.644V53.404C139.837 52.336 139.657 50.248 137.197 50.248C135.517 50.248 134.317 51.388 134.317 53.32C134.317 55.432 135.529 56.596 137.509 56.596C138.085 56.596 138.709 56.524 139.393 56.26V55.564C138.721 55.876 138.073 55.96 137.533 55.96C135.973 55.96 135.169 55.072 135.073 53.644H139.837ZM137.197 50.884C138.961 50.884 139.057 52.516 139.045 53.008H135.085C135.193 51.688 135.997 50.884 137.197 50.884ZM56.3596 72.5H57.1036V66.98H59.2756V66.344H54.1876V66.98H56.3596V72.5ZM61.4772 71.408H61.5012C61.8972 72.08 62.6772 72.596 63.6972 72.596C65.3532 72.596 66.4812 71.396 66.4812 69.428C66.4812 67.496 65.2692 66.248 63.6252 66.248C62.6172 66.248 61.9692 66.728 61.5012 67.304H61.4532V66.344H60.7212V75.14H61.4772V71.408ZM63.6132 71.96C62.6772 71.96 61.4652 71.264 61.4652 69.44C61.4652 67.952 62.3412 66.884 63.6012 66.884C64.8372 66.884 65.6892 67.952 65.6892 69.44C65.6892 71.024 64.7532 71.96 63.6132 71.96ZM69.6132 72.596C70.3692 72.596 71.2812 72.368 71.9292 71.528H71.9772V72.5H72.7092V68.564C72.7092 66.908 71.8212 66.248 70.2132 66.248C69.4332 66.248 68.6652 66.416 68.1492 66.596V67.292C68.7972 67.004 69.6012 66.896 70.1892 66.896C71.3892 66.896 71.9532 67.304 71.9532 68.564V68.72L71.1012 68.744C68.6652 68.816 67.6572 69.584 67.6572 70.808C67.6572 71.756 68.3052 72.596 69.6132 72.596ZM69.8292 71.96C68.9172 71.96 68.4492 71.492 68.4492 70.796C68.4492 69.992 69.0732 69.44 71.1012 69.38L71.9532 69.356V69.86C71.9532 71.084 71.1372 71.96 69.8292 71.96ZM78.1766 75.128H78.9206V72.56C79.0766 72.572 79.2686 72.596 79.4846 72.596C81.2966 72.596 82.5926 71.456 82.5926 69.38C82.5926 67.472 81.4166 66.248 79.5806 66.248C79.3886 66.248 79.0766 66.26 78.9206 66.272V63.356H78.1766V66.272C78.0086 66.26 77.7086 66.248 77.5166 66.248C75.6806 66.248 74.5046 67.472 74.5046 69.38C74.5046 71.456 75.8006 72.596 77.6126 72.596C77.8286 72.596 78.0086 72.572 78.1766 72.56V75.128ZM79.5446 66.884C80.9486 66.884 81.8006 67.808 81.8006 69.404C81.8006 71.144 80.8646 71.96 79.3766 71.96C79.2326 71.96 79.0646 71.96 78.9206 71.948V66.908C79.1006 66.896 79.3526 66.884 79.5446 66.884ZM77.7206 71.96C76.2326 71.96 75.2966 71.144 75.2966 69.404C75.2966 67.808 76.1486 66.884 77.5526 66.884C77.7326 66.884 77.9846 66.896 78.1766 66.908V71.948C78.0206 71.96 77.8646 71.96 77.7206 71.96ZM84.3931 72.5H85.2331L88.7851 67.34H88.8211L88.8091 72.5H89.5651V66.344H88.7251L85.1731 71.504H85.1371L85.1491 66.344H84.3931V72.5ZM91.7759 72.5H92.5319V69.644H94.2599L96.2759 72.5H97.2119L94.9319 69.284L97.0079 66.344H96.0959L94.2239 69.008H92.5319V66.344H91.7759V72.5ZM99.953 72.596C100.709 72.596 101.621 72.368 102.269 71.528H102.317V72.5H103.049V68.564C103.049 66.908 102.161 66.248 100.553 66.248C99.773 66.248 99.005 66.416 98.489 66.596V67.292C99.137 67.004 99.941 66.896 100.529 66.896C101.729 66.896 102.293 67.304 102.293 68.564V68.72L101.441 68.744C99.005 68.816 97.997 69.584 97.997 70.808C97.997 71.756 98.645 72.596 99.953 72.596ZM100.169 71.96C99.257 71.96 98.789 71.492 98.789 70.796C98.789 69.992 99.413 69.44 101.441 69.38L102.293 69.356V69.86C102.293 71.084 101.477 71.96 100.169 71.96Z" fill="#EBEDF0"></path> </g> <defs> <clipPath id="clip0_196_7522"> <rect width="158" height="76" fill="white" transform="translate(0 0.5)"></rect> </clipPath> </defs> </svg> 