<?xml version="1.0" encoding="UTF-8"?> <svg xmlns="http://www.w3.org/2000/svg" width="33" height="32" viewBox="0 0 33 32" fill="none"> <path d="M4.29087 15.8001C4.39593 15.8789 4.51548 15.9362 4.64269 15.9688C4.7699 16.0014 4.90229 16.0086 5.03229 15.9901C5.16229 15.9715 5.28736 15.9275 5.40036 15.8606C5.51336 15.7937 5.61208 15.7052 5.69087 15.6001C6.29633 14.7928 7.08142 14.1376 7.98398 13.6863C8.88654 13.235 9.88178 13.0001 10.8909 13.0001C11.9 13.0001 12.8952 13.235 13.7978 13.6863C14.7003 14.1376 15.4854 14.7928 16.0909 15.6001C16.2502 15.8121 16.4872 15.9521 16.7497 15.9894C17.0123 16.0266 17.2789 15.9581 17.4909 15.7989C17.5665 15.7426 17.6334 15.6757 17.6896 15.6001C18.2951 14.7928 19.0802 14.1376 19.9827 13.6863C20.8853 13.235 21.8805 13.0001 22.8896 13.0001C23.8987 13.0001 24.8939 13.235 25.7965 13.6863C26.6991 14.1376 27.4842 14.7928 28.0896 15.6001C28.2489 15.8123 28.486 15.9525 28.7486 15.9899C29.0113 16.0273 29.2781 15.9588 29.4902 15.7995C29.7024 15.6402 29.8426 15.4031 29.88 15.1405C29.9174 14.8778 29.8489 14.611 29.6896 14.3989C28.8045 13.2122 27.6241 12.2779 26.2659 11.6889C27.0105 11.009 27.5322 10.12 27.7625 9.13835C27.9927 8.15673 27.9209 7.12843 27.5563 6.18838C27.1917 5.24833 26.5515 4.44047 25.7195 3.87082C24.8876 3.30117 23.9029 2.99634 22.8946 2.99634C21.8864 2.99634 20.9016 3.30117 20.0697 3.87082C19.2378 4.44047 18.5975 5.24833 18.2329 6.18838C17.8684 7.12843 17.7965 8.15673 18.0268 9.13835C18.2571 10.12 18.7788 11.009 19.5234 11.6889C18.5427 12.1129 17.6518 12.72 16.8984 13.4776C16.145 12.72 15.2541 12.1129 14.2734 11.6889C15.018 11.009 15.5397 10.12 15.77 9.13835C16.0002 8.15673 15.9284 7.12843 15.5638 6.18838C15.1992 5.24833 14.559 4.44047 13.727 3.87082C12.8951 3.30117 11.9104 2.99634 10.9021 2.99634C9.89385 2.99634 8.90914 3.30117 8.07721 3.87082C7.24528 4.44047 6.60502 5.24833 6.24044 6.18838C5.87585 7.12843 5.80399 8.15673 6.03429 9.13835C6.26458 10.12 6.78626 11.009 7.53087 11.6889C6.16668 12.276 4.98049 13.2109 4.09087 14.4001C4.01208 14.5052 3.95475 14.6247 3.92216 14.7519C3.88956 14.8791 3.88235 15.0115 3.90092 15.1415C3.91949 15.2715 3.96349 15.3966 4.03039 15.5096C4.0973 15.6226 4.18581 15.7213 4.29087 15.8001ZM22.8909 5.0001C23.4842 5.0001 24.0642 5.17605 24.5576 5.5057C25.0509 5.83534 25.4354 6.30388 25.6625 6.85205C25.8896 7.40023 25.949 8.00343 25.8332 8.58537C25.7175 9.16732 25.4317 9.70187 25.0122 10.1214C24.5926 10.541 24.0581 10.8267 23.4761 10.9425C22.8942 11.0582 22.291 10.9988 21.7428 10.7717C21.1946 10.5447 20.7261 10.1602 20.3965 9.66681C20.0668 9.17347 19.8909 8.59345 19.8909 8.0001C19.8909 7.20445 20.2069 6.44139 20.7695 5.87878C21.3322 5.31617 22.0952 5.0001 22.8909 5.0001ZM10.8909 5.0001C11.4842 5.0001 12.0642 5.17605 12.5576 5.5057C13.0509 5.83534 13.4354 6.30388 13.6625 6.85205C13.8896 7.40023 13.949 8.00343 13.8332 8.58537C13.7175 9.16732 13.4317 9.70187 13.0122 10.1214C12.5926 10.541 12.0581 10.8267 11.4761 10.9425C10.8942 11.0582 10.291 10.9988 9.74282 10.7717C9.19464 10.5447 8.7261 10.1602 8.39646 9.66681C8.06682 9.17347 7.89087 8.59345 7.89087 8.0001C7.89087 7.20445 8.20694 6.44139 8.76955 5.87878C9.33216 5.31617 10.0952 5.0001 10.8909 5.0001ZM26.2659 24.6889C27.0105 24.009 27.5322 23.12 27.7625 22.1383C27.9927 21.1567 27.9209 20.1284 27.5563 19.1884C27.1917 18.2483 26.5515 17.4405 25.7195 16.8708C24.8876 16.3012 23.9029 15.9963 22.8946 15.9963C21.8864 15.9963 20.9016 16.3012 20.0697 16.8708C19.2378 17.4405 18.5975 18.2483 18.2329 19.1884C17.8684 20.1284 17.7965 21.1567 18.0268 22.1383C18.2571 23.12 18.7788 24.009 19.5234 24.6889C18.5427 25.1129 17.6518 25.72 16.8984 26.4776C16.145 25.72 15.2541 25.1129 14.2734 24.6889C15.018 24.009 15.5397 23.12 15.77 22.1383C16.0002 21.1567 15.9284 20.1284 15.5638 19.1884C15.1992 18.2483 14.559 17.4405 13.727 16.8708C12.8951 16.3012 11.9104 15.9963 10.9021 15.9963C9.89385 15.9963 8.90914 16.3012 8.07721 16.8708C7.24528 17.4405 6.60502 18.2483 6.24044 19.1884C5.87585 20.1284 5.80399 21.1567 6.03429 22.1383C6.26458 23.12 6.78626 24.009 7.53087 24.6889C6.16668 25.276 4.98049 26.2109 4.09087 27.4001C4.01208 27.5052 3.95475 27.6247 3.92216 27.7519C3.88956 27.8791 3.88235 28.0115 3.90092 28.1415C3.91949 28.2715 3.96349 28.3966 4.03039 28.5096C4.0973 28.6226 4.18581 28.7213 4.29087 28.8001C4.39593 28.8789 4.51548 28.9362 4.64269 28.9688C4.7699 29.0014 4.90229 29.0086 5.03229 28.9901C5.16229 28.9715 5.28736 28.9275 5.40036 28.8606C5.51336 28.7937 5.61208 28.7052 5.69087 28.6001C6.29633 27.7928 7.08142 27.1376 7.98398 26.6863C8.88654 26.235 9.88178 26.0001 10.8909 26.0001C11.9 26.0001 12.8952 26.235 13.7978 26.6863C14.7003 27.1376 15.4854 27.7928 16.0909 28.6001C16.2502 28.8121 16.4872 28.9521 16.7497 28.9894C17.0123 29.0266 17.2789 28.9581 17.4909 28.7989C17.5665 28.7426 17.6334 28.6757 17.6896 28.6001C18.2951 27.7928 19.0802 27.1376 19.9827 26.6863C20.8853 26.235 21.8805 26.0001 22.8896 26.0001C23.8987 26.0001 24.8939 26.235 25.7965 26.6863C26.6991 27.1376 27.4842 27.7928 28.0896 28.6001C28.2489 28.8123 28.486 28.9525 28.7486 28.9899C29.0113 29.0273 29.2781 28.9588 29.4902 28.7995C29.7024 28.6402 29.8426 28.4031 29.88 28.1405C29.9174 27.8778 29.8489 27.611 29.6896 27.3989C28.8045 26.2122 27.6241 25.2779 26.2659 24.6889ZM10.8909 18.0001C11.4842 18.0001 12.0642 18.1761 12.5576 18.5057C13.0509 18.8353 13.4354 19.3039 13.6625 19.8521C13.8896 20.4002 13.949 21.0034 13.8332 21.5854C13.7175 22.1673 13.4317 22.7019 13.0122 23.1214C12.5926 23.541 12.0581 23.8267 11.4761 23.9425C10.8942 24.0582 10.291 23.9988 9.74282 23.7717C9.19464 23.5447 8.7261 23.1602 8.39646 22.6668C8.06682 22.1735 7.89087 21.5934 7.89087 21.0001C7.89087 20.2045 8.20694 19.4414 8.76955 18.8788C9.33216 18.3162 10.0952 18.0001 10.8909 18.0001ZM22.8909 18.0001C23.4842 18.0001 24.0642 18.1761 24.5576 18.5057C25.0509 18.8353 25.4354 19.3039 25.6625 19.8521C25.8896 20.4002 25.949 21.0034 25.8332 21.5854C25.7175 22.1673 25.4317 22.7019 25.0122 23.1214C24.5926 23.541 24.0581 23.8267 23.4761 23.9425C22.8942 24.0582 22.291 23.9988 21.7428 23.7717C21.1946 23.5447 20.7261 23.1602 20.3965 22.6668C20.0668 22.1735 19.8909 21.5934 19.8909 21.0001C19.8909 20.2045 20.2069 19.4414 20.7695 18.8788C21.3322 18.3162 22.0952 18.0001 22.8909 18.0001Z" fill="white"></path> </svg> 