<?xml version="1.0" encoding="UTF-8"?> <svg xmlns="http://www.w3.org/2000/svg" width="33" height="33" viewBox="0 0 33 33" fill="none"> <path d="M16.5687 5.75C11.7257 5.75 8.13416 9.33473 8.13416 13.7697V19.2612H8.15137C8.15137 22.5507 9.94517 25.6106 12.3023 27.136C12.6269 27.346 12.7637 27.7656 12.5867 28.1093L12.0829 29.0872C11.9059 29.4309 11.4824 29.568 11.1526 29.3662C8.60215 27.8054 6.62487 24.9844 5.92546 21.7797C4.55997 21.4987 3.5332 20.2899 3.5332 18.8413V14.8603C3.5332 13.4537 4.50131 12.2731 5.80759 11.9487C6.67666 6.95068 11.0753 3.25 16.5687 3.25C22.0802 3.25 26.344 7.00752 27.1937 11.949C28.4992 12.274 29.4666 13.4542 29.4666 14.8603V18.8412C29.4666 20.4981 28.1234 21.8412 26.4666 21.8412H25.8656C25.3133 21.8412 24.8656 21.3935 24.8656 20.8412V13.7568C24.8656 9.34968 21.3828 5.75 16.5687 5.75Z" fill="white"></path> <path d="M20.8178 13.3355C21.591 13.3355 22.2178 13.9623 22.2178 14.7355V19.6637C22.2178 20.4369 21.591 21.0637 20.8178 21.0637H19.695C19.3084 21.0637 18.995 21.3771 18.995 21.7637V22.4142C18.995 22.9613 18.3955 23.2969 17.9291 23.0109L14.9217 21.167C14.8116 21.0995 14.6849 21.0637 14.5558 21.0637H12.182C11.4088 21.0637 10.782 20.4369 10.782 19.6637V14.7355C10.782 13.9623 11.4088 13.3355 12.182 13.3355H20.8178Z" fill="white"></path> </svg> 