<?xml version="1.0" encoding="UTF-8"?> <svg xmlns="http://www.w3.org/2000/svg" width="129" height="76" viewBox="0 0 129 76" fill="none"> <g clip-path="url(#clip0_196_7675)"> <g clip-path="url(#clip1_196_7675)"> <path d="M57.8333 10.6667L52.5 16L57.8333 21.3333" stroke="white" stroke-width="2" stroke-linecap="round" stroke-linejoin="round"></path> <path d="M71.1665 10.6667L76.4998 16L71.1665 21.3333" stroke="white" stroke-width="2" stroke-linecap="round" stroke-linejoin="round"></path> <path d="M67.1668 5.33333L61.8335 26.6667" stroke="white" stroke-width="2" stroke-linecap="round" stroke-linejoin="round"></path> </g> <path d="M26.1322 56H28.8442C29.2402 56 31.5802 55.928 31.5802 53.732C31.5802 52.592 30.8962 51.836 29.8882 51.644V51.608C30.9802 51.248 31.3402 50.504 31.3402 49.712C31.3402 48.572 30.6442 47.6 28.9162 47.6H26.1322V56ZM26.9242 55.316V52.004H28.8202C29.9242 52.004 30.7282 52.58 30.7282 53.684C30.7282 55.16 29.4322 55.316 28.7362 55.316H26.9242ZM26.9242 51.32V48.284H28.8322C29.7322 48.284 30.4882 48.704 30.4882 49.724C30.4882 50.636 29.9002 51.32 28.8082 51.32H26.9242ZM35.9524 56.096C37.7644 56.096 38.9764 54.836 38.9764 52.928C38.9764 51.008 37.7764 49.748 35.9524 49.748C34.1284 49.748 32.9284 51.008 32.9284 52.928C32.9284 54.836 34.1404 56.096 35.9524 56.096ZM35.9524 55.46C34.3924 55.46 33.7204 54.116 33.7204 52.928C33.7204 51.728 34.3924 50.384 35.9524 50.384C37.5124 50.384 38.1844 51.728 38.1844 52.928C38.1844 54.116 37.5124 55.46 35.9524 55.46ZM42.1338 56.096C43.8138 56.096 44.7618 55.364 44.7618 54.26C44.7618 53.288 44.0418 52.868 43.5498 52.76V52.724C44.0538 52.556 44.5338 52.148 44.5338 51.392C44.5338 50.468 43.8498 49.748 42.2418 49.748C41.6178 49.748 41.0418 49.832 40.4538 50.012V50.696C40.9218 50.516 41.5698 50.396 42.2298 50.396C43.3458 50.396 43.7778 50.804 43.7778 51.404C43.7778 52.064 43.2858 52.484 42.2658 52.484H41.3058V53.12H42.2658C43.5498 53.12 43.9698 53.648 43.9698 54.248C43.9698 55.028 43.2738 55.448 42.1698 55.448C41.5818 55.448 40.8738 55.352 40.3098 55.088V55.832C41.0658 56.048 41.6298 56.096 42.1338 56.096ZM46.5435 56H47.3115V50.552H47.3355L49.4355 54.524H50.2035L52.3035 50.552H52.3275V56H53.0955V49.844H51.8955L49.8315 53.756L47.7675 49.844H46.5435V56ZM57.9251 56.096C59.7371 56.096 60.9491 54.836 60.9491 52.928C60.9491 51.008 59.7491 49.748 57.9251 49.748C56.1011 49.748 54.9011 51.008 54.9011 52.928C54.9011 54.836 56.1131 56.096 57.9251 56.096ZM57.9251 55.46C56.3651 55.46 55.6931 54.116 55.6931 52.928C55.6931 51.728 56.3651 50.384 57.9251 50.384C59.4851 50.384 60.1571 51.728 60.1571 52.928C60.1571 54.116 59.4851 55.46 57.9251 55.46ZM70.1933 56H71.1293L68.9693 52.784L70.9253 49.844H70.0133L68.2493 52.508H66.8333V49.844H66.0653V52.508H64.6493L62.8853 49.844H61.9733L63.9293 52.784L61.7693 56H62.7053L64.6013 53.144H66.0653V56H66.8333V53.144H68.2853L70.1933 56ZM72.477 56H73.233V53.12H76.833V56H77.589V49.844H76.833V52.484H73.233V49.844H72.477V56ZM82.4173 56.096C84.2293 56.096 85.4413 54.836 85.4413 52.928C85.4413 51.008 84.2413 49.748 82.4173 49.748C80.5933 49.748 79.3933 51.008 79.3933 52.928C79.3933 54.836 80.6053 56.096 82.4173 56.096ZM82.4173 55.46C80.8573 55.46 80.1853 54.116 80.1853 52.928C80.1853 51.728 80.8573 50.384 82.4173 50.384C83.9773 50.384 84.6493 51.728 84.6493 52.928C84.6493 54.116 83.9773 55.46 82.4173 55.46ZM89.9067 56.096C90.3387 56.096 90.7227 56.048 91.2147 55.856V55.184C90.7827 55.352 90.3507 55.46 89.8947 55.46C88.4667 55.46 87.6267 54.5 87.6267 52.868C87.6267 51.344 88.4187 50.384 89.8227 50.384C90.4587 50.384 90.9507 50.552 91.1667 50.6V49.928C90.5307 49.748 90.0747 49.748 89.8827 49.748C87.9387 49.748 86.8347 50.984 86.8347 52.844C86.8347 54.812 87.8907 56.096 89.9067 56.096ZM94.4709 56H95.2149V50.48H97.3869V49.844H92.2989V50.48H94.4709V56ZM98.8325 56H101.353C103.033 56 103.753 55.256 103.753 54.02C103.753 52.784 103.033 52.04 101.353 52.04H99.5885V49.844H98.8325V56ZM101.353 52.676C102.481 52.676 102.961 53.18 102.961 54.02C102.961 54.86 102.481 55.364 101.353 55.364H99.5885V52.676H101.353ZM8.77116 67.44C8.77116 66.576 8.15916 65.844 6.86316 65.844H4.13916V72H6.94716C7.21116 72 9.02316 71.94 9.02316 70.308C9.02316 69.516 8.54316 68.94 7.85916 68.736V68.724C8.45916 68.436 8.77116 68.028 8.77116 67.44ZM4.89516 71.364V69.144H6.76716C7.83516 69.144 8.23116 69.684 8.23116 70.272C8.23116 70.836 7.84716 71.364 6.88716 71.364H4.89516ZM4.89516 68.508V66.48H6.81516C7.79916 66.48 8.01516 67.104 8.00316 67.548C7.96716 68.472 7.03116 68.508 6.69516 68.508H4.89516ZM13.3657 72.096C13.7977 72.096 14.1817 72.048 14.6737 71.856V71.184C14.2417 71.352 13.8097 71.46 13.3537 71.46C11.9257 71.46 11.0857 70.5 11.0857 68.868C11.0857 67.344 11.8777 66.384 13.2817 66.384C13.9177 66.384 14.4097 66.552 14.6257 66.6V65.928C13.9897 65.748 13.5337 65.748 13.3417 65.748C11.3977 65.748 10.2937 66.984 10.2937 68.844C10.2937 70.812 11.3497 72.096 13.3657 72.096ZM17.9299 72H18.6739V66.48H20.8459V65.844H15.7579V66.48H17.9299V72ZM23.0475 70.908H23.0715C23.4675 71.58 24.2475 72.096 25.2675 72.096C26.9235 72.096 28.0515 70.896 28.0515 68.928C28.0515 66.996 26.8395 65.748 25.1955 65.748C24.1875 65.748 23.5395 66.228 23.0715 66.804H23.0235V65.844H22.2915V74.64H23.0475V70.908ZM25.1835 71.46C24.2475 71.46 23.0355 70.764 23.0355 68.94C23.0355 67.452 23.9115 66.384 25.1715 66.384C26.4075 66.384 27.2595 67.452 27.2595 68.94C27.2595 70.524 26.3235 71.46 25.1835 71.46ZM31.1835 72.096C31.9395 72.096 32.8515 71.868 33.4995 71.028H33.5475V72H34.2795V68.064C34.2795 66.408 33.3915 65.748 31.7835 65.748C31.0035 65.748 30.2355 65.916 29.7195 66.096V66.792C30.3675 66.504 31.1715 66.396 31.7595 66.396C32.9595 66.396 33.5235 66.804 33.5235 68.064V68.22L32.6715 68.244C30.2355 68.316 29.2275 69.084 29.2275 70.308C29.2275 71.256 29.8755 72.096 31.1835 72.096ZM31.3995 71.46C30.4875 71.46 30.0195 70.992 30.0195 70.296C30.0195 69.492 30.6435 68.94 32.6715 68.88L33.5235 68.856V69.36C33.5235 70.584 32.7075 71.46 31.3995 71.46ZM36.4829 72H37.3229L40.8749 66.84H40.9109L40.8989 72H41.6549V65.844H40.8149L37.2629 71.004H37.2269L37.2389 65.844H36.4829V72ZM48.4977 67.44C48.4977 66.576 47.8857 65.844 46.5897 65.844H43.8657V72H46.6737C46.9377 72 48.7497 71.94 48.7497 70.308C48.7497 69.516 48.2697 68.94 47.5857 68.736V68.724C48.1857 68.436 48.4977 68.028 48.4977 67.44ZM44.6217 71.364V69.144H46.4937C47.5617 69.144 47.9577 69.684 47.9577 70.272C47.9577 70.836 47.5737 71.364 46.6137 71.364H44.6217ZM44.6217 68.508V66.48H46.5417C47.5257 66.48 47.7417 67.104 47.7297 67.548C47.6937 68.472 46.7577 68.508 46.4217 68.508H44.6217ZM51.8202 72.096C52.5762 72.096 53.4882 71.868 54.1362 71.028H54.1842V72H54.9162V68.064C54.9162 66.408 54.0282 65.748 52.4202 65.748C51.6402 65.748 50.8722 65.916 50.3562 66.096V66.792C51.0042 66.504 51.8082 66.396 52.3962 66.396C53.5962 66.396 54.1602 66.804 54.1602 68.064V68.22L53.3082 68.244C50.8722 68.316 49.8642 69.084 49.8642 70.308C49.8642 71.256 50.5122 72.096 51.8202 72.096ZM52.0362 71.46C51.1242 71.46 50.6562 70.992 50.6562 70.296C50.6562 69.492 51.2802 68.94 53.3082 68.88L54.1602 68.856V69.36C54.1602 70.584 53.3442 71.46 52.0362 71.46ZM57.1196 72H57.8756V69.12H61.4756V72H62.2316V65.844H61.4756V68.484H57.8756V65.844H57.1196V72ZM64.4438 72H65.2838L68.8358 66.84H68.8718L68.8598 72H69.6158V65.844H68.7758L65.2238 71.004H65.1878L65.1998 65.844H64.4438V72ZM71.2747 72H72.1867L73.5067 69.624C73.6027 69.636 73.6987 69.636 73.7947 69.636H75.5827V72H76.3387V65.844H73.7947C72.2347 65.844 71.5147 66.552 71.5147 67.74C71.5147 68.688 72.0067 69.24 72.7387 69.48L71.2747 72ZM73.7947 69C72.7867 69 72.3067 68.532 72.3067 67.74C72.3067 66.948 72.7867 66.48 73.7947 66.48H75.5827V69H73.7947ZM81.3071 72H82.0631V69.144H83.7911L85.8071 72H86.7431L84.4631 68.784L86.5391 65.844H85.6271L83.7551 68.508H82.0631V65.844H81.3071V72ZM89.4843 72.096C90.2403 72.096 91.1523 71.868 91.8003 71.028H91.8483V72H92.5803V68.064C92.5803 66.408 91.6923 65.748 90.0843 65.748C89.3043 65.748 88.5363 65.916 88.0203 66.096V66.792C88.6683 66.504 89.4723 66.396 90.0603 66.396C91.2603 66.396 91.8243 66.804 91.8243 68.064V68.22L90.9723 68.244C88.5363 68.316 87.5283 69.084 87.5283 70.308C87.5283 71.256 88.1763 72.096 89.4843 72.096ZM89.7003 71.46C88.7883 71.46 88.3203 70.992 88.3203 70.296C88.3203 69.492 88.9443 68.94 90.9723 68.88L91.8243 68.856V69.36C91.8243 70.584 91.0083 71.46 89.7003 71.46ZM94.7837 72H95.5397V69.144H97.2677L99.2837 72H100.22L97.9397 68.784L100.016 65.844H99.1037L97.2317 68.508H95.5397V65.844H94.7837V72ZM105.99 72.096C108.078 72.096 108.906 71.004 108.906 69.852C108.906 68.376 107.706 67.788 106.602 67.26C105.678 66.804 104.826 66.396 104.826 65.508C104.826 65.064 105.03 64.212 106.686 64.212C107.286 64.212 107.874 64.296 108.63 64.608V63.804C107.934 63.588 107.298 63.504 106.686 63.504C104.502 63.504 103.974 64.668 103.974 65.592C103.974 66.888 105.09 67.428 106.146 67.956C107.118 68.448 108.054 68.94 108.054 69.924C108.054 71.028 106.854 71.412 105.99 71.412C105.366 71.412 104.526 71.184 103.914 70.908V71.724C104.586 71.976 105.27 72.096 105.99 72.096ZM110.818 72H113.374C115.99 72 117.538 70.38 117.538 67.836C117.538 63.684 114.31 63.6 113.374 63.6H110.818V72ZM111.61 71.316V64.284H113.29C114.082 64.284 116.686 64.296 116.686 67.8C116.686 70.26 115.198 71.316 113.29 71.316H111.61ZM119.454 72H120.246V67.896H121.71L124.734 72H125.79L122.418 67.536L125.466 63.6H124.47L121.686 67.212H120.246V63.6H119.454V72Z" fill="#EBEDF0"></path> </g> <defs> <clipPath id="clip0_196_7675"> <rect width="128" height="76" fill="white" transform="translate(0.5)"></rect> </clipPath> <clipPath id="clip1_196_7675"> <rect width="32" height="32" fill="white" transform="translate(48.5)"></rect> </clipPath> </defs> </svg> 