<?xml version="1.0" encoding="UTF-8"?> <svg xmlns="http://www.w3.org/2000/svg" width="84" height="76" viewBox="0 0 84 76" fill="none"> <g clip-path="url(#clip0_250_6264)"> <path d="M41.8295 7.0625C40.1678 7.06248 38.5389 7.52519 37.1254 8.39878C35.7119 9.27237 34.5695 10.5223 33.8264 12.0086C33.206 13.2368 32.8825 14.5935 32.8818 15.9695C32.8854 16.1788 32.81 16.3817 32.6708 16.5379C32.5315 16.6941 32.3385 16.7921 32.1303 16.8125C32.0186 16.8209 31.9063 16.8061 31.8006 16.7691C31.6949 16.732 31.598 16.6735 31.5159 16.5972C31.4339 16.5209 31.3686 16.4284 31.324 16.3257C31.2794 16.2229 31.2565 16.112 31.2568 16C31.2572 14.8646 31.439 13.7366 31.7951 12.6586C31.8189 12.5899 31.8238 12.516 31.8092 12.4447C31.7947 12.3735 31.7613 12.3074 31.7126 12.2534C31.6638 12.1995 31.6014 12.1596 31.532 12.138C31.4625 12.1163 31.3886 12.1137 31.3178 12.1305C29.909 12.4797 28.6576 13.2905 27.7631 14.4335C26.8685 15.5765 26.3823 16.986 26.3818 18.4375C26.3818 22.0125 29.4084 24.9375 32.9732 24.9375H41.8193C44.1897 24.9388 46.4635 23.9985 48.1406 22.3234C49.8176 20.6482 50.7606 18.3755 50.7619 16.0051C50.7633 13.6347 49.8229 11.3609 48.1478 9.68382C46.4726 8.00677 44.1999 7.06385 41.8295 7.0625Z" fill="white"></path> </g> <g clip-path="url(#clip1_250_6264)"> <path d="M53.5557 7.0625H37.3057C36.8747 7.0625 36.4614 7.2337 36.1566 7.53845C35.8519 7.8432 35.6807 8.25652 35.6807 8.6875V13.5625C35.6807 13.9935 35.8519 14.4068 36.1566 14.7115C36.4614 15.0163 36.8747 15.1875 37.3057 15.1875H53.5557C53.9866 15.1875 54.4 15.0163 54.7047 14.7115C55.0095 14.4068 55.1807 13.9935 55.1807 13.5625V8.6875C55.1807 8.25652 55.0095 7.8432 54.7047 7.53845C54.4 7.2337 53.9866 7.0625 53.5557 7.0625ZM50.7119 12.3438C50.4709 12.3438 50.2352 12.2723 50.0348 12.1384C49.8344 12.0044 49.6782 11.8141 49.5859 11.5914C49.4937 11.3687 49.4696 11.1236 49.5166 10.8872C49.5636 10.6508 49.6797 10.4337 49.8501 10.2632C50.0206 10.0928 50.2377 9.97669 50.4741 9.92967C50.7106 9.88264 50.9556 9.90678 51.1783 9.99902C51.401 10.0913 51.5913 10.2475 51.7253 10.4479C51.8592 10.6483 51.9307 10.884 51.9307 11.125C51.9307 11.4482 51.8023 11.7582 51.5737 11.9868C51.3451 12.2153 51.0351 12.3438 50.7119 12.3438Z" fill="white"></path> <path d="M53.5557 16.7222H37.3057C36.8747 16.7222 36.4614 16.8934 36.1566 17.1981C35.8519 17.5029 35.6807 17.9162 35.6807 18.3472V23.2222C35.6807 23.6531 35.8519 24.0665 36.1566 24.3712C36.4614 24.676 36.8747 24.8472 37.3057 24.8472H53.5557C53.9866 24.8472 54.4 24.676 54.7047 24.3712C55.0095 24.0665 55.1807 23.6531 55.1807 23.2222V18.3472C55.1807 17.9162 55.0095 17.5029 54.7047 17.1981C54.4 16.8934 53.9866 16.7222 53.5557 16.7222ZM50.7119 22.0034C50.4709 22.0034 50.2352 21.9319 50.0348 21.798C49.8344 21.6641 49.6782 21.4738 49.5859 21.2511C49.4937 21.0284 49.4696 20.7833 49.5166 20.5469C49.5636 20.3105 49.6797 20.0933 49.8501 19.9229C50.0206 19.7524 50.2377 19.6364 50.4741 19.5893C50.7106 19.5423 50.9556 19.5664 51.1783 19.6587C51.401 19.7509 51.5913 19.9071 51.7253 20.1076C51.8592 20.308 51.9307 20.5436 51.9307 20.7847C51.9307 21.1079 51.8023 21.4179 51.5737 21.6465C51.3451 21.875 51.0351 22.0034 50.7119 22.0034Z" fill="white"></path> </g> <path d="M2.55881 59.12C4.53881 59.12 5.58281 58.088 5.58281 56.66C5.58281 55.148 4.40681 54.572 3.36281 54.08C2.54681 53.684 1.81481 53.324 1.81481 52.592C1.81481 52.016 2.24681 51.536 3.36281 51.536C3.77081 51.536 4.52681 51.596 5.18681 51.884V50.78C4.92281 50.684 4.26281 50.48 3.36281 50.48C1.50281 50.48 0.542813 51.428 0.542813 52.748C0.542813 54.08 1.65881 54.632 2.67881 55.124C3.53081 55.544 4.31081 55.928 4.31081 56.708C4.31081 57.416 3.68681 58.064 2.58281 58.064C2.01881 58.064 1.16681 57.896 0.638813 57.668V58.772C1.41881 59.048 2.09081 59.12 2.55881 59.12ZM8.81409 59.096C9.58209 59.096 10.4461 58.82 10.9621 58.064H10.9861V59H12.1381V55.196C12.1381 53.504 11.1541 52.784 9.48609 52.784C8.74209 52.784 7.90209 52.928 7.29009 53.192V54.248C8.02209 53.852 8.69409 53.72 9.34209 53.72C10.3501 53.72 11.0101 54.104 11.0101 54.98V55.184H9.88209C7.74609 55.184 6.72609 55.928 6.72609 57.26C6.72609 58.4 7.54209 59.096 8.81409 59.096ZM9.09009 58.136C8.37009 58.136 7.92609 57.8 7.92609 57.188C7.92609 56.528 8.44209 56.048 9.93009 56.048H11.0101V56.432C11.0101 57.368 10.2061 58.136 9.09009 58.136ZM15.5055 59.096C16.2735 59.096 17.1375 58.82 17.6535 58.064H17.6775V59H18.8295V55.196C18.8295 53.504 17.8455 52.784 16.1775 52.784C15.4335 52.784 14.5935 52.928 13.9815 53.192V54.248C14.7135 53.852 15.3855 53.72 16.0335 53.72C17.0415 53.72 17.7015 54.104 17.7015 54.98V55.184H16.5735C14.4375 55.184 13.4175 55.928 13.4175 57.26C13.4175 58.4 14.2335 59.096 15.5055 59.096ZM15.7815 58.136C15.0615 58.136 14.6175 57.8 14.6175 57.188C14.6175 56.528 15.1335 56.048 16.6215 56.048H17.7015V56.432C17.7015 57.368 16.8975 58.136 15.7815 58.136ZM22.3049 59.12C24.2849 59.12 25.3289 58.088 25.3289 56.66C25.3289 55.148 24.1529 54.572 23.1089 54.08C22.2929 53.684 21.5609 53.324 21.5609 52.592C21.5609 52.016 21.9929 51.536 23.1089 51.536C23.5169 51.536 24.2729 51.596 24.9329 51.884V50.78C24.6689 50.684 24.0089 50.48 23.1089 50.48C21.2489 50.48 20.2889 51.428 20.2889 52.748C20.2889 54.08 21.4049 54.632 22.4249 55.124C23.2769 55.544 24.0569 55.928 24.0569 56.708C24.0569 57.416 23.4329 58.064 22.3289 58.064C21.7649 58.064 20.9129 57.896 20.3849 57.668V58.772C21.1649 59.048 21.8369 59.12 22.3049 59.12ZM34.3554 60.68H35.4354C34.6194 59.372 33.5874 57.308 33.5874 55.304C33.5874 53.324 34.6434 51.224 35.4354 49.928H34.3554C32.5554 52.52 32.3874 54.44 32.3874 55.304C32.3874 56.096 32.5194 58.136 34.3554 60.68ZM40.2188 59.12C42.6548 59.12 44.1308 57.332 44.1308 54.8C44.1308 52.316 42.6788 50.48 40.2188 50.48C37.7828 50.48 36.3068 52.28 36.3068 54.8C36.3068 57.296 37.7588 59.12 40.2188 59.12ZM40.2188 58.064C38.5028 58.064 37.5548 56.612 37.5548 54.8C37.5548 53.012 38.5028 51.536 40.2188 51.536C41.9108 51.536 42.8828 52.976 42.8828 54.8C42.8828 56.576 41.9468 58.064 40.2188 58.064ZM48.4988 59.096C50.3228 59.096 51.5708 57.776 51.5708 55.94C51.5708 54.08 50.4548 52.784 48.7148 52.784C47.6948 52.784 46.8668 53.288 46.4108 54.044H46.3508L46.3628 53.744C46.4228 52.256 47.0708 51.224 48.6188 50.96C49.4228 50.828 50.1788 50.924 51.0308 50.696V49.7C49.8788 50 49.2428 49.772 48.1028 50.06C46.0268 50.588 45.3068 52.28 45.3068 54.476C45.3068 57.248 46.1468 59.096 48.4988 59.096ZM48.4988 58.184C47.3828 58.184 46.6148 57.2 46.6148 55.94C46.6148 54.74 47.3228 53.696 48.4988 53.696C49.6748 53.696 50.3708 54.74 50.3708 55.94C50.3708 57.164 49.6388 58.184 48.4988 58.184ZM52.775 59.096C54.047 59.096 54.635 57.68 54.635 53.96V53.792H56.999V59H58.127V52.88H53.615V53.36C53.615 56.78 53.351 58.052 52.559 58.052C52.391 58.052 52.211 57.992 52.211 57.992V59.012C52.211 59.024 52.487 59.096 52.775 59.096ZM61.6891 59.096C62.4571 59.096 63.3211 58.82 63.8371 58.064H63.8611V59H65.0131V55.196C65.0131 53.504 64.0291 52.784 62.3611 52.784C61.6171 52.784 60.7771 52.928 60.1651 53.192V54.248C60.8971 53.852 61.5691 53.72 62.2171 53.72C63.2251 53.72 63.8851 54.104 63.8851 54.98V55.184H62.7571C60.6211 55.184 59.6011 55.928 59.6011 57.26C59.6011 58.4 60.4171 59.096 61.6891 59.096ZM61.9651 58.136C61.2451 58.136 60.8011 57.8 60.8011 57.188C60.8011 56.528 61.3171 56.048 62.8051 56.048H63.8851V56.432C63.8851 57.368 63.0811 58.136 61.9651 58.136ZM66.8085 59H67.9365V56.264H69.0645L71.0565 59H72.4605L70.0845 55.784L72.1725 52.88H70.8525L69.0765 55.352H67.9365V52.88H66.8085V59ZM76.2005 59.096C78.0485 59.096 79.3325 57.812 79.3325 55.94C79.3325 54.068 78.0485 52.784 76.2005 52.784C74.3525 52.784 73.0685 54.068 73.0685 55.94C73.0685 57.812 74.3525 59.096 76.2005 59.096ZM76.2005 58.184C75.1445 58.184 74.2685 57.308 74.2685 55.94C74.2685 54.572 75.1445 53.696 76.2005 53.696C77.2445 53.696 78.1325 54.572 78.1325 55.94C78.1325 57.308 77.2565 58.184 76.2005 58.184ZM80.2099 60.68H81.2899C83.0899 58.088 83.2579 56.168 83.2579 55.304C83.2579 54.512 83.1259 52.472 81.2899 49.928H80.2099C81.0259 51.236 82.0579 53.3 82.0579 55.304C82.0579 57.284 81.0019 59.384 80.2099 60.68ZM9.63272 73H11.0607L13.8687 68.2H13.8927V73H15.0207V66.88H13.5927L10.7847 71.68H10.7607V66.88H9.63272V73ZM16.7515 73.096C18.0235 73.096 18.6115 71.68 18.6115 67.96V67.792H20.9755V73H22.1035V66.88H17.5915V67.36C17.5915 70.78 17.3275 72.052 16.5355 72.052C16.3675 72.052 16.1875 71.992 16.1875 71.992V73.012C16.1875 73.024 16.4635 73.096 16.7515 73.096ZM24.0937 73H25.5217L28.3297 68.2H28.3537V73H29.4817V66.88H28.0537L25.2457 71.68H25.2217V66.88H24.0937V73ZM34.2421 73H35.3701V67.792H38.1301V66.88H34.2421V73ZM39.4569 73H40.8849L43.6929 68.2H43.7169V73H44.8449V66.88H43.4169L40.6089 71.68H40.5849V66.88H39.4569V73ZM49.6238 73.096C51.4478 73.096 52.6958 71.776 52.6958 69.94C52.6958 68.08 51.5798 66.784 49.8398 66.784C48.8198 66.784 47.9918 67.288 47.5358 68.044H47.4758L47.4878 67.744C47.5478 66.256 48.1958 65.224 49.7438 64.96C50.5478 64.828 51.3038 64.924 52.1558 64.696V63.7C51.0038 64 50.3678 63.772 49.2278 64.06C47.1518 64.588 46.4318 66.28 46.4318 68.476C46.4318 71.248 47.2718 73.096 49.6238 73.096ZM49.6238 72.184C48.5078 72.184 47.7398 71.2 47.7398 69.94C47.7398 68.74 48.4478 67.696 49.6238 67.696C50.7998 67.696 51.4958 68.74 51.4958 69.94C51.4958 71.164 50.7638 72.184 49.6238 72.184ZM55.4092 72.196H55.4572C55.8052 72.64 56.5012 73.096 57.4852 73.096C59.2252 73.096 60.2572 71.632 60.2572 69.892C60.2572 68.116 59.2252 66.784 57.4252 66.784C56.9452 66.784 56.0332 66.892 55.3852 67.756H55.3612V66.88H54.2812V75.688H55.4092V72.196ZM57.2212 72.184C56.1172 72.184 55.4092 71.308 55.4092 69.952C55.4092 68.584 56.1292 67.696 57.2572 67.696C58.3492 67.696 59.0572 68.548 59.0572 69.856C59.0572 71.272 58.3372 72.184 57.2212 72.184ZM61.8398 73H63.2678L66.0758 68.2H66.0998V73H67.2278V66.88H65.7998L62.9918 71.68H62.9678V66.88H61.8398V73ZM68.3946 72.088V74.728H69.4746V73H74.0706V74.728H75.1506V72.088H74.2626V66.88H69.9186L69.8946 67.912C69.8466 70.132 69.7386 71.116 69.1506 72.088H68.3946ZM70.8906 68.272L70.9026 67.792H73.1346V72.088H70.1466C70.7706 71.104 70.8426 70.024 70.8906 68.272Z" fill="#EBEDF0"></path> <defs> <clipPath id="clip0_250_6264"> <rect width="15.1667" height="26" fill="white" transform="translate(25.5693 3)"></rect> </clipPath> <clipPath id="clip1_250_6264"> <rect width="15.1667" height="26" fill="white" transform="translate(43.2637 3)"></rect> </clipPath> </defs> </svg> 