<?xml version="1.0" encoding="UTF-8"?> <svg xmlns="http://www.w3.org/2000/svg" width="33" height="32" viewBox="0 0 33 32" fill="none"> <path fill-rule="evenodd" clip-rule="evenodd" d="M13.2581 4.27193C13.3594 3.65388 13.8935 3.2002 14.5198 3.2002H18.4803C19.1066 3.2002 19.6407 3.65388 19.742 4.27193L20.0004 5.84857C20.0738 6.29681 20.3824 6.66668 20.7934 6.86008C21.3098 7.10307 21.8023 7.38854 22.2663 7.71198C22.6392 7.97189 23.1142 8.05438 23.5394 7.89377L25.036 7.32846C25.6219 7.10716 26.2819 7.34286 26.595 7.88524L28.5753 11.3151C28.8884 11.8575 28.7626 12.5469 28.278 12.9437L27.0399 13.9573C26.6889 14.2447 26.5227 14.6962 26.5605 15.1484C26.5839 15.4292 26.5959 15.7133 26.5959 16.0002C26.5959 16.2871 26.5839 16.5712 26.5605 16.852C26.5227 17.3042 26.6889 17.7557 27.0399 18.0431L28.278 19.0567C28.7626 19.4535 28.8884 20.1429 28.5753 20.6852L26.595 24.1151C26.2819 24.6575 25.6219 24.8932 25.036 24.6719L23.5394 24.1066C23.1142 23.946 22.6392 24.0285 22.2663 24.2884C21.8023 24.6118 21.3098 24.8973 20.7934 25.1403C20.3824 25.3337 20.0738 25.7036 20.0004 26.1518L19.742 27.7285C19.6407 28.3465 19.1066 28.8002 18.4803 28.8002H14.5198C13.8935 28.8002 13.3594 28.3465 13.2581 27.7285L12.9997 26.1518C12.9262 25.7036 12.6176 25.3337 12.2066 25.1403C11.6902 24.8973 11.1978 24.6118 10.7337 24.2884C10.3609 24.0285 9.8859 23.946 9.46069 24.1066L7.96402 24.6719C7.37813 24.8932 6.71818 24.6575 6.40503 24.1151L4.42478 20.6852C4.11163 20.1429 4.23749 19.4535 4.72208 19.0567L5.96015 18.0431C6.31122 17.7557 6.47737 17.3042 6.43959 16.852C6.41613 16.5712 6.40417 16.2871 6.40417 16.0002C6.40417 15.7133 6.41613 15.4292 6.4396 15.1484C6.47737 14.6962 6.31122 14.2447 5.96015 13.9573L4.72209 12.9437C4.23749 12.5469 4.11164 11.8575 4.42478 11.3151L6.40504 7.88524C6.71818 7.34286 7.37813 7.10716 7.96402 7.32846L9.4607 7.89378C9.88591 8.05439 10.3609 7.9719 10.7337 7.71199C11.1978 7.38854 11.6902 7.10308 12.2066 6.86008C12.6176 6.66669 12.9262 6.29682 12.9997 5.84858L13.2581 4.27193ZM16.5 21.6819C19.6379 21.6819 22.1817 19.1381 22.1817 16.0002C22.1817 12.8623 19.6379 10.3185 16.5 10.3185C13.3622 10.3185 10.8184 12.8623 10.8184 16.0002C10.8184 19.1381 13.3622 21.6819 16.5 21.6819Z" fill="white"></path> </svg> 