<?xml version="1.0" encoding="UTF-8"?> <svg xmlns="http://www.w3.org/2000/svg" width="46" height="11" viewBox="0 0 46 11" fill="none"> <path d="M45.6994 0.0442803H43.8443C43.7662 0.0442803 43.6912 0.0753531 43.636 0.130663C43.5807 0.185974 43.5496 0.260991 43.5496 0.339211V7.08428H43.4907L43.196 6.67433L37.6278 0.147506C37.6009 0.11497 37.5671 0.0888298 37.5289 0.070976C37.4907 0.0531222 37.449 0.0440028 37.4068 0.0442803H35.3926C35.3144 0.0442803 35.2395 0.0753531 35.1842 0.130663C35.1289 0.185974 35.0979 0.260991 35.0979 0.339211V10.6529C35.0979 10.7312 35.1289 10.8062 35.1842 10.8615C35.2395 10.9168 35.3144 10.9479 35.3926 10.9479H37.2491C37.3273 10.9479 37.4022 10.9168 37.4575 10.8615C37.5128 10.8062 37.5438 10.7312 37.5438 10.6529V3.90788H37.6028L37.8975 4.31636L43.4701 10.8432C43.4977 10.8751 43.5319 10.9007 43.5703 10.9182C43.6087 10.9358 43.6504 10.9449 43.6926 10.9449H45.7053C45.7835 10.9449 45.8584 10.9139 45.9137 10.8585C45.9689 10.8032 46 10.7282 46 10.65V0.337737C45.9998 0.298629 45.9919 0.259949 45.9766 0.223948C45.9613 0.187946 45.9391 0.155342 45.9111 0.128033C45.8831 0.100724 45.85 0.0792566 45.8137 0.0648781C45.7773 0.0504996 45.7385 0.0434977 45.6994 0.0442803Z" fill="#EBEDF0"></path> <path d="M5.51663 0.0442212H0.294692C0.216534 0.0442212 0.141578 0.075294 0.0863129 0.130604C0.0310475 0.185915 0 0.260932 0 0.339152V10.6529C0 10.7311 0.0310475 10.8061 0.0863129 10.8614C0.141578 10.9167 0.216534 10.9478 0.294692 10.9478H5.62272C7.04815 10.9462 8.41626 10.3859 9.43392 9.38698C10.4516 8.38805 11.0379 7.02996 11.0671 5.60367C11.1246 2.54524 8.56816 0.0442212 5.51663 0.0442212ZM5.40464 8.6621H2.71706C2.6389 8.6621 2.56394 8.63103 2.50868 8.57572C2.45341 8.52041 2.42237 8.44539 2.42237 8.36717V2.62487C2.42237 2.54665 2.45341 2.47163 2.50868 2.41632C2.56394 2.36101 2.6389 2.32994 2.71706 2.32994H5.62419C7.35698 2.32994 8.60941 3.72643 8.62857 5.4562C8.64625 7.21842 7.16543 8.6621 5.40317 8.6621H5.40464Z" fill="#EBEDF0"></path> <path d="M33.8195 5.49927C33.8195 2.46323 31.4136 0.00291507 28.4441 0H27.2397C24.2673 0 21.8585 2.46177 21.8585 5.49927C21.8585 8.53677 24.2717 11 27.2397 11H28.4587C31.4223 10.9869 33.8195 8.52948 33.8195 5.49927ZM28.431 8.70584H27.2339C25.5066 8.70584 24.2644 7.27455 24.2644 5.50947C24.2644 3.7444 25.5066 2.31311 27.2339 2.31311H28.431C30.1597 2.31311 31.4019 3.7444 31.4019 5.50947C31.4019 7.27455 30.1655 8.7073 28.4368 8.7073L28.431 8.70584Z" fill="#EBEDF0"></path> <path d="M14.0889 2.32996H11.7778C11.7004 2.32996 11.6262 2.29889 11.5714 2.24358C11.5167 2.18827 11.486 2.11325 11.486 2.03503V0.343599C11.486 0.265378 11.5167 0.190361 11.5714 0.135051C11.6262 0.0797406 11.7004 0.0486679 11.7778 0.0486679H16.0353C16.0779 0.0481127 16.1201 0.0569873 16.1589 0.074666C16.1977 0.0923448 16.2322 0.118399 16.2601 0.151002C16.2879 0.183605 16.3083 0.221966 16.3199 0.26339C16.3314 0.304814 16.3339 0.348298 16.3271 0.390789C16.2454 0.931239 15.9746 1.42414 15.5639 1.77997C15.1532 2.13579 14.6298 2.33094 14.0889 2.32996Z" fill="#EBEDF0"></path> <path d="M15.1298 8.37602V5.50634C15.1298 4.05926 15.7042 2.67145 16.7266 1.64821C17.749 0.624968 19.1357 0.0501174 20.5816 0.0501174H20.8925C20.9707 0.0501174 21.0456 0.0811924 21.1009 0.136503C21.1562 0.191813 21.1872 0.266828 21.1872 0.345048V2.035C21.1872 2.11322 21.1562 2.18824 21.1009 2.24355C21.0456 2.29886 20.9707 2.32993 20.8925 2.32993H17.8616C17.7835 2.32993 17.7085 2.36101 17.6532 2.41632C17.598 2.47163 17.5669 2.54664 17.5669 2.62487V5.48717C17.5669 6.93425 16.9926 8.32206 15.9701 9.3453C14.9477 10.3685 13.561 10.9434 12.1151 10.9434H11.788C11.7099 10.9434 11.6349 10.9123 11.5797 10.857C11.5244 10.8017 11.4933 10.7267 11.4933 10.6485V8.95408C11.4933 8.87586 11.5244 8.80085 11.5797 8.74554C11.6349 8.69022 11.7099 8.65915 11.788 8.65915H14.8396C14.915 8.65808 14.9871 8.62813 15.0411 8.57546C15.0951 8.52279 15.1268 8.45142 15.1298 8.37602Z" fill="#EBEDF0"></path> <path d="M18.5814 8.65999H20.881C20.9588 8.65999 21.0334 8.69107 21.0884 8.74638C21.1434 8.80169 21.1743 8.8767 21.1743 8.95492V10.6523C21.1743 10.7305 21.1434 10.8055 21.0884 10.8608C21.0334 10.9161 20.9588 10.9472 20.881 10.9472H16.628C16.5852 10.9477 16.5428 10.9389 16.5037 10.9212C16.4647 10.9035 16.43 10.8774 16.4021 10.8448C16.3741 10.8122 16.3536 10.7739 16.3419 10.7325C16.3303 10.691 16.3278 10.6476 16.3347 10.6051C16.4158 10.0642 16.6871 9.57044 17.0993 9.21354C17.5116 8.85664 18.0374 8.66023 18.5814 8.65999Z" fill="#EBEDF0"></path> </svg> 