<?xml version="1.0" encoding="UTF-8"?> <svg xmlns="http://www.w3.org/2000/svg" width="32" height="32" viewBox="0 0 32 32" fill="none"> <path fill-rule="evenodd" clip-rule="evenodd" d="M6.40758 6.32381C5.99917 6.43052 5.6945 6.77435 5.64577 7.19366L4.85162 14.0279C4.25026 19.203 6.79659 24.2372 11.3216 26.8194L15.4452 29.1725C15.7511 29.3471 16.1261 29.3479 16.4327 29.1747L20.5145 26.8689C25.1239 24.2652 27.694 19.1264 27.0125 13.8764L26.1442 7.18767C26.0901 6.77143 25.7827 6.43211 25.3768 6.32514C24.2662 6.03243 21.8653 5.34204 18.7385 4.11181C17.9914 3.81787 17.0904 3.2818 16.5179 2.91983C16.1697 2.69969 15.722 2.69869 15.3735 2.91824C14.7953 3.28246 13.8861 3.82336 13.1584 4.11181C10.2324 5.27167 7.60301 6.01146 6.40758 6.32381ZM19.6451 12.9789L15.1303 17.4937L12.3547 14.7181C12.0033 14.3667 11.4334 14.3667 11.0819 14.7181L10.587 15.2131C10.2355 15.5646 10.2355 16.1344 10.587 16.4859L14.4939 20.3928C14.8454 20.7443 15.4152 20.7443 15.7667 20.3928L21.4129 14.7466C21.7644 14.3952 21.7644 13.8253 21.4129 13.4738L20.9179 12.9789C20.5665 12.6274 19.9966 12.6274 19.6451 12.9789Z" fill="white"></path> </svg> 