<?xml version="1.0" encoding="UTF-8"?> <svg xmlns="http://www.w3.org/2000/svg" width="32" height="32" viewBox="0 0 32 32" fill="none"> <g clip-path="url(#clip0_499_849)"> <path d="M16.3496 8.58521C14.8832 8.58519 13.4457 8.99353 12.1982 9.76447C10.9508 10.5354 9.94268 11.6385 9.28686 12.9501C8.73939 14.0341 8.45389 15.2313 8.4533 16.4457C8.45644 16.6303 8.38994 16.8094 8.26704 16.9472C8.14414 17.0851 7.97385 17.1716 7.79005 17.1896C7.69146 17.197 7.59241 17.184 7.49911 17.1513C7.40581 17.1186 7.32028 17.0669 7.24789 16.9996C7.17551 16.9323 7.11783 16.8507 7.07848 16.76C7.03913 16.6693 7.01896 16.5714 7.01924 16.4726C7.0196 15.4706 7.17997 14.4751 7.49427 13.5238C7.51525 13.4631 7.51955 13.3979 7.50674 13.335C7.49392 13.2721 7.46445 13.2138 7.42141 13.1662C7.37837 13.1186 7.32334 13.0834 7.26205 13.0643C7.20077 13.0452 7.13548 13.0429 7.07302 13.0577C5.82974 13.3659 4.7254 14.0814 3.93597 15.0901C3.14653 16.0988 2.71743 17.3428 2.71704 18.6237C2.71704 21.7786 5.38799 24.3599 8.53397 24.3599H16.3407C18.4325 24.3611 20.4392 23.5313 21.9192 22.0529C23.3992 20.5746 24.2313 18.5689 24.2325 16.477C24.2337 14.3852 23.4039 12.3785 21.9255 10.8985C20.4472 9.41852 18.4415 8.58639 16.3496 8.58521Z" fill="white"></path> </g> <g clip-path="url(#clip1_499_849)"> <path d="M26.6978 8.58521H12.3572C11.9768 8.58521 11.6121 8.73629 11.3431 9.00523C11.0742 9.27417 10.9231 9.63893 10.9231 10.0193V14.3215C10.9231 14.7018 11.0742 15.0666 11.3431 15.3355C11.6121 15.6044 11.9768 15.7555 12.3572 15.7555H26.6978C27.0782 15.7555 27.4429 15.6044 27.7119 15.3355C27.9808 15.0666 28.1319 14.7018 28.1319 14.3215V10.0193C28.1319 9.63893 27.9808 9.27417 27.7119 9.00523C27.4429 8.73629 27.0782 8.58521 26.6978 8.58521ZM24.1882 13.2459C23.9755 13.2459 23.7675 13.1828 23.5907 13.0647C23.4138 12.9465 23.2759 12.7785 23.1945 12.582C23.1131 12.3854 23.0918 12.1692 23.1333 11.9605C23.1748 11.7519 23.2773 11.5603 23.4277 11.4098C23.5781 11.2594 23.7697 11.157 23.9784 11.1155C24.187 11.074 24.4033 11.0953 24.5998 11.1767C24.7963 11.2581 24.9643 11.396 25.0825 11.5728C25.2007 11.7497 25.2638 11.9576 25.2638 12.1704C25.2638 12.4556 25.1504 12.7292 24.9487 12.9309C24.747 13.1326 24.4735 13.2459 24.1882 13.2459Z" fill="white"></path> <path d="M26.6978 17.1099H12.3572C11.9768 17.1099 11.6121 17.261 11.3431 17.5299C11.0742 17.7988 10.9231 18.1636 10.9231 18.5439V22.8461C10.9231 23.2265 11.0742 23.5912 11.3431 23.8602C11.6121 24.1291 11.9768 24.2802 12.3572 24.2802H26.6978C27.0782 24.2802 27.4429 24.1291 27.7119 23.8602C27.9808 23.5912 28.1319 23.2265 28.1319 22.8461V18.5439C28.1319 18.1636 27.9808 17.7988 27.7119 17.5299C27.4429 17.261 27.0782 17.1099 26.6978 17.1099ZM24.1882 21.7706C23.9755 21.7706 23.7675 21.7075 23.5907 21.5893C23.4138 21.4711 23.2759 21.3032 23.1945 21.1066C23.1131 20.9101 23.0918 20.6938 23.1333 20.4852C23.1748 20.2766 23.2773 20.0849 23.4277 19.9345C23.5781 19.7841 23.7697 19.6816 23.9784 19.6401C24.187 19.5986 24.4033 19.6199 24.5998 19.7014C24.7963 19.7828 24.9643 19.9206 25.0825 20.0975C25.2007 20.2744 25.2638 20.4823 25.2638 20.695C25.2638 20.9803 25.1504 21.2539 24.9487 21.4556C24.747 21.6573 24.4735 21.7706 24.1882 21.7706Z" fill="white"></path> </g> <defs> <clipPath id="clip0_499_849"> <rect width="13.3846" height="22.9451" fill="white" transform="translate(2 5)"></rect> </clipPath> <clipPath id="clip1_499_849"> <rect width="13.3846" height="22.9451" fill="white" transform="translate(17.6154 5)"></rect> </clipPath> </defs> </svg> 