<?xml version="1.0" encoding="UTF-8"?> <svg xmlns="http://www.w3.org/2000/svg" width="149" height="40" viewBox="0 0 149 40" fill="none"> <path d="M1.488 15H3.056V5.208H8.304V15H9.872V3.8H1.488V15ZM14.0351 13.928H14.0991C14.5631 14.52 15.4911 15.128 16.8031 15.128C19.1231 15.128 20.4991 13.176 20.4991 10.856C20.4991 8.488 19.1231 6.712 16.7231 6.712C16.0831 6.712 14.8671 6.856 14.0031 8.008H13.9711V6.84H12.5311V18.584H14.0351V13.928ZM16.4511 13.912C14.9791 13.912 14.0351 12.744 14.0351 10.936C14.0351 9.112 14.9951 7.928 16.4991 7.928C17.9551 7.928 18.8991 9.064 18.8991 10.808C18.8991 12.696 17.9391 13.912 16.4511 13.912ZM26.2413 15.128C28.7053 15.128 30.4173 13.416 30.4173 10.92C30.4173 8.424 28.7053 6.712 26.2413 6.712C23.7773 6.712 22.0653 8.424 22.0653 10.92C22.0653 13.416 23.7773 15.128 26.2413 15.128ZM26.2413 13.912C24.8333 13.912 23.6653 12.744 23.6653 10.92C23.6653 9.096 24.8333 7.928 26.2413 7.928C27.6333 7.928 28.8173 9.096 28.8173 10.92C28.8173 12.744 27.6493 13.912 26.2413 13.912ZM31.349 13.784V17.304H32.789V15H38.917V17.304H40.357V13.784H39.173V6.84H33.381L33.349 8.216C33.285 11.176 33.141 12.488 32.357 13.784H31.349ZM34.677 8.696L34.693 8.056H37.669V13.784H33.685C34.517 12.472 34.613 11.032 34.677 8.696ZM42.5766 18.584C44.3366 18.584 44.8326 17.704 45.7926 15.32L49.1846 6.84H47.6646L45.1366 13.528H45.0246L42.5446 6.84H40.8966L44.2406 15.4L44.0966 15.8C43.7286 16.792 43.4086 17.32 42.4806 17.32C42.1766 17.32 41.8886 17.272 41.8886 17.272V18.504C41.8886 18.504 42.1606 18.584 42.5766 18.584ZM50.7655 15H52.2695V11.352H53.7735L56.4295 15H58.3015L55.1335 10.712L57.9175 6.84H56.1575L53.7895 10.136H52.2695V6.84H50.7655V15ZM61.5724 15H63.0764V8.056H65.9244V6.84H58.7244V8.056H61.5724V15ZM71.1874 15H72.6914V11.352H74.1954L76.8514 15H78.7234L75.5554 10.712L78.3394 6.84H76.5794L74.2114 10.136H72.6914V6.84H71.1874V15ZM83.71 15.128C86.174 15.128 87.886 13.416 87.886 10.92C87.886 8.424 86.174 6.712 83.71 6.712C81.246 6.712 79.534 8.424 79.534 10.92C79.534 13.416 81.246 15.128 83.71 15.128ZM83.71 13.912C82.302 13.912 81.134 12.744 81.134 10.92C81.134 9.096 82.302 7.928 83.71 7.928C85.102 7.928 86.286 9.096 86.286 10.92C86.286 12.744 85.118 13.912 83.71 13.912ZM89.9999 15H91.5039V8.28H91.5359L93.7599 12.92H95.2639L97.4879 8.28H97.5199V15H99.0239V6.84H96.7679L94.5439 11.496L92.3199 6.84H89.9999V15ZM101.687 15H103.191V8.056H107.127V15H108.631V6.84H101.687V15ZM113.377 15.128C114.401 15.128 115.553 14.76 116.241 13.752H116.273V15H117.809V9.928C117.809 7.672 116.497 6.712 114.273 6.712C113.281 6.712 112.161 6.904 111.345 7.256V8.664C112.321 8.136 113.217 7.96 114.081 7.96C115.425 7.96 116.305 8.472 116.305 9.64V9.912H114.801C111.953 9.912 110.593 10.904 110.593 12.68C110.593 14.2 111.681 15.128 113.377 15.128ZM113.745 13.848C112.785 13.848 112.193 13.4 112.193 12.584C112.193 11.704 112.881 11.064 114.865 11.064H116.305V11.576C116.305 12.824 115.233 13.848 113.745 13.848ZM120.203 15H121.707V11.368H125.803V15H127.307V6.84H125.803V10.152H121.707V6.84H120.203V15ZM129.969 15H131.873L135.617 8.6H135.649V15H137.153V6.84H135.249L131.505 13.24H131.473V6.84H129.969V15ZM139.812 15H141.716L145.46 8.6H145.492V15H146.996V6.84H145.092L141.348 13.24H141.316V6.84H139.812V15Z" fill="white" fill-opacity="0.2"></path> <path d="M11.712 35.04H16.352V24.16H11.712L4.64 30.304V24.16H0V35.04H4.64L11.712 28.896V35.04Z" fill="#494A4D"></path> <path d="M33.599 35.04V24.16H28.799V27.776H22.175V24.16H17.375V35.04H22.175V31.232H28.799V35.04H33.599Z" fill="#494A4D"></path> <path d="M50.849 35.04V24.16H46.049V27.776H39.425V24.16H34.625V35.04H39.425V31.232H46.049V35.04H50.849Z" fill="#494A4D"></path> <path d="M51.715 29.728C51.715 33.632 54.595 35.2 60.227 35.2H60.739C66.371 35.2 69.251 33.632 69.251 29.728V29.472C69.251 25.568 66.371 24 60.739 24H60.227C54.595 24 51.715 25.568 51.715 29.472V29.728ZM56.675 29.664V29.536C56.675 27.856 57.939 27.2 60.179 27.2H60.787C63.027 27.2 64.291 27.856 64.291 29.536V29.664C64.291 31.344 63.027 32 60.787 32H60.179C57.939 32 56.675 31.344 56.675 29.664Z" fill="#494A4D"></path> <path d="M69.5569 24.16V27.68H75.2529V35.04H80.0529V27.68H85.7489V24.16H69.5569Z" fill="#494A4D"></path> <path d="M86.5312 35.04H100.611V31.84H91.3312V30.8H99.2353V28.4H91.3312V27.36H100.611V24.16H86.5312V35.04Z" fill="#494A4D"></path> <path d="M112.652 35.04H118.844L113.324 29.504L118.684 24.16H112.796L110.028 27.232L107.26 24.16H101.068L106.396 29.728L100.908 35.04H106.796L109.724 31.936L112.652 35.04Z" fill="#494A4D"></path> </svg> 