<?xml version="1.0" encoding="UTF-8"?> <svg xmlns="http://www.w3.org/2000/svg" width="26" height="40" viewBox="0 0 26 40" fill="none"> <path d="M5.5 21.5V29C5.5 29.9067 5.75967 31.2334 6.5827 32.3765C7.46079 33.596 8.91112 34.5 11 34.5H20V21.5H17V31.5H11C9.88888 31.5 9.33921 31.0706 9.0173 30.6235C8.64033 30.1 8.5 29.4266 8.5 29V21.5H5.5Z" fill="#494A4D"></path> <path fill-rule="evenodd" clip-rule="evenodd" d="M5.5 5.5H16C16.6567 5.5 17.6084 5.68467 18.439 6.2827C19.346 6.93579 20 8.01112 20 9.5C20 10.5336 19.6848 11.3679 19.1886 12C19.6848 12.6321 20 13.4664 20 14.5V18.5H17V14.5C17 14.2141 16.9421 14.0476 16.8935 13.9533C16.8443 13.8579 16.7765 13.7824 16.686 13.7173C16.475 13.5653 16.1766 13.5 16 13.5H8.5V18.5H5.5V5.5ZM8.5 10.5H16C16.1766 10.5 16.475 10.4347 16.686 10.2827C16.7765 10.2176 16.8443 10.1421 16.8935 10.0467C16.9421 9.95245 17 9.78586 17 9.5C17 9.21414 16.9421 9.04755 16.8935 8.95332C16.8443 8.85789 16.7765 8.78241 16.686 8.7173C16.475 8.56533 16.1766 8.5 16 8.5H8.5V10.5Z" fill="#494A4D"></path> <path fill-rule="evenodd" clip-rule="evenodd" d="M25.5 0H0V39.5H25.5V0ZM3 36.5V3H22.5V36.5H3Z" fill="#494A4D"></path> </svg> 