<?xml version="1.0" encoding="UTF-8"?> <svg xmlns="http://www.w3.org/2000/svg" width="124" height="70" viewBox="0 0 124 70" fill="none"> <path fill-rule="evenodd" clip-rule="evenodd" d="M52.4927 8.19746C52.4927 5.54649 54.6418 3.39746 57.2927 3.39746H68.7107C71.3617 3.39746 73.5107 5.54649 73.5107 8.19746V23.8028C73.5107 26.4537 71.3617 28.6028 68.7107 28.6028H57.2927C54.6418 28.6028 52.4927 26.4537 52.4927 23.8028V23.7756L50.0452 23.7756C49.6586 23.7756 49.3452 23.4622 49.3452 23.0756L49.3452 21.9756C49.3452 21.589 49.6586 21.2756 50.0452 21.2756L52.4927 21.2756V17.4192L50.0452 17.4192C49.6586 17.4192 49.3452 17.1058 49.3452 16.7192L49.3452 15.6192C49.3452 15.2326 49.6586 14.9192 50.0452 14.9192L52.4927 14.9192V10.8944L50.0441 10.8922C49.6575 10.8919 49.3444 10.5782 49.3447 10.1916L49.3457 9.0916C49.346 8.705 49.6597 8.39188 50.0463 8.39222L52.4927 8.39437V8.19746ZM63.0335 17.4842C65.2788 17.4842 66.4064 16.1598 66.6719 12.6809C66.8316 10.5897 65.1308 8.88339 63.0335 8.88339C60.9362 8.88339 59.1014 10.5975 59.3424 12.6809C59.571 16.1387 60.7881 17.4842 63.0335 17.4842ZM59.249 19.1117C57.6214 19.5628 56.7743 20.987 56.5912 22.3634C56.5424 22.7293 56.8938 23.1122 57.2781 23.1122H68.7762C69.1645 23.1122 69.4254 22.6705 69.3864 22.3634C69.2185 21.0426 68.382 19.5628 66.7544 19.1117C65.5465 18.7769 64.1375 18.4731 63.0017 18.4731C61.8659 18.4731 60.4569 18.7769 59.249 19.1117Z" fill="#EBEDF0"></path> <path d="M0.505625 65H2.20163L3.27363 62.12H8.23363L9.30562 65H11.0656L6.63363 53.8H4.93763L0.505625 65ZM5.75363 55.48H5.78563L7.76963 60.84H3.75363L5.75363 55.48ZM11.5365 63.784V67.304H12.9765V65H19.1045V67.304H20.5445V63.784H19.3605V56.84H13.5685L13.5365 58.216C13.4725 61.176 13.3285 62.488 12.5445 63.784H11.5365ZM14.8645 58.696L14.8805 58.056H17.8565V63.784H13.8725C14.7045 62.472 14.8005 61.032 14.8645 58.696ZM23.6601 63.928H23.7241C24.1881 64.52 25.1161 65.128 26.4281 65.128C28.7481 65.128 30.1241 63.176 30.1241 60.856C30.1241 58.488 28.7481 56.712 26.3481 56.712C25.7081 56.712 24.4921 56.856 23.6281 58.008H23.5961V56.84H22.1561V68.584H23.6601V63.928ZM26.0761 63.912C24.6041 63.912 23.6601 62.744 23.6601 60.936C23.6601 59.112 24.6201 57.928 26.1241 57.928C27.5801 57.928 28.5241 59.064 28.5241 60.808C28.5241 62.696 27.5641 63.912 26.0761 63.912ZM39.2743 61.256V60.84C39.2743 58.072 37.8663 56.712 35.5463 56.712C33.3863 56.712 31.6903 58.28 31.6903 60.776C31.6903 63.496 33.2423 65.128 35.9943 65.128C37.3063 65.128 38.2023 64.872 38.7143 64.712V63.24C38.1063 63.592 37.0663 63.88 36.0903 63.88C34.4423 63.88 33.4183 62.936 33.2423 61.256H39.2743ZM35.5303 57.928C36.7623 57.928 37.6743 58.728 37.6743 60.136H33.2423C33.4343 58.792 34.2823 57.928 35.5303 57.928ZM44.9734 65.128C46.2374 65.128 47.0214 64.808 47.0214 64.808V63.496C47.0214 63.496 46.2534 63.912 45.1334 63.912C43.4534 63.912 42.4934 62.824 42.4934 60.92C42.4934 59.016 43.4534 57.928 45.1494 57.928C46.2534 57.928 47.0214 58.328 47.0214 58.328V57.032C47.0214 57.032 46.2854 56.712 44.9894 56.712C42.4934 56.712 40.8934 58.408 40.8934 60.92C40.8934 63.432 42.4454 65.128 44.9734 65.128ZM49.203 65H50.707V61.368H54.803V65H56.307V56.84H54.803V60.152H50.707V56.84H49.203V65ZM61.0646 65.128C62.0886 65.128 63.2406 64.76 63.9286 63.752H63.9606V65H65.4966V59.928C65.4966 57.672 64.1846 56.712 61.9606 56.712C60.9686 56.712 59.8486 56.904 59.0326 57.256V58.664C60.0086 58.136 60.9046 57.96 61.7686 57.96C63.1126 57.96 63.9926 58.472 63.9926 59.64V59.912H62.4886C59.6406 59.912 58.2806 60.904 58.2806 62.68C58.2806 64.2 59.3686 65.128 61.0646 65.128ZM61.4326 63.848C60.4726 63.848 59.8806 63.4 59.8806 62.584C59.8806 61.704 60.5686 61.064 62.5526 61.064H63.9926V61.576C63.9926 62.824 62.9206 63.848 61.4326 63.848ZM67.0425 65H68.8185L70.4185 62.088H72.6905V65H74.1945V56.84H70.5465C68.4665 56.84 67.4745 57.88 67.4745 59.464C67.4745 60.616 68.0985 61.416 68.9305 61.8L67.0425 65ZM70.5465 60.872C69.5225 60.872 69.0105 60.328 69.0105 59.48C69.0105 58.616 69.5065 58.056 70.5465 58.056H72.6905V60.872H70.5465ZM80.5311 65H82.0351V61.352H83.5391L86.1951 65H88.0671L84.8991 60.712L87.6831 56.84H85.9231L83.5551 60.136H82.0351V56.84H80.5311V65ZM89.578 65H91.082V61.368H95.178V65H96.682V56.84H95.178V60.152H91.082V56.84H89.578V65ZM99.3436 65H101.248L104.992 58.6H105.024V65H106.528V56.84H104.624L100.88 63.24H100.848V56.84H99.3436V65ZM109.187 65H110.691V58.056H114.371V56.84H109.187V65ZM118.237 65.128C119.261 65.128 120.413 64.76 121.101 63.752H121.133V65H122.669V59.928C122.669 57.672 121.357 56.712 119.133 56.712C118.141 56.712 117.021 56.904 116.205 57.256V58.664C117.181 58.136 118.077 57.96 118.941 57.96C120.285 57.96 121.165 58.472 121.165 59.64V59.912H119.661C116.812 59.912 115.453 60.904 115.453 62.68C115.453 64.2 116.541 65.128 118.237 65.128ZM118.605 63.848C117.645 63.848 117.053 63.4 117.053 62.584C117.053 61.704 117.741 61.064 119.725 61.064H121.165V61.576C121.165 62.824 120.093 63.848 118.605 63.848Z" fill="white" fill-opacity="0.8"></path> </svg> 