<?xml version="1.0" encoding="UTF-8"?> <svg xmlns="http://www.w3.org/2000/svg" width="71" height="70" viewBox="0 0 71 70" fill="none"> <path d="M32.1801 14.9674C35.2041 14.9674 36.7226 13.1838 37.0803 8.49861C37.2952 5.68224 35.0047 3.38428 32.1801 3.38428C29.3556 3.38428 26.8846 5.69276 27.2092 8.49861C27.517 13.1554 29.1562 14.9674 32.1801 14.9674Z" fill="#EBEDF0"></path> <path d="M27.0833 17.1593C24.8914 17.7668 23.498 19.8278 23.498 22.1024C23.498 22.3514 23.6999 22.5533 23.949 22.5533H31.6985C31.6714 22.2603 31.6576 21.9634 31.6576 21.6633C31.6576 19.7021 32.2483 17.8787 33.2614 16.3615C32.8721 16.3215 32.4947 16.2992 32.1374 16.2992C30.6077 16.2992 28.7101 16.7084 27.0833 17.1593Z" fill="#EBEDF0"></path> <path fill-rule="evenodd" clip-rule="evenodd" d="M41.2167 28.6775C45.0904 28.6775 48.2307 25.5372 48.2307 21.6635C48.2307 17.7897 45.0904 14.6494 41.2167 14.6494C37.3429 14.6494 34.2026 17.7897 34.2026 21.6635C34.2026 25.5372 37.3429 28.6775 41.2167 28.6775ZM41.8349 17.2727C42.1964 17.2727 42.4894 17.5657 42.4894 17.9272V20.3907H44.9529C45.3144 20.3907 45.6075 20.6838 45.6075 21.0453V22.2816C45.6075 22.6431 45.3144 22.9362 44.9529 22.9362H42.4894V25.3997C42.4894 25.7612 42.1964 26.0543 41.8349 26.0543H40.5985C40.237 26.0543 39.944 25.7612 39.944 25.3997V22.9362H37.4805C37.119 22.9362 36.8259 22.6431 36.8259 22.2816V21.0453C36.8259 20.6838 37.119 20.3907 37.4805 20.3907H39.944V17.9272C39.944 17.5657 40.237 17.2727 40.5985 17.2727H41.8349Z" fill="#EBEDF0"></path> <path d="M0.4885 67.496H2.0565V65H10.1045V67.496H11.6725V63.592H10.4085V53.8H2.9045V56.664C2.9045 59.72 2.7445 61.752 1.5605 63.592H0.4885V67.496ZM4.3925 55.816V55.208H8.8405V63.592H3.1445C4.3605 61.848 4.3925 58.216 4.3925 55.816ZM17.1944 65.128C19.6584 65.128 21.3704 63.416 21.3704 60.92C21.3704 58.424 19.6584 56.712 17.1944 56.712C14.7304 56.712 13.0184 58.424 13.0184 60.92C13.0184 63.416 14.7304 65.128 17.1944 65.128ZM17.1944 63.912C15.7864 63.912 14.6184 62.744 14.6184 60.92C14.6184 59.096 15.7864 57.928 17.1944 57.928C18.5864 57.928 19.7704 59.096 19.7704 60.92C19.7704 62.744 18.6024 63.912 17.1944 63.912ZM25.4843 65.128C28.1403 65.128 29.2283 64.056 29.2283 62.744C29.2283 61.768 28.6203 60.968 27.4683 60.712V60.696C28.4283 60.376 28.9083 59.736 28.9083 58.872C28.9083 57.608 27.8683 56.712 25.5483 56.712C24.1562 56.712 23.1643 57.032 23.1643 57.032V58.344C23.1643 58.344 24.2043 57.928 25.4523 57.928C26.7003 57.928 27.3083 58.36 27.3083 59.048C27.3083 59.704 26.7643 60.168 25.4683 60.168H24.3963V61.352H25.7083C27.0043 61.352 27.6283 61.832 27.6283 62.584C27.6283 63.416 26.8602 63.912 25.3243 63.912C23.8203 63.912 22.8603 63.432 22.8603 63.432V64.728C22.8603 64.744 23.8043 65.128 25.4843 65.128ZM37.6678 58.984C37.6678 57.768 36.7878 56.84 34.4678 56.84H31.1718V65H34.7878C36.9478 65 37.9878 63.96 37.9878 62.616C37.9878 61.672 37.4598 61.064 36.4358 60.728V60.696C37.2518 60.36 37.6678 59.832 37.6678 58.984ZM32.6758 63.784V61.368H34.7878C35.8758 61.368 36.3558 61.848 36.3558 62.584C36.3558 63.32 35.8758 63.784 34.7878 63.784H32.6758ZM32.6758 60.152V58.056H34.4678C35.5558 58.056 36.0358 58.52 36.0358 59.096C36.0358 59.672 35.5558 60.152 34.4678 60.152H32.6758ZM43.5538 65.128C46.0178 65.128 47.7298 63.416 47.7298 60.92C47.7298 58.424 46.0178 56.712 43.5538 56.712C41.0898 56.712 39.3778 58.424 39.3778 60.92C39.3778 63.416 41.0898 65.128 43.5538 65.128ZM43.5538 63.912C42.1458 63.912 40.9778 62.744 40.9778 60.92C40.9778 59.096 42.1458 57.928 43.5538 57.928C44.9458 57.928 46.1298 59.096 46.1298 60.92C46.1298 62.744 44.9618 63.912 43.5538 63.912ZM49.8436 65H51.3476V61.368H55.4436V65H56.9476V56.84H55.4436V60.152H51.3476V56.84H49.8436V65ZM59.6093 65H62.7613C65.0813 65 66.1213 63.96 66.1213 62.344C66.1213 60.712 65.0813 59.656 62.7613 59.656H61.1133V56.84H59.6093V65ZM61.1133 63.784V60.872H62.7613C64.0253 60.872 64.5853 61.448 64.5853 62.344C64.5853 63.224 64.0253 63.784 62.7613 63.784H61.1133ZM67.8493 65H69.3533V56.84H67.8493V65Z" fill="white" fill-opacity="0.8"></path> </svg> 