<?xml version="1.0" encoding="UTF-8"?> <svg xmlns="http://www.w3.org/2000/svg" width="32" height="32" viewBox="0 0 32 32" fill="none"> <g clip-path="url(#clip0_499_837)"> <path d="M23.5 19C23.5 19.9283 23.1313 20.8185 22.4749 21.4749C21.8185 22.1313 20.9283 22.5 20 22.5C19.0717 22.5 18.1815 22.1313 17.5251 21.4749C16.8687 20.8185 16.5 19.9283 16.5 19C16.5 17.0375 17.6625 16.0375 18.6 15.2375C19.5375 14.4375 20 13.9875 20 13C20 11.9391 19.5786 10.9217 18.8284 10.1716C18.0783 9.42143 17.0609 9 16 9C14.9391 9 13.9217 9.42143 13.1716 10.1716C12.4214 10.9217 12 11.9391 12 13C12 13.2652 11.8946 13.5196 11.7071 13.7071C11.5196 13.8946 11.2652 14 11 14C10.7348 14 10.4804 13.8946 10.2929 13.7071C10.1054 13.5196 10 13.2652 10 13C10 11.4087 10.6321 9.88258 11.7574 8.75736C12.8826 7.63214 14.4087 7 16 7C17.5913 7 19.1174 7.63214 20.2426 8.75736C21.3679 9.88258 22 11.4087 22 13C22 14.9625 20.8375 15.9625 19.9 16.7625C18.9625 17.5625 18.5 18.0125 18.5 19C18.5 19.3978 18.658 19.7794 18.9393 20.0607C19.2206 20.342 19.6022 20.5 20 20.5C20.3978 20.5 20.7794 20.342 21.0607 20.0607C21.342 19.7794 21.5 19.3978 21.5 19C21.5 18.7348 21.6054 18.4804 21.7929 18.2929C21.9804 18.1054 22.2348 18 22.5 18C22.7652 18 23.0196 18.1054 23.2071 18.2929C23.3946 18.4804 23.5 18.7348 23.5 19ZM16 2C13.0836 2.00331 10.2877 3.1633 8.22548 5.22548C6.1633 7.28766 5.00331 10.0836 5 13C5 17.1875 6.5625 18.6875 7.8125 19.9C8.7875 20.8375 9.5 21.525 9.5 23.5C9.50015 24.8383 9.91338 26.1439 10.6833 27.2386C11.4532 28.3333 12.5422 29.1636 13.8016 29.6162C15.061 30.0689 16.4295 30.1217 17.7201 29.7676C19.0107 29.4134 20.1605 28.6695 21.0125 27.6375C21.1793 27.431 21.2584 27.1673 21.2326 26.9031C21.2069 26.6389 21.0785 26.3954 20.875 26.225C20.7744 26.1412 20.6582 26.0782 20.5331 26.0397C20.408 26.0012 20.2765 25.988 20.1462 26.0008C20.016 26.0136 19.8895 26.0522 19.7743 26.1142C19.6591 26.1763 19.5573 26.2607 19.475 26.3625C18.8857 27.0787 18.0895 27.5954 17.1953 27.8417C16.3012 28.0881 15.3527 28.0522 14.4798 27.7388C13.6068 27.4255 12.852 26.8501 12.3186 26.0913C11.7852 25.3325 11.4993 24.4275 11.5 23.5C11.5 20.675 10.275 19.5 9.2 18.45C8.125 17.4 7 16.3375 7 13C7 10.6131 7.94821 8.32387 9.63604 6.63604C11.3239 4.94821 13.6131 4 16 4C18.3869 4 20.6761 4.94821 22.364 6.63604C24.0518 8.32387 25 10.6131 25 13C25 13.2652 25.1054 13.5196 25.2929 13.7071C25.4804 13.8946 25.7348 14 26 14C26.2652 14 26.5196 13.8946 26.7071 13.7071C26.8946 13.5196 27 13.2652 27 13C26.9967 10.0836 25.8367 7.28766 23.7745 5.22548C21.7123 3.1633 18.9164 2.00331 16 2Z" fill="white"></path> </g> <defs> <clipPath id="clip0_499_837"> <rect width="32" height="32" fill="white"></rect> </clipPath> </defs> </svg> 