<?xml version="1.0" encoding="UTF-8"?> <svg xmlns="http://www.w3.org/2000/svg" width="32" height="32" viewBox="0 0 32 32" fill="none"> <path d="M12.6503 9.70528C11.5519 11.0149 10.9499 12.6696 10.9499 14.3788V25.4909C10.9499 25.8524 11.2429 26.1454 11.6044 26.1454H21.0042C23.3465 26.1454 25.4604 24.7408 26.3679 22.5815L27.9971 18.7051C28.4845 17.5453 28.7355 16.3 28.7355 15.0419V13.9145C28.7355 12.7095 27.7587 11.7327 26.5537 11.7327H19.0105C18.5629 11.7327 18.2473 11.2935 18.3901 10.8693L19.988 6.12256C20.2225 5.42614 19.9883 4.65772 19.4054 4.21035C18.6752 3.64996 17.6331 3.76417 17.0417 4.46941L12.6503 9.70528Z" fill="white"></path> <path d="M4.77564 13.1278C4.41414 13.1278 4.12109 13.4208 4.12109 13.7823V25.4909C4.12109 25.8524 4.41414 26.1454 4.77564 26.1454H7.38624C7.74773 26.1454 8.04078 25.8524 8.04078 25.4909V13.7823C8.04078 13.4208 7.74773 13.1278 7.38624 13.1278H4.77564Z" fill="white"></path> </svg> 