<?xml version="1.0" encoding="UTF-8"?> <svg xmlns="http://www.w3.org/2000/svg" width="33" height="32" viewBox="0 0 33 32" fill="none"> <path d="M28.3798 2.6665H4.6198C4.26971 2.6665 3.93397 2.80698 3.68642 3.05702C3.43888 3.30708 3.2998 3.64621 3.2998 3.99984V27.9998C3.2998 28.3534 3.43888 28.6926 3.68642 28.9426C3.93397 29.1926 4.26971 29.3332 4.6198 29.3332H28.3798C28.7299 29.3332 29.0657 29.1926 29.3132 28.9426C29.5607 28.6926 29.6998 28.3534 29.6998 27.9998V3.99984C29.6998 3.64621 29.5607 3.30708 29.3132 3.05702C29.0657 2.80698 28.7299 2.6665 28.3798 2.6665ZM11.2198 26.6665H5.9398V5.33317H11.2198V26.6665ZM27.0598 26.6665H13.8598V17.3332H27.0598V26.6665ZM27.0598 14.6665H13.8598V5.33317H27.0598V14.6665Z" fill="white"></path> </svg> 