<?xml version="1.0" encoding="UTF-8"?> <svg xmlns="http://www.w3.org/2000/svg" width="151" height="77" viewBox="0 0 151 77" fill="none"> <g clip-path="url(#clip0_196_7531)"> <path d="M80.5 13H73.5V20H80.5V13Z" stroke="white" stroke-width="2" stroke-linecap="round" stroke-linejoin="round"></path> <path d="M86 6.5H68C67.4477 6.5 67 6.94772 67 7.5V25.5C67 26.0523 67.4477 26.5 68 26.5H86C86.5523 26.5 87 26.0523 87 25.5V7.5C87 6.94772 86.5523 6.5 86 6.5Z" stroke="white" stroke-width="2" stroke-linecap="round" stroke-linejoin="round"></path> <path d="M87 13.5H90" stroke="white" stroke-width="2" stroke-linecap="round" stroke-linejoin="round"></path> <path d="M87 19.5H90" stroke="white" stroke-width="2" stroke-linecap="round" stroke-linejoin="round"></path> <path d="M64 13.5H67" stroke="white" stroke-width="2" stroke-linecap="round" stroke-linejoin="round"></path> <path d="M64 19.5H67" stroke="white" stroke-width="2" stroke-linecap="round" stroke-linejoin="round"></path> <path d="M80 26.5V29.5" stroke="white" stroke-width="2" stroke-linecap="round" stroke-linejoin="round"></path> <path d="M74 26.5V29.5" stroke="white" stroke-width="2" stroke-linecap="round" stroke-linejoin="round"></path> <path d="M80 3.5V6.5" stroke="white" stroke-width="2" stroke-linecap="round" stroke-linejoin="round"></path> <path d="M74 3.5V6.5" stroke="white" stroke-width="2" stroke-linecap="round" stroke-linejoin="round"></path> <path d="M17.3392 56.5H18.1312V52.492H22.7392V56.5H23.5312V48.1H22.7392V51.808H18.1312V48.1H17.3392V56.5ZM30.8508 53.644V53.404C30.8508 52.336 30.6708 50.248 28.2108 50.248C26.5308 50.248 25.3308 51.388 25.3308 53.32C25.3308 55.432 26.5428 56.596 28.5228 56.596C29.0988 56.596 29.7228 56.524 30.4068 56.26V55.564C29.7348 55.876 29.0868 55.96 28.5468 55.96C26.9868 55.96 26.1828 55.072 26.0868 53.644H30.8508ZM28.2108 50.884C29.9748 50.884 30.0708 52.516 30.0588 53.008H26.0988C26.2068 51.688 27.0108 50.884 28.2108 50.884ZM35.4067 56.5H36.1627V50.98H39.1027V50.344H35.4067V56.5ZM41.3776 55.408H41.4016C41.7976 56.08 42.5776 56.596 43.5976 56.596C45.2536 56.596 46.3816 55.396 46.3816 53.428C46.3816 51.496 45.1696 50.248 43.5256 50.248C42.5176 50.248 41.8696 50.728 41.4016 51.304H41.3536V50.344H40.6216V59.14H41.3776V55.408ZM43.5136 55.96C42.5776 55.96 41.3656 55.264 41.3656 53.44C41.3656 51.952 42.2416 50.884 43.5016 50.884C44.7376 50.884 45.5896 51.952 45.5896 53.44C45.5896 55.024 44.6536 55.96 43.5136 55.96ZM48.6284 59.14C49.4804 59.14 49.8284 58.516 50.1164 57.808L53.1524 50.344H52.3484L50.2364 55.648H50.1884L48.0644 50.344H47.2484L49.7924 56.668L49.3844 57.664C49.1204 58.312 48.8924 58.456 48.5324 58.456C48.2204 58.456 47.9444 58.348 47.9444 58.348V59.032C47.9564 59.032 48.2924 59.14 48.6284 59.14ZM55.958 56.596C57.638 56.596 58.586 55.864 58.586 54.76C58.586 53.788 57.866 53.368 57.374 53.26V53.224C57.878 53.056 58.358 52.648 58.358 51.892C58.358 50.968 57.674 50.248 56.066 50.248C55.442 50.248 54.866 50.332 54.278 50.512V51.196C54.746 51.016 55.394 50.896 56.054 50.896C57.17 50.896 57.602 51.304 57.602 51.904C57.602 52.564 57.11 52.984 56.09 52.984H55.13V53.62H56.09C57.374 53.62 57.794 54.148 57.794 54.748C57.794 55.528 57.098 55.948 55.994 55.948C55.406 55.948 54.698 55.852 54.134 55.588V56.332C54.89 56.548 55.454 56.596 55.958 56.596ZM60.3677 56.5H61.2077L64.7597 51.34H64.7957L64.7837 56.5H65.5397V50.344H64.6997L61.1477 55.504H61.1117L61.1237 50.344H60.3677V56.5ZM69.1545 56.5H69.8985V50.98H72.0705V50.344H66.9825V50.98H69.1545V56.5ZM76.2817 56.5H77.0377V50.98H80.5177V56.5H81.2737V50.344H76.2817V56.5ZM84.233 55.408H84.257C84.653 56.08 85.433 56.596 86.453 56.596C88.109 56.596 89.237 55.396 89.237 53.428C89.237 51.496 88.025 50.248 86.381 50.248C85.373 50.248 84.725 50.728 84.257 51.304H84.209V50.344H83.477V59.14H84.233V55.408ZM86.369 55.96C85.433 55.96 84.221 55.264 84.221 53.44C84.221 51.952 85.097 50.884 86.357 50.884C87.593 50.884 88.445 51.952 88.445 53.44C88.445 55.024 87.509 55.96 86.369 55.96ZM93.6516 56.596C95.4636 56.596 96.6756 55.336 96.6756 53.428C96.6756 51.508 95.4756 50.248 93.6516 50.248C91.8276 50.248 90.6276 51.508 90.6276 53.428C90.6276 55.336 91.8396 56.596 93.6516 56.596ZM93.6516 55.96C92.0916 55.96 91.4196 54.616 91.4196 53.428C91.4196 52.228 92.0916 50.884 93.6516 50.884C95.2116 50.884 95.8836 52.228 95.8836 53.428C95.8836 54.616 95.2116 55.96 93.6516 55.96ZM103.553 58.156H104.309V55.864H103.373V50.344H102.617V55.864H99.233V50.344H98.477V56.5H103.553V58.156ZM110.667 53.644V53.404C110.667 52.336 110.487 50.248 108.027 50.248C106.347 50.248 105.147 51.388 105.147 53.32C105.147 55.432 106.359 56.596 108.339 56.596C108.915 56.596 109.539 56.524 110.223 56.26V55.564C109.551 55.876 108.903 55.96 108.363 55.96C106.803 55.96 105.999 55.072 105.903 53.644H110.667ZM108.027 50.884C109.791 50.884 109.887 52.516 109.875 53.008H105.915C106.023 51.688 106.827 50.884 108.027 50.884ZM115.122 56.596C115.554 56.596 115.938 56.548 116.43 56.356V55.684C115.998 55.852 115.566 55.96 115.11 55.96C113.682 55.96 112.842 55 112.842 53.368C112.842 51.844 113.634 50.884 115.038 50.884C115.674 50.884 116.166 51.052 116.382 51.1V50.428C115.746 50.248 115.29 50.248 115.098 50.248C113.154 50.248 112.05 51.484 112.05 53.344C112.05 55.312 113.106 56.596 115.122 56.596ZM120.887 56.596C121.319 56.596 121.703 56.548 122.195 56.356V55.684C121.763 55.852 121.331 55.96 120.875 55.96C119.447 55.96 118.607 55 118.607 53.368C118.607 51.844 119.399 50.884 120.803 50.884C121.439 50.884 121.931 51.052 122.147 51.1V50.428C121.511 50.248 121.055 50.248 120.863 50.248C118.919 50.248 117.815 51.484 117.815 53.344C117.815 55.312 118.871 56.596 120.887 56.596ZM126.605 56.596C128.417 56.596 129.629 55.336 129.629 53.428C129.629 51.508 128.429 50.248 126.605 50.248C124.781 50.248 123.581 51.508 123.581 53.428C123.581 55.336 124.793 56.596 126.605 56.596ZM126.605 55.96C125.045 55.96 124.373 54.616 124.373 53.428C124.373 52.228 125.045 50.884 126.605 50.884C128.165 50.884 128.837 52.228 128.837 53.428C128.837 54.616 128.165 55.96 126.605 55.96ZM132.186 55.408H132.21C132.606 56.08 133.386 56.596 134.406 56.596C136.062 56.596 137.19 55.396 137.19 53.428C137.19 51.496 135.978 50.248 134.334 50.248C133.326 50.248 132.678 50.728 132.21 51.304H132.162V50.344H131.43V59.14H132.186V55.408ZM134.322 55.96C133.386 55.96 132.174 55.264 132.174 53.44C132.174 51.952 133.05 50.884 134.31 50.884C135.546 50.884 136.398 51.952 136.398 53.44C136.398 55.024 135.462 55.96 134.322 55.96ZM37.6919 72.5H38.4479V66.98H41.9279V72.5H42.6839V66.344H37.6919V72.5ZM47.5032 72.596C49.3152 72.596 50.5272 71.336 50.5272 69.428C50.5272 67.508 49.3272 66.248 47.5032 66.248C45.6792 66.248 44.4792 67.508 44.4792 69.428C44.4792 71.336 45.6912 72.596 47.5032 72.596ZM47.5032 71.96C45.9432 71.96 45.2712 70.616 45.2712 69.428C45.2712 68.228 45.9432 66.884 47.5032 66.884C49.0632 66.884 49.7352 68.228 49.7352 69.428C49.7352 70.616 49.0632 71.96 47.5032 71.96ZM51.8726 72.596C52.9166 72.596 53.6006 71.9 53.6006 67.82V66.98H56.4446V72.5H57.2006V66.344H52.8446V67.82C52.8446 71.492 52.3286 71.912 51.7406 71.912C51.4526 71.912 51.2846 71.852 51.2846 71.852V72.536C51.2846 72.536 51.5726 72.596 51.8726 72.596ZM59.4067 72.5H61.9267C63.6067 72.5 64.3267 71.756 64.3267 70.52C64.3267 69.284 63.6067 68.54 61.9267 68.54H60.1627V66.344H59.4067V72.5ZM61.9267 69.176C63.0547 69.176 63.5347 69.68 63.5347 70.52C63.5347 71.36 63.0547 71.864 61.9267 71.864H60.1627V69.176H61.9267ZM67.126 72.596C68.806 72.596 69.754 71.864 69.754 70.76C69.754 69.788 69.034 69.368 68.542 69.26V69.224C69.046 69.056 69.526 68.648 69.526 67.892C69.526 66.968 68.842 66.248 67.234 66.248C66.61 66.248 66.034 66.332 65.446 66.512V67.196C65.914 67.016 66.562 66.896 67.222 66.896C68.338 66.896 68.77 67.304 68.77 67.904C68.77 68.564 68.278 68.984 67.258 68.984H66.298V69.62H67.258C68.542 69.62 68.962 70.148 68.962 70.748C68.962 71.528 68.266 71.948 67.162 71.948C66.574 71.948 65.866 71.852 65.302 71.588V72.332C66.058 72.548 66.622 72.596 67.126 72.596ZM74.1516 72.596C75.9636 72.596 77.1756 71.336 77.1756 69.428C77.1756 67.508 75.9756 66.248 74.1516 66.248C72.3276 66.248 71.1276 67.508 71.1276 69.428C71.1276 71.336 72.3396 72.596 74.1516 72.596ZM74.1516 71.96C72.5916 71.96 71.9196 70.616 71.9196 69.428C71.9196 68.228 72.5916 66.884 74.1516 66.884C75.7116 66.884 76.3836 68.228 76.3836 69.428C76.3836 70.616 75.7116 71.96 74.1516 71.96ZM83.609 67.94C83.609 67.076 82.997 66.344 81.701 66.344H78.977V72.5H81.785C82.049 72.5 83.861 72.44 83.861 70.808C83.861 70.016 83.381 69.44 82.697 69.236V69.224C83.297 68.936 83.609 68.528 83.609 67.94ZM79.733 71.864V69.644H81.605C82.673 69.644 83.069 70.184 83.069 70.772C83.069 71.336 82.685 71.864 81.725 71.864H79.733ZM79.733 69.008V66.98H81.653C82.637 66.98 82.853 67.604 82.841 68.048C82.805 68.972 81.869 69.008 81.533 69.008H79.733ZM86.9315 72.596C87.6875 72.596 88.5995 72.368 89.2475 71.528H89.2955V72.5H90.0275V68.564C90.0275 66.908 89.1395 66.248 87.5315 66.248C86.7515 66.248 85.9835 66.416 85.4675 66.596V67.292C86.1155 67.004 86.9195 66.896 87.5075 66.896C88.7075 66.896 89.2715 67.304 89.2715 68.564V68.72L88.4195 68.744C85.9835 68.816 84.9755 69.584 84.9755 70.808C84.9755 71.756 85.6235 72.596 86.9315 72.596ZM87.1475 71.96C86.2355 71.96 85.7675 71.492 85.7675 70.796C85.7675 69.992 86.3915 69.44 88.4195 69.38L89.2715 69.356V69.86C89.2715 71.084 88.4555 71.96 87.1475 71.96ZM93.635 72.5H94.379V66.98H96.551V66.344H91.463V66.98H93.635V72.5ZM102.933 69.644V69.404C102.933 68.336 102.753 66.248 100.293 66.248C98.6128 66.248 97.4128 67.388 97.4128 69.32C97.4128 71.432 98.6248 72.596 100.605 72.596C101.181 72.596 101.805 72.524 102.489 72.26V71.564C101.817 71.876 101.169 71.96 100.629 71.96C99.0688 71.96 98.2648 71.072 98.1688 69.644H102.933ZM100.293 66.884C102.057 66.884 102.153 68.516 102.141 69.008H98.1808C98.2888 67.688 99.0928 66.884 100.293 66.884ZM104.267 72.596C105.311 72.596 105.995 71.9 105.995 67.82V66.98H108.839V72.5H109.595V66.344H105.239V67.82C105.239 71.492 104.723 71.912 104.135 71.912C103.847 71.912 103.679 71.852 103.679 71.852V72.536C103.679 72.536 103.967 72.596 104.267 72.596ZM111.249 72.5H112.161L113.481 70.124C113.577 70.136 113.673 70.136 113.769 70.136H115.557V72.5H116.313V66.344H113.769C112.209 66.344 111.489 67.052 111.489 68.24C111.489 69.188 111.981 69.74 112.713 69.98L111.249 72.5ZM113.769 69.5C112.761 69.5 112.281 69.032 112.281 68.24C112.281 67.448 112.761 66.98 113.769 66.98H115.557V69.5H113.769Z" fill="#EBEDF0"></path> </g> <defs> <clipPath id="clip0_196_7531"> <rect width="151" height="76" fill="white" transform="translate(0 0.5)"></rect> </clipPath> </defs> </svg> 