<?xml version="1.0" encoding="UTF-8"?> <svg xmlns="http://www.w3.org/2000/svg" width="32" height="32" viewBox="0 0 32 32" fill="none"> <path d="M12.68 14.9675C15.7039 14.9675 17.2224 13.1839 17.5801 8.49873C17.7951 5.68236 15.5045 3.3844 12.68 3.3844C9.85539 3.3844 7.38438 5.69288 7.70904 8.49873C8.01684 13.1555 9.656 14.9675 12.68 14.9675Z" fill="#EBEDF0"></path> <path d="M7.58315 17.1594C5.39124 17.767 3.99786 19.8279 3.99786 22.1025C3.99786 22.3515 4.19974 22.5534 4.44878 22.5534H12.1983C12.1713 22.2604 12.1574 21.9635 12.1574 21.6635C12.1574 19.7022 12.7481 17.8788 13.7612 16.3616C13.3719 16.3216 12.9945 16.2993 12.6372 16.2993C11.1076 16.2993 9.20996 16.7085 7.58315 17.1594Z" fill="#EBEDF0"></path> <path fill-rule="evenodd" clip-rule="evenodd" d="M21.7169 28.6776C25.5907 28.6776 28.731 25.5373 28.731 21.6636C28.731 17.7898 25.5907 14.6495 21.7169 14.6495C17.8432 14.6495 14.7029 17.7898 14.7029 21.6636C14.7029 25.5373 17.8432 28.6776 21.7169 28.6776ZM22.3351 17.2728C22.6966 17.2728 22.9897 17.5659 22.9897 17.9274V20.3909H25.4532C25.8147 20.3909 26.1077 20.6839 26.1077 21.0454V22.2818C26.1077 22.6433 25.8147 22.9363 25.4532 22.9363H22.9897V25.3998C22.9897 25.7613 22.6966 26.0544 22.3351 26.0544H21.0987C20.7373 26.0544 20.4442 25.7613 20.4442 25.3998V22.9363H17.9807C17.6192 22.9363 17.3261 22.6433 17.3261 22.2818V21.0454C17.3261 20.6839 17.6192 20.3909 17.9807 20.3909H20.4442V17.9274C20.4442 17.5659 20.7373 17.2728 21.0987 17.2728H22.3351Z" fill="#EBEDF0"></path> </svg> 