<?xml version="1.0" encoding="UTF-8"?> <svg xmlns="http://www.w3.org/2000/svg" width="134" height="70" viewBox="0 0 134 70" fill="none"> <g clip-path="url(#clip0_139_6287)"> <path fill-rule="evenodd" clip-rule="evenodd" d="M46.5 2H71.5C72.6046 2 73.5 2.89543 73.5 4H75.5C75.5 1.79086 73.7091 0 71.5 0H46.5C44.2909 0 42.5 1.79086 42.5 4V24C42.5 26.2091 44.2909 28 46.5 28H67.4985V26H46.5C45.3954 26 44.5 25.1046 44.5 24V4C44.5 2.89543 45.3954 2 46.5 2Z" fill="white"></path> <path fill-rule="evenodd" clip-rule="evenodd" d="M72.4985 7H81.4985C82.6031 7 83.4985 7.89543 83.4985 9V10H85.4985V9C85.4985 6.79086 83.7077 5 81.4985 5H72.4985C70.2894 5 68.4985 6.79086 68.4985 9V28C68.4985 30.2091 70.2894 32 72.4985 32H80.8527C80.2623 31.4789 79.8269 30.7862 79.6246 30H72.4985C71.394 30 70.4985 29.1046 70.4985 28V9C70.4985 7.89543 71.394 7 72.4985 7Z" fill="white"></path> <rect x="81.5" y="12.0344" width="9" height="18.9655" rx="2" stroke="white" stroke-width="2"></rect> <rect x="49.5" y="29.7932" width="18" height="2.2069" rx="1.10345" fill="#EBEDF0"></rect> </g> <path d="M1.85519 65H3.42319V59.896H8.83119V65H10.3992V53.8H8.83119V58.488H3.42319V53.8H1.85519V65ZM15.1506 65.128C16.1746 65.128 17.3266 64.76 18.0146 63.752H18.0466V65H19.5826V59.928C19.5826 57.672 18.2706 56.712 16.0466 56.712C15.0546 56.712 13.9346 56.904 13.1186 57.256V58.664C14.0946 58.136 14.9906 57.96 15.8546 57.96C17.1986 57.96 18.0786 58.472 18.0786 59.64V59.912H16.5746C13.7266 59.912 12.3666 60.904 12.3666 62.68C12.3666 64.2 13.4546 65.128 15.1506 65.128ZM15.5186 63.848C14.5586 63.848 13.9666 63.4 13.9666 62.584C13.9666 61.704 14.6546 61.064 16.6386 61.064H18.0786V61.576C18.0786 62.824 17.0066 63.848 15.5186 63.848ZM32.1599 58.984C32.1599 57.768 31.2799 56.84 28.9599 56.84H25.6639V65H29.2799C31.4399 65 32.4799 63.96 32.4799 62.616C32.4799 61.672 31.9519 61.064 30.9279 60.728V60.696C31.7439 60.36 32.1599 59.832 32.1599 58.984ZM27.1679 63.784V61.368H29.2799C30.3679 61.368 30.8479 61.848 30.8479 62.584C30.8479 63.32 30.3679 63.784 29.2799 63.784H27.1679ZM27.1679 60.152V58.056H28.9599C30.0479 58.056 30.5279 58.52 30.5279 59.096C30.5279 59.672 30.0479 60.152 28.9599 60.152H27.1679ZM37.9499 65.128C39.2139 65.128 39.9979 64.808 39.9979 64.808V63.496C39.9979 63.496 39.2299 63.912 38.1099 63.912C36.4299 63.912 35.4699 62.824 35.4699 60.92C35.4699 59.016 36.4299 57.928 38.1259 57.928C39.2299 57.928 39.9979 58.328 39.9979 58.328V57.032C39.9979 57.032 39.2619 56.712 37.9659 56.712C35.4699 56.712 33.8699 58.408 33.8699 60.92C33.8699 63.432 35.4219 65.128 37.9499 65.128ZM49.1414 61.256V60.84C49.1414 58.072 47.7334 56.712 45.4134 56.712C43.2534 56.712 41.5574 58.28 41.5574 60.776C41.5574 63.496 43.1094 65.128 45.8614 65.128C47.1734 65.128 48.0694 64.872 48.5814 64.712V63.24C47.9734 63.592 46.9334 63.88 45.9574 63.88C44.3094 63.88 43.2854 62.936 43.1094 61.256H49.1414ZM45.3974 57.928C46.6294 57.928 47.5414 58.728 47.5414 60.136H43.1094C43.3014 58.792 44.1494 57.928 45.3974 57.928ZM50.2184 65H52.0104L54.1864 61.736L56.3624 65H58.2184L55.1944 60.728L58.0424 56.84H56.3624L54.3144 59.864L52.2984 56.84H50.4264L53.3064 60.728L50.2184 65ZM62.4506 63.784V67.304H63.8906V65H70.0186V67.304H71.4586V63.784H70.2746V56.84H64.4826L64.4506 58.216C64.3866 61.176 64.2426 62.488 63.4586 63.784H62.4506ZM65.7786 58.696L65.7946 58.056H68.7706V63.784H64.7866C65.6186 62.472 65.7146 61.032 65.7786 58.696ZM79.9539 61.256V60.84C79.9539 58.072 78.5459 56.712 76.2259 56.712C74.0659 56.712 72.3699 58.28 72.3699 60.776C72.3699 63.496 73.9219 65.128 76.6739 65.128C77.9859 65.128 78.8819 64.872 79.3939 64.712V63.24C78.7859 63.592 77.7459 63.88 76.7699 63.88C75.1219 63.88 74.0979 62.936 73.9219 61.256H79.9539ZM76.2099 57.928C77.4419 57.928 78.3539 58.728 78.3539 60.136H73.9219C74.1139 58.792 74.9619 57.928 76.2099 57.928ZM88.6131 58.984C88.6131 57.768 87.7331 56.84 85.4131 56.84H82.1171V65H85.7331C87.8931 65 88.9331 63.96 88.9331 62.616C88.9331 61.672 88.4051 61.064 87.3811 60.728V60.696C88.1971 60.36 88.6131 59.832 88.6131 58.984ZM83.6211 63.784V61.368H85.7331C86.8211 61.368 87.3011 61.848 87.3011 62.584C87.3011 63.32 86.8211 63.784 85.7331 63.784H83.6211ZM83.6211 60.152V58.056H85.4131C86.5011 58.056 86.9811 58.52 86.9811 59.096C86.9811 59.672 86.5011 60.152 85.4131 60.152H83.6211ZM92.9631 65.128C93.9871 65.128 95.1391 64.76 95.8271 63.752H95.8591V65H97.3951V59.928C97.3951 57.672 96.0831 56.712 93.8591 56.712C92.8671 56.712 91.7471 56.904 90.9311 57.256V58.664C91.9071 58.136 92.8031 57.96 93.6671 57.96C95.0111 57.96 95.8911 58.472 95.8911 59.64V59.912H94.3871C91.5391 59.912 90.1791 60.904 90.1791 62.68C90.1791 64.2 91.2671 65.128 92.9631 65.128ZM93.3311 63.848C92.3711 63.848 91.7791 63.4 91.7791 62.584C91.7791 61.704 92.4671 61.064 94.4511 61.064H95.8911V61.576C95.8911 62.824 94.8191 63.848 93.3311 63.848ZM99.7889 65H101.693L105.437 58.6H105.469V65H106.973V56.84H105.069L101.325 63.24H101.293V56.84H99.7889V65ZM103.437 55.144C104.781 55.144 105.805 54.456 105.869 52.968H104.781C104.669 53.672 104.173 54.056 103.437 54.056C102.701 54.056 102.157 53.672 102.045 52.968H100.909C100.973 54.456 102.093 55.144 103.437 55.144ZM113.169 65.128C114.433 65.128 115.217 64.808 115.217 64.808V63.496C115.217 63.496 114.449 63.912 113.329 63.912C111.649 63.912 110.689 62.824 110.689 60.92C110.689 59.016 111.649 57.928 113.345 57.928C114.449 57.928 115.217 58.328 115.217 58.328V57.032C115.217 57.032 114.481 56.712 113.185 56.712C110.689 56.712 109.089 58.408 109.089 60.92C109.089 63.432 110.641 65.128 113.169 65.128ZM119.494 65.128C120.518 65.128 121.67 64.76 122.358 63.752H122.39V65H123.926V59.928C123.926 57.672 122.614 56.712 120.39 56.712C119.398 56.712 118.278 56.904 117.462 57.256V58.664C118.438 58.136 119.334 57.96 120.198 57.96C121.542 57.96 122.422 58.472 122.422 59.64V59.912H120.918C118.07 59.912 116.71 60.904 116.71 62.68C116.71 64.2 117.798 65.128 119.494 65.128ZM119.862 63.848C118.902 63.848 118.31 63.4 118.31 62.584C118.31 61.704 118.998 61.064 120.982 61.064H122.422V61.576C122.422 62.824 121.35 63.848 119.862 63.848ZM125.312 65H127.104L129.28 61.736L131.456 65H133.312L130.288 60.728L133.136 56.84H131.456L129.408 59.864L127.392 56.84H125.52L128.4 60.728L125.312 65Z" fill="white" fill-opacity="0.8"></path> <defs> <clipPath id="clip0_139_6287"> <rect width="49.0002" height="32" fill="white" transform="translate(42.5)"></rect> </clipPath> </defs> </svg> 