<?xml version="1.0" encoding="UTF-8"?> <svg xmlns="http://www.w3.org/2000/svg" width="32" height="32" viewBox="0 0 32 32" fill="none"> <path fill-rule="evenodd" clip-rule="evenodd" d="M15.6341 20.2499C14.6676 20.6419 13.6108 20.8578 12.5036 20.8578C7.9005 20.8578 4.16895 17.1262 4.16895 12.5231C4.16895 7.92003 7.9005 4.18848 12.5036 4.18848C17.1067 4.18848 20.8383 7.92003 20.8383 12.5231C20.8383 13.6205 20.6262 14.6682 20.2408 15.6278L27.1449 22.5318C27.2761 22.6631 27.3499 22.8411 27.3499 23.0268V26.6512C27.3499 27.0378 27.0365 27.3512 26.6499 27.3512H23.0254C22.8397 27.3512 22.6617 27.2775 22.5304 27.1462L20.947 25.5628C20.8774 25.4931 20.8382 25.3987 20.8382 25.3003V23.0491C20.8382 22.6625 20.5248 22.3491 20.1382 22.3491H18.0232C17.8376 22.3491 17.6595 22.2753 17.5282 22.144L15.6341 20.2499ZM11.9251 9.9998C11.9251 11.0629 11.0633 11.9248 10.0001 11.9248C8.93699 11.9248 8.07513 11.0629 8.07513 9.9998C8.07513 8.93665 8.93699 8.0748 10.0001 8.0748C11.0633 8.0748 11.9251 8.93665 11.9251 9.9998Z" fill="white"></path> </svg> 