<?xml version="1.0" encoding="UTF-8"?> <svg xmlns="http://www.w3.org/2000/svg" width="72" height="76" viewBox="0 0 72 76" fill="none"> <path d="M47 5H37V3C37 2.73478 36.8946 2.48043 36.7071 2.29289C36.5196 2.10536 36.2652 2 36 2C35.7348 2 35.4804 2.10536 35.2929 2.29289C35.1054 2.48043 35 2.73478 35 3V5H25C24.4696 5 23.9609 5.21071 23.5858 5.58579C23.2107 5.96086 23 6.46957 23 7V22C23 22.5304 23.2107 23.0391 23.5858 23.4142C23.9609 23.7893 24.4696 24 25 24H29.925L27.225 27.375C27.1075 27.5217 27.0338 27.6985 27.0122 27.8852C26.9906 28.0719 27.0221 28.2609 27.103 28.4305C27.1839 28.6001 27.311 28.7435 27.4696 28.8442C27.6283 28.945 27.8121 28.9989 28 29C28.1493 29.001 28.2968 28.9677 28.4311 28.9027C28.5655 28.8377 28.6831 28.7427 28.775 28.625L32.475 24H39.525L43.225 28.625C43.3169 28.7427 43.4345 28.8377 43.5689 28.9027C43.7032 28.9677 43.8507 29.001 44 29C44.1879 28.9989 44.3717 28.945 44.5304 28.8442C44.689 28.7435 44.8161 28.6001 44.897 28.4305C44.9779 28.2609 45.0094 28.0719 44.9878 27.8852C44.9662 27.6985 44.8925 27.5217 44.775 27.375L42.075 24H47C47.5304 24 48.0391 23.7893 48.4142 23.4142C48.7893 23.0391 49 22.5304 49 22V7C49 6.46957 48.7893 5.96086 48.4142 5.58579C48.0391 5.21071 47.5304 5 47 5Z" fill="white"></path> <path d="M30.0393 59.12C32.0193 59.12 33.0633 58.088 33.0633 56.66C33.0633 55.148 31.8873 54.572 30.8433 54.08C30.0273 53.684 29.2953 53.324 29.2953 52.592C29.2953 52.016 29.7273 51.536 30.8433 51.536C31.2513 51.536 32.0073 51.596 32.6673 51.884V50.78C32.4033 50.684 31.7433 50.48 30.8433 50.48C28.9833 50.48 28.0233 51.428 28.0233 52.748C28.0233 54.08 29.1393 54.632 30.1593 55.124C31.0113 55.544 31.7913 55.928 31.7913 56.708C31.7913 57.416 31.1673 58.064 30.0633 58.064C29.4993 58.064 28.6473 57.896 28.1193 57.668V58.772C28.8993 59.048 29.5713 59.12 30.0393 59.12ZM34.9986 59H36.1746V50.6H34.9986V59ZM38.5574 59H39.7334V55.904H41.2454C43.3214 55.904 44.2934 54.944 44.2934 53.252C44.2934 51.56 43.3214 50.6 41.2454 50.6H38.5574V59ZM39.7334 54.848V51.656H41.2454C42.4694 51.656 43.0454 52.196 43.0454 53.252C43.0454 54.308 42.4694 54.848 41.2454 54.848H39.7334ZM5.01717 73H6.14517V67.792H8.28117V66.88H2.88117V67.792H5.01717V73ZM14.567 70.192V69.88C14.567 67.804 13.511 66.784 11.771 66.784C10.151 66.784 8.87902 67.96 8.87902 69.832C8.87902 71.872 10.043 73.096 12.107 73.096C13.091 73.096 13.763 72.904 14.147 72.784V71.68C13.691 71.944 12.911 72.16 12.179 72.16C10.943 72.16 10.175 71.452 10.043 70.192H14.567ZM11.759 67.696C12.683 67.696 13.367 68.296 13.367 69.352H10.043C10.187 68.344 10.823 67.696 11.759 67.696ZM17.3174 72.196H17.3654C17.7134 72.64 18.4094 73.096 19.3934 73.096C21.1334 73.096 22.1654 71.632 22.1654 69.892C22.1654 68.116 21.1334 66.784 19.3334 66.784C18.8534 66.784 17.9414 66.892 17.2934 67.756H17.2694V66.88H16.1894V75.688H17.3174V72.196ZM19.1294 72.184C18.0254 72.184 17.3174 71.308 17.3174 69.952C17.3174 68.584 18.0374 67.696 19.1654 67.696C20.2574 67.696 20.9654 68.548 20.9654 69.856C20.9654 71.272 20.2454 72.184 19.1294 72.184ZM23.748 73H24.876V67.96H24.9L26.568 71.44H27.696L29.364 67.96H29.388V73H30.516V66.88H28.824L27.156 70.372L25.488 66.88H23.748V73ZM32.5136 73H33.9416L36.7496 68.2H36.7736V73H37.9016V66.88H36.4736L33.6656 71.68H33.6416V66.88H32.5136V73ZM39.8964 73H41.0244V70.276H44.0964V73H45.2244V66.88H44.0964V69.364H41.0244V66.88H39.8964V73ZM48.7926 73.096C49.5606 73.096 50.4246 72.82 50.9406 72.064H50.9646V73H52.1166V69.196C52.1166 67.504 51.1326 66.784 49.4646 66.784C48.7206 66.784 47.8806 66.928 47.2686 67.192V68.248C48.0006 67.852 48.6726 67.72 49.3206 67.72C50.3286 67.72 50.9886 68.104 50.9886 68.98V69.184H49.8606C47.7246 69.184 46.7046 69.928 46.7046 71.26C46.7046 72.4 47.5206 73.096 48.7926 73.096ZM49.0686 72.136C48.3486 72.136 47.9046 71.8 47.9046 71.188C47.9046 70.528 48.4206 70.048 49.9086 70.048H50.9886V70.432C50.9886 71.368 50.1846 72.136 49.0686 72.136ZM53.648 73.096C54.92 73.096 55.508 71.68 55.508 67.96V67.792H57.872V73H59V66.88H54.488V67.36C54.488 70.78 54.224 72.052 53.432 72.052C53.264 72.052 53.084 71.992 53.084 71.992V73.012C53.084 73.024 53.36 73.096 53.648 73.096ZM60.9901 73H63.3541C65.0941 73 65.8741 72.22 65.8741 71.008C65.8741 69.784 65.0941 68.992 63.3541 68.992H62.1181V66.88H60.9901V73ZM62.1181 72.088V69.904H63.3541C64.3021 69.904 64.7221 70.336 64.7221 71.008C64.7221 71.668 64.3021 72.088 63.3541 72.088H62.1181ZM67.1701 73H68.2981V66.88H67.1701V73Z" fill="#EBEDF0"></path> </svg> 